  0
SECTION
  2
BLOCKS
  0
ENDSEC
  0
SECTION
  2
ENTITIES
  0
LINE
  8
0
 10
435.495
 20
153.395
 11
448.754
 21
153.395
  0
LINE
  8
0
 10
448.754
 20
153.395
 11
448.754
 21
147.045
  0
LINE
  8
0
 10
448.754
 20
147.045
 11
462.154
 21
147.045
  0
LINE
  8
0
 10
462.154
 20
147.045
 11
462.154
 21
153.395
  0
LINE
  8
0
 10
462.154
 20
153.395
 11
475.413
 21
153.395
  0
LINE
  8
0
 10
475.413
 20
153.395
 11
475.413
 21
147.045
  0
LINE
  8
0
 10
475.413
 20
147.045
 11
488.813
 21
147.045
  0
LINE
  8
0
 10
488.813
 20
147.045
 11
488.813
 21
153.395
  0
LINE
  8
0
 10
488.813
 20
153.395
 11
502.073
 21
153.395
  0
LINE
  8
0
 10
502.073
 20
153.395
 11
502.073
 21
147.045
  0
LINE
  8
0
 10
502.073
 20
147.045
 11
515.472
 21
147.045
  0
LINE
  8
0
 10
515.472
 20
147.045
 11
515.472
 21
153.395
  0
LINE
  8
0
 10
515.472
 20
153.395
 11
528.732
 21
153.395
  0
LINE
  8
0
 10
528.732
 20
153.395
 11
528.732
 21
147.045
  0
LINE
  8
0
 10
528.732
 20
147.045
 11
542.132
 21
147.045
  0
LINE
  8
0
 10
542.132
 20
147.045
 11
542.132
 21
153.395
  0
LINE
  8
0
 10
542.132
 20
153.395
 11
555.391
 21
153.395
  0
LINE
  8
0
 10
555.391
 20
153.395
 11
555.391
 21
147.045
  0
LINE
  8
0
 10
555.391
 20
147.045
 11
568.791
 21
147.045
  0
LINE
  8
0
 10
568.791
 20
147.045
 11
568.791
 21
153.395
  0
LINE
  8
0
 10
568.791
 20
153.395
 11
582.051
 21
153.395
  0
LINE
  8
0
 10
582.051
 20
153.395
 11
582.051
 21
147.045
  0
LINE
  8
0
 10
582.051
 20
147.045
 11
595.45
 21
147.045
  0
LINE
  8
0
 10
595.45
 20
147.045
 11
595.45
 21
153.395
  0
LINE
  8
0
 10
595.45
 20
153.395
 11
608.71
 21
153.395
  0
LINE
  8
0
 10
608.71
 20
153.395
 11
608.71
 21
147.045
  0
LINE
  8
0
 10
608.71
 20
147.045
 11
622.109
 21
147.045
  0
LINE
  8
0
 10
622.109
 20
147.045
 11
622.109
 21
153.395
  0
LINE
  8
0
 10
622.109
 20
153.395
 11
635.369
 21
153.395
  0
LINE
  8
0
 10
635.369
 20
153.395
 11
635.369
 21
147.045
  0
LINE
  8
0
 10
635.369
 20
147.045
 11
648.769
 21
147.045
  0
LINE
  8
0
 10
648.769
 20
147.045
 11
648.769
 21
153.395
  0
LINE
  8
0
 10
648.769
 20
153.395
 11
662.028
 21
153.395
  0
LINE
  8
0
 10
662.028
 20
153.395
 11
662.028
 21
147.045
  0
LINE
  8
0
 10
662.028
 20
147.045
 11
675.428
 21
147.045
  0
LINE
  8
0
 10
675.428
 20
147.045
 11
675.428
 21
153.395
  0
LINE
  8
0
 10
675.428
 20
153.395
 11
688.688
 21
153.395
  0
LINE
  8
0
 10
688.688
 20
153.395
 11
688.688
 21
147.045
  0
LINE
  8
0
 10
688.688
 20
147.045
 11
702.087
 21
147.045
  0
LINE
  8
0
 10
702.087
 20
147.045
 11
702.087
 21
153.395
  0
LINE
  8
0
 10
702.087
 20
153.395
 11
715.347
 21
153.395
  0
LINE
  8
0
 10
715.347
 20
153.395
 11
715.347
 21
147.045
  0
LINE
  8
0
 10
715.347
 20
147.045
 11
728.746
 21
147.045
  0
LINE
  8
0
 10
728.746
 20
147.045
 11
728.746
 21
153.395
  0
LINE
  8
0
 10
728.746
 20
153.395
 11
742.006
 21
153.395
  0
LINE
  8
0
 10
742.006
 20
153.395
 11
742.006
 21
147.045
  0
LINE
  8
0
 10
742.006
 20
147.045
 11
755.406
 21
147.045
  0
LINE
  8
0
 10
755.406
 20
147.045
 11
755.406
 21
153.395
  0
LINE
  8
0
 10
755.406
 20
153.395
 11
768.665
 21
153.395
  0
LINE
  8
0
 10
768.665
 20
153.395
 11
768.665
 21
147.045
  0
LINE
  8
0
 10
768.665
 20
147.045
 11
782.065
 21
147.045
  0
LINE
  8
0
 10
782.065
 20
147.045
 11
782.065
 21
153.395
  0
LINE
  8
0
 10
782.065
 20
153.395
 11
794.765
 21
153.395
  0
LINE
  8
0
 10
794.765
 20
153.395
 11
794.765
 21
172.445
  0
LINE
  8
0
 10
794.765
 20
172.445
 11
801.115
 21
172.445
  0
LINE
  8
0
 10
801.115
 20
172.445
 11
801.115
 21
186.871
  0
LINE
  8
0
 10
801.115
 20
186.871
 11
794.765
 21
186.871
  0
LINE
  8
0
 10
794.765
 20
186.871
 11
794.765
 21
201.156
  0
LINE
  8
0
 10
794.765
 20
201.156
 11
801.115
 21
201.156
  0
LINE
  8
0
 10
801.115
 20
201.156
 11
801.115
 21
215.582
  0
LINE
  8
0
 10
801.115
 20
215.582
 11
794.765
 21
215.582
  0
LINE
  8
0
 10
794.765
 20
215.582
 11
794.765
 21
229.867
  0
LINE
  8
0
 10
794.765
 20
229.867
 11
801.115
 21
229.867
  0
LINE
  8
0
 10
801.115
 20
229.867
 11
801.115
 21
244.293
  0
LINE
  8
0
 10
801.115
 20
244.293
 11
794.765
 21
244.293
  0
LINE
  8
0
 10
794.765
 20
244.293
 11
794.765
 21
258.578
  0
LINE
  8
0
 10
794.765
 20
258.578
 11
801.115
 21
258.578
  0
LINE
  8
0
 10
801.115
 20
258.578
 11
801.115
 21
273.004
  0
LINE
  8
0
 10
801.115
 20
273.004
 11
794.765
 21
273.004
  0
LINE
  8
0
 10
794.765
 20
273.004
 11
794.765
 21
287.289
  0
LINE
  8
0
 10
794.765
 20
287.289
 11
801.115
 21
287.289
  0
LINE
  8
0
 10
801.115
 20
287.289
 11
801.115
 21
301.715
  0
LINE
  8
0
 10
801.115
 20
301.715
 11
794.765
 21
301.715
  0
LINE
  8
0
 10
794.765
 20
301.715
 11
794.765
 21
320.765
  0
LINE
  8
0
 10
794.765
 20
320.765
 11
782.065
 21
320.765
  0
LINE
  8
0
 10
782.065
 20
320.765
 11
782.065
 21
327.115
  0
LINE
  8
0
 10
782.065
 20
327.115
 11
768.665
 21
327.115
  0
LINE
  8
0
 10
768.665
 20
327.115
 11
768.665
 21
320.765
  0
LINE
  8
0
 10
768.665
 20
320.765
 11
755.406
 21
320.765
  0
LINE
  8
0
 10
755.406
 20
320.765
 11
755.406
 21
327.115
  0
LINE
  8
0
 10
755.406
 20
327.115
 11
742.006
 21
327.115
  0
LINE
  8
0
 10
742.006
 20
327.115
 11
742.006
 21
320.765
  0
LINE
  8
0
 10
742.006
 20
320.765
 11
728.746
 21
320.765
  0
LINE
  8
0
 10
728.746
 20
320.765
 11
728.746
 21
327.115
  0
LINE
  8
0
 10
728.746
 20
327.115
 11
715.347
 21
327.115
  0
LINE
  8
0
 10
715.347
 20
327.115
 11
715.347
 21
320.765
  0
LINE
  8
0
 10
715.347
 20
320.765
 11
702.087
 21
320.765
  0
LINE
  8
0
 10
702.087
 20
320.765
 11
702.087
 21
327.115
  0
LINE
  8
0
 10
702.087
 20
327.115
 11
688.688
 21
327.115
  0
LINE
  8
0
 10
688.688
 20
327.115
 11
688.688
 21
320.765
  0
LINE
  8
0
 10
688.688
 20
320.765
 11
675.428
 21
320.765
  0
LINE
  8
0
 10
675.428
 20
320.765
 11
675.428
 21
327.115
  0
LINE
  8
0
 10
675.428
 20
327.115
 11
662.028
 21
327.115
  0
LINE
  8
0
 10
662.028
 20
327.115
 11
662.028
 21
320.765
  0
LINE
  8
0
 10
662.028
 20
320.765
 11
648.769
 21
320.765
  0
LINE
  8
0
 10
648.769
 20
320.765
 11
648.769
 21
327.115
  0
LINE
  8
0
 10
648.769
 20
327.115
 11
635.369
 21
327.115
  0
LINE
  8
0
 10
635.369
 20
327.115
 11
635.369
 21
320.765
  0
LINE
  8
0
 10
635.369
 20
320.765
 11
622.109
 21
320.765
  0
LINE
  8
0
 10
622.109
 20
320.765
 11
622.109
 21
327.115
  0
LINE
  8
0
 10
622.109
 20
327.115
 11
608.71
 21
327.115
  0
LINE
  8
0
 10
608.71
 20
327.115
 11
608.71
 21
320.765
  0
LINE
  8
0
 10
608.71
 20
320.765
 11
595.45
 21
320.765
  0
LINE
  8
0
 10
595.45
 20
320.765
 11
595.45
 21
327.115
  0
LINE
  8
0
 10
595.45
 20
327.115
 11
582.051
 21
327.115
  0
LINE
  8
0
 10
582.051
 20
327.115
 11
582.051
 21
320.765
  0
LINE
  8
0
 10
582.051
 20
320.765
 11
568.791
 21
320.765
  0
LINE
  8
0
 10
568.791
 20
320.765
 11
568.791
 21
327.115
  0
LINE
  8
0
 10
568.791
 20
327.115
 11
555.391
 21
327.115
  0
LINE
  8
0
 10
555.391
 20
327.115
 11
555.391
 21
320.765
  0
LINE
  8
0
 10
555.391
 20
320.765
 11
542.132
 21
320.765
  0
LINE
  8
0
 10
542.132
 20
320.765
 11
542.132
 21
327.115
  0
LINE
  8
0
 10
542.132
 20
327.115
 11
528.732
 21
327.115
  0
LINE
  8
0
 10
528.732
 20
327.115
 11
528.732
 21
320.765
  0
LINE
  8
0
 10
528.732
 20
320.765
 11
515.472
 21
320.765
  0
LINE
  8
0
 10
515.472
 20
320.765
 11
515.472
 21
327.115
  0
LINE
  8
0
 10
515.472
 20
327.115
 11
502.073
 21
327.115
  0
LINE
  8
0
 10
502.073
 20
327.115
 11
502.073
 21
320.765
  0
LINE
  8
0
 10
502.073
 20
320.765
 11
488.813
 21
320.765
  0
LINE
  8
0
 10
488.813
 20
320.765
 11
488.813
 21
327.115
  0
LINE
  8
0
 10
488.813
 20
327.115
 11
475.414
 21
327.115
  0
LINE
  8
0
 10
475.414
 20
327.115
 11
475.414
 21
320.765
  0
LINE
  8
0
 10
475.414
 20
320.765
 11
462.154
 21
320.765
  0
LINE
  8
0
 10
462.154
 20
320.765
 11
462.154
 21
327.115
  0
LINE
  8
0
 10
462.154
 20
327.115
 11
448.754
 21
327.115
  0
LINE
  8
0
 10
448.754
 20
327.115
 11
448.754
 21
320.765
  0
LINE
  8
0
 10
448.754
 20
320.765
 11
435.495
 21
320.765
  0
LINE
  8
0
 10
435.495
 20
320.765
 11
435.495
 21
327.115
  0
LINE
  8
0
 10
435.495
 20
327.115
 11
422.095
 21
327.115
  0
LINE
  8
0
 10
422.095
 20
327.115
 11
422.095
 21
320.765
  0
LINE
  8
0
 10
422.095
 20
320.765
 11
409.395
 21
320.765
  0
LINE
  8
0
 10
409.395
 20
320.765
 11
409.395
 21
301.715
  0
LINE
  8
0
 10
409.395
 20
301.715
 11
403.045
 21
301.715
  0
LINE
  8
0
 10
403.045
 20
301.715
 11
403.045
 21
287.289
  0
LINE
  8
0
 10
403.045
 20
287.289
 11
409.395
 21
287.289
  0
LINE
  8
0
 10
409.395
 20
287.289
 11
409.395
 21
273.004
  0
LINE
  8
0
 10
409.395
 20
273.004
 11
403.045
 21
273.004
  0
LINE
  8
0
 10
403.045
 20
273.004
 11
403.045
 21
258.578
  0
LINE
  8
0
 10
403.045
 20
258.578
 11
409.395
 21
258.578
  0
LINE
  8
0
 10
409.395
 20
258.578
 11
409.395
 21
244.293
  0
LINE
  8
0
 10
409.395
 20
244.293
 11
403.045
 21
244.293
  0
LINE
  8
0
 10
403.045
 20
244.293
 11
403.045
 21
229.867
  0
LINE
  8
0
 10
403.045
 20
229.867
 11
409.395
 21
229.867
  0
LINE
  8
0
 10
409.395
 20
229.867
 11
409.395
 21
215.582
  0
LINE
  8
0
 10
409.395
 20
215.582
 11
403.045
 21
215.582
  0
LINE
  8
0
 10
403.045
 20
215.582
 11
403.045
 21
201.156
  0
LINE
  8
0
 10
403.045
 20
201.156
 11
409.395
 21
201.156
  0
LINE
  8
0
 10
409.395
 20
201.156
 11
409.395
 21
186.871
  0
LINE
  8
0
 10
409.395
 20
186.871
 11
403.045
 21
186.871
  0
LINE
  8
0
 10
403.045
 20
186.871
 11
403.045
 21
172.445
  0
LINE
  8
0
 10
403.045
 20
172.445
 11
409.395
 21
172.445
  0
LINE
  8
0
 10
409.395
 20
172.445
 11
409.395
 21
153.395
  0
LINE
  8
0
 10
409.395
 20
153.395
 11
422.095
 21
153.395
  0
LINE
  8
0
 10
422.095
 20
153.395
 11
422.095
 21
147.045
  0
LINE
  8
0
 10
422.095
 20
147.045
 11
435.495
 21
147.045
  0
LINE
  8
0
 10
435.495
 20
147.045
 11
435.495
 21
153.395
  0
LINE
  8
0
 10
32.4146
 20
153.395
 11
45.6743
 21
153.395
  0
LINE
  8
0
 10
45.6743
 20
153.395
 11
45.6743
 21
147.045
  0
LINE
  8
0
 10
45.6743
 20
147.045
 11
59.0739
 21
147.045
  0
LINE
  8
0
 10
59.0739
 20
147.045
 11
59.0739
 21
153.395
  0
LINE
  8
0
 10
59.0739
 20
153.395
 11
72.3335
 21
153.395
  0
LINE
  8
0
 10
72.3335
 20
153.395
 11
72.3335
 21
147.045
  0
LINE
  8
0
 10
72.3335
 20
147.045
 11
85.7331
 21
147.045
  0
LINE
  8
0
 10
85.7331
 20
147.045
 11
85.7331
 21
153.395
  0
LINE
  8
0
 10
85.7331
 20
153.395
 11
98.9928
 21
153.395
  0
LINE
  8
0
 10
98.9928
 20
153.395
 11
98.9928
 21
147.045
  0
LINE
  8
0
 10
98.9928
 20
147.045
 11
112.392
 21
147.045
  0
LINE
  8
0
 10
112.392
 20
147.045
 11
112.392
 21
153.395
  0
LINE
  8
0
 10
112.392
 20
153.395
 11
125.652
 21
153.395
  0
LINE
  8
0
 10
125.652
 20
153.395
 11
125.652
 21
147.045
  0
LINE
  8
0
 10
125.652
 20
147.045
 11
139.052
 21
147.045
  0
LINE
  8
0
 10
139.052
 20
147.045
 11
139.052
 21
153.395
  0
LINE
  8
0
 10
139.052
 20
153.395
 11
152.311
 21
153.395
  0
LINE
  8
0
 10
152.311
 20
153.395
 11
152.311
 21
147.045
  0
LINE
  8
0
 10
152.311
 20
147.045
 11
165.711
 21
147.045
  0
LINE
  8
0
 10
165.711
 20
147.045
 11
165.711
 21
153.395
  0
LINE
  8
0
 10
165.711
 20
153.395
 11
178.971
 21
153.395
  0
LINE
  8
0
 10
178.971
 20
153.395
 11
178.971
 21
147.045
  0
LINE
  8
0
 10
178.971
 20
147.045
 11
192.37
 21
147.045
  0
LINE
  8
0
 10
192.37
 20
147.045
 11
192.37
 21
153.395
  0
LINE
  8
0
 10
192.37
 20
153.395
 11
205.63
 21
153.395
  0
LINE
  8
0
 10
205.63
 20
153.395
 11
205.63
 21
147.045
  0
LINE
  8
0
 10
205.63
 20
147.045
 11
219.029
 21
147.045
  0
LINE
  8
0
 10
219.029
 20
147.045
 11
219.029
 21
153.395
  0
LINE
  8
0
 10
219.029
 20
153.395
 11
232.289
 21
153.395
  0
LINE
  8
0
 10
232.289
 20
153.395
 11
232.289
 21
147.045
  0
LINE
  8
0
 10
232.289
 20
147.045
 11
245.689
 21
147.045
  0
LINE
  8
0
 10
245.689
 20
147.045
 11
245.689
 21
153.395
  0
LINE
  8
0
 10
245.689
 20
153.395
 11
258.948
 21
153.395
  0
LINE
  8
0
 10
258.948
 20
153.395
 11
258.948
 21
147.045
  0
LINE
  8
0
 10
258.948
 20
147.045
 11
272.348
 21
147.045
  0
LINE
  8
0
 10
272.348
 20
147.045
 11
272.348
 21
153.395
  0
LINE
  8
0
 10
272.348
 20
153.395
 11
285.608
 21
153.395
  0
LINE
  8
0
 10
285.608
 20
153.395
 11
285.608
 21
147.045
  0
LINE
  8
0
 10
285.608
 20
147.045
 11
299.007
 21
147.045
  0
LINE
  8
0
 10
299.007
 20
147.045
 11
299.007
 21
153.395
  0
LINE
  8
0
 10
299.007
 20
153.395
 11
312.267
 21
153.395
  0
LINE
  8
0
 10
312.267
 20
153.395
 11
312.267
 21
147.045
  0
LINE
  8
0
 10
312.267
 20
147.045
 11
325.666
 21
147.045
  0
LINE
  8
0
 10
325.666
 20
147.045
 11
325.666
 21
153.395
  0
LINE
  8
0
 10
325.666
 20
153.395
 11
338.926
 21
153.395
  0
LINE
  8
0
 10
338.926
 20
153.395
 11
338.926
 21
147.045
  0
LINE
  8
0
 10
338.926
 20
147.045
 11
352.326
 21
147.045
  0
LINE
  8
0
 10
352.326
 20
147.045
 11
352.326
 21
153.395
  0
LINE
  8
0
 10
352.326
 20
153.395
 11
365.585
 21
153.395
  0
LINE
  8
0
 10
365.585
 20
153.395
 11
365.585
 21
147.045
  0
LINE
  8
0
 10
365.585
 20
147.045
 11
378.985
 21
147.045
  0
LINE
  8
0
 10
378.985
 20
147.045
 11
378.985
 21
153.395
  0
LINE
  8
0
 10
378.985
 20
153.395
 11
391.685
 21
153.395
  0
LINE
  8
0
 10
391.685
 20
153.395
 11
391.685
 21
172.445
  0
LINE
  8
0
 10
391.685
 20
172.445
 11
398.035
 21
172.445
  0
LINE
  8
0
 10
398.035
 20
172.445
 11
398.035
 21
186.871
  0
LINE
  8
0
 10
398.035
 20
186.871
 11
391.685
 21
186.871
  0
LINE
  8
0
 10
391.685
 20
186.871
 11
391.685
 21
201.156
  0
LINE
  8
0
 10
391.685
 20
201.156
 11
398.035
 21
201.156
  0
LINE
  8
0
 10
398.035
 20
201.156
 11
398.035
 21
215.582
  0
LINE
  8
0
 10
398.035
 20
215.582
 11
391.685
 21
215.582
  0
LINE
  8
0
 10
391.685
 20
215.582
 11
391.685
 21
229.867
  0
LINE
  8
0
 10
391.685
 20
229.867
 11
398.035
 21
229.867
  0
LINE
  8
0
 10
398.035
 20
229.867
 11
398.035
 21
244.293
  0
LINE
  8
0
 10
398.035
 20
244.293
 11
391.685
 21
244.293
  0
LINE
  8
0
 10
391.685
 20
244.293
 11
391.685
 21
258.578
  0
LINE
  8
0
 10
391.685
 20
258.578
 11
398.035
 21
258.578
  0
LINE
  8
0
 10
398.035
 20
258.578
 11
398.035
 21
273.004
  0
LINE
  8
0
 10
398.035
 20
273.004
 11
391.685
 21
273.004
  0
LINE
  8
0
 10
391.685
 20
273.004
 11
391.685
 21
287.289
  0
LINE
  8
0
 10
391.685
 20
287.289
 11
398.035
 21
287.289
  0
LINE
  8
0
 10
398.035
 20
287.289
 11
398.035
 21
301.715
  0
LINE
  8
0
 10
398.035
 20
301.715
 11
391.685
 21
301.715
  0
LINE
  8
0
 10
391.685
 20
301.715
 11
391.685
 21
320.765
  0
LINE
  8
0
 10
391.685
 20
320.765
 11
378.985
 21
320.765
  0
LINE
  8
0
 10
378.985
 20
320.765
 11
378.985
 21
327.115
  0
LINE
  8
0
 10
378.985
 20
327.115
 11
365.585
 21
327.115
  0
LINE
  8
0
 10
365.585
 20
327.115
 11
365.585
 21
320.765
  0
LINE
  8
0
 10
365.585
 20
320.765
 11
352.326
 21
320.765
  0
LINE
  8
0
 10
352.326
 20
320.765
 11
352.326
 21
327.115
  0
LINE
  8
0
 10
352.326
 20
327.115
 11
338.926
 21
327.115
  0
LINE
  8
0
 10
338.926
 20
327.115
 11
338.926
 21
320.765
  0
LINE
  8
0
 10
338.926
 20
320.765
 11
325.666
 21
320.765
  0
LINE
  8
0
 10
325.666
 20
320.765
 11
325.666
 21
327.115
  0
LINE
  8
0
 10
325.666
 20
327.115
 11
312.267
 21
327.115
  0
LINE
  8
0
 10
312.267
 20
327.115
 11
312.267
 21
320.765
  0
LINE
  8
0
 10
312.267
 20
320.765
 11
299.007
 21
320.765
  0
LINE
  8
0
 10
299.007
 20
320.765
 11
299.007
 21
327.115
  0
LINE
  8
0
 10
299.007
 20
327.115
 11
285.608
 21
327.115
  0
LINE
  8
0
 10
285.608
 20
327.115
 11
285.608
 21
320.765
  0
LINE
  8
0
 10
285.608
 20
320.765
 11
272.348
 21
320.765
  0
LINE
  8
0
 10
272.348
 20
320.765
 11
272.348
 21
327.115
  0
LINE
  8
0
 10
272.348
 20
327.115
 11
258.948
 21
327.115
  0
LINE
  8
0
 10
258.948
 20
327.115
 11
258.948
 21
320.765
  0
LINE
  8
0
 10
258.948
 20
320.765
 11
245.689
 21
320.765
  0
LINE
  8
0
 10
245.689
 20
320.765
 11
245.689
 21
327.115
  0
LINE
  8
0
 10
245.689
 20
327.115
 11
232.289
 21
327.115
  0
LINE
  8
0
 10
232.289
 20
327.115
 11
232.289
 21
320.765
  0
LINE
  8
0
 10
232.289
 20
320.765
 11
219.029
 21
320.765
  0
LINE
  8
0
 10
219.029
 20
320.765
 11
219.029
 21
327.115
  0
LINE
  8
0
 10
219.029
 20
327.115
 11
205.63
 21
327.115
  0
LINE
  8
0
 10
205.63
 20
327.115
 11
205.63
 21
320.765
  0
LINE
  8
0
 10
205.63
 20
320.765
 11
192.37
 21
320.765
  0
LINE
  8
0
 10
192.37
 20
320.765
 11
192.37
 21
327.115
  0
LINE
  8
0
 10
192.37
 20
327.115
 11
178.971
 21
327.115
  0
LINE
  8
0
 10
178.971
 20
327.115
 11
178.971
 21
320.765
  0
LINE
  8
0
 10
178.971
 20
320.765
 11
165.711
 21
320.765
  0
LINE
  8
0
 10
165.711
 20
320.765
 11
165.711
 21
327.115
  0
LINE
  8
0
 10
165.711
 20
327.115
 11
152.311
 21
327.115
  0
LINE
  8
0
 10
152.311
 20
327.115
 11
152.311
 21
320.765
  0
LINE
  8
0
 10
152.311
 20
320.765
 11
139.052
 21
320.765
  0
LINE
  8
0
 10
139.052
 20
320.765
 11
139.052
 21
327.115
  0
LINE
  8
0
 10
139.052
 20
327.115
 11
125.652
 21
327.115
  0
LINE
  8
0
 10
125.652
 20
327.115
 11
125.652
 21
320.765
  0
LINE
  8
0
 10
125.652
 20
320.765
 11
112.392
 21
320.765
  0
LINE
  8
0
 10
112.392
 20
320.765
 11
112.392
 21
327.115
  0
LINE
  8
0
 10
112.392
 20
327.115
 11
98.9928
 21
327.115
  0
LINE
  8
0
 10
98.9928
 20
327.115
 11
98.9928
 21
320.765
  0
LINE
  8
0
 10
98.9928
 20
320.765
 11
85.7332
 21
320.765
  0
LINE
  8
0
 10
85.7332
 20
320.765
 11
85.7332
 21
327.115
  0
LINE
  8
0
 10
85.7332
 20
327.115
 11
72.3335
 21
327.115
  0
LINE
  8
0
 10
72.3335
 20
327.115
 11
72.3335
 21
320.765
  0
LINE
  8
0
 10
72.3335
 20
320.765
 11
59.0739
 21
320.765
  0
LINE
  8
0
 10
59.0739
 20
320.765
 11
59.0739
 21
327.115
  0
LINE
  8
0
 10
59.0739
 20
327.115
 11
45.6743
 21
327.115
  0
LINE
  8
0
 10
45.6743
 20
327.115
 11
45.6743
 21
320.765
  0
LINE
  8
0
 10
45.6743
 20
320.765
 11
32.4146
 21
320.765
  0
LINE
  8
0
 10
32.4146
 20
320.765
 11
32.4146
 21
327.115
  0
LINE
  8
0
 10
32.4146
 20
327.115
 11
19.015
 21
327.115
  0
LINE
  8
0
 10
19.015
 20
327.115
 11
19.015
 21
320.765
  0
LINE
  8
0
 10
19.015
 20
320.765
 11
6.31499
 21
320.765
  0
LINE
  8
0
 10
6.31499
 20
320.765
 11
6.31499
 21
301.715
  0
LINE
  8
0
 10
6.31499
 20
301.715
 11
-0.0350037
 21
301.715
  0
LINE
  8
0
 10
-0.0350037
 20
301.715
 11
-0.0350037
 21
287.289
  0
LINE
  8
0
 10
-0.0350037
 20
287.289
 11
6.31499
 21
287.289
  0
LINE
  8
0
 10
6.31499
 20
287.289
 11
6.31499
 21
273.004
  0
LINE
  8
0
 10
6.31499
 20
273.004
 11
-0.0350037
 21
273.004
  0
LINE
  8
0
 10
-0.0350037
 20
273.004
 11
-0.0350037
 21
258.578
  0
LINE
  8
0
 10
-0.0350037
 20
258.578
 11
6.31499
 21
258.578
  0
LINE
  8
0
 10
6.31499
 20
258.578
 11
6.31499
 21
244.293
  0
LINE
  8
0
 10
6.31499
 20
244.293
 11
-0.0350037
 21
244.293
  0
LINE
  8
0
 10
-0.0350037
 20
244.293
 11
-0.0350037
 21
229.867
  0
LINE
  8
0
 10
-0.0350037
 20
229.867
 11
6.31499
 21
229.867
  0
LINE
  8
0
 10
6.31499
 20
229.867
 11
6.31499
 21
215.582
  0
LINE
  8
0
 10
6.31499
 20
215.582
 11
-0.0350037
 21
215.582
  0
LINE
  8
0
 10
-0.0350037
 20
215.582
 11
-0.0350037
 21
201.156
  0
LINE
  8
0
 10
-0.0350037
 20
201.156
 11
6.31499
 21
201.156
  0
LINE
  8
0
 10
6.31499
 20
201.156
 11
6.31499
 21
186.871
  0
LINE
  8
0
 10
6.31499
 20
186.871
 11
-0.0350037
 21
186.871
  0
LINE
  8
0
 10
-0.0350037
 20
186.871
 11
-0.0350037
 21
172.445
  0
LINE
  8
0
 10
-0.0350037
 20
172.445
 11
6.31499
 21
172.445
  0
LINE
  8
0
 10
6.31499
 20
172.445
 11
6.31499
 21
153.395
  0
LINE
  8
0
 10
6.31499
 20
153.395
 11
19.015
 21
153.395
  0
LINE
  8
0
 10
19.015
 20
153.395
 11
19.015
 21
147.045
  0
LINE
  8
0
 10
19.015
 20
147.045
 11
32.4146
 21
147.045
  0
LINE
  8
0
 10
32.4146
 20
147.045
 11
32.4146
 21
153.395
  0
LINE
  8
0
 10
831.595
 20
6.31499
 11
845.881
 21
6.31499
  0
LINE
  8
0
 10
845.881
 20
6.31499
 11
845.881
 21
-0.0350037
  0
LINE
  8
0
 10
845.881
 20
-0.0350037
 11
860.306
 21
-0.0350037
  0
LINE
  8
0
 10
860.306
 20
-0.0350037
 11
860.306
 21
6.31499
  0
LINE
  8
0
 10
860.306
 20
6.31499
 11
874.592
 21
6.31499
  0
LINE
  8
0
 10
874.592
 20
6.31499
 11
874.592
 21
-0.0350037
  0
LINE
  8
0
 10
874.592
 20
-0.0350037
 11
889.017
 21
-0.0350037
  0
LINE
  8
0
 10
889.017
 20
-0.0350037
 11
889.017
 21
6.31499
  0
LINE
  8
0
 10
889.017
 20
6.31499
 11
903.303
 21
6.31499
  0
LINE
  8
0
 10
903.303
 20
6.31499
 11
903.303
 21
-0.0350037
  0
LINE
  8
0
 10
903.303
 20
-0.0350037
 11
917.728
 21
-0.0350037
  0
LINE
  8
0
 10
917.728
 20
-0.0350037
 11
917.728
 21
6.31499
  0
LINE
  8
0
 10
917.728
 20
6.31499
 11
932.014
 21
6.31499
  0
LINE
  8
0
 10
932.014
 20
6.31499
 11
932.014
 21
-0.0350037
  0
LINE
  8
0
 10
932.014
 20
-0.0350037
 11
946.439
 21
-0.0350037
  0
LINE
  8
0
 10
946.439
 20
-0.0350037
 11
946.439
 21
6.31499
  0
LINE
  8
0
 10
946.439
 20
6.31499
 11
960.725
 21
6.31499
  0
LINE
  8
0
 10
960.725
 20
6.31499
 11
960.725
 21
-0.0350037
  0
LINE
  8
0
 10
960.725
 20
-0.0350037
 11
979.845
 21
-0.0350037
  0
LINE
  8
0
 10
979.845
 20
-0.0350037
 11
979.845
 21
19.015
  0
LINE
  8
0
 10
979.845
 20
19.015
 11
986.195
 21
19.015
  0
LINE
  8
0
 10
986.195
 20
19.015
 11
986.195
 21
33.9279
  0
LINE
  8
0
 10
986.195
 20
33.9279
 11
979.845
 21
33.9279
  0
LINE
  8
0
 10
979.845
 20
33.9279
 11
979.845
 21
48.7007
  0
LINE
  8
0
 10
979.845
 20
48.7007
 11
986.195
 21
48.7007
  0
LINE
  8
0
 10
986.195
 20
48.7007
 11
986.195
 21
63.6136
  0
LINE
  8
0
 10
986.195
 20
63.6136
 11
979.845
 21
63.6136
  0
LINE
  8
0
 10
979.845
 20
63.6136
 11
979.845
 21
78.3864
  0
LINE
  8
0
 10
979.845
 20
78.3864
 11
986.195
 21
78.3864
  0
LINE
  8
0
 10
986.195
 20
78.3864
 11
986.195
 21
93.2993
  0
LINE
  8
0
 10
986.195
 20
93.2993
 11
979.845
 21
93.2993
  0
LINE
  8
0
 10
979.845
 20
93.2993
 11
979.845
 21
108.072
  0
LINE
  8
0
 10
979.845
 20
108.072
 11
986.195
 21
108.072
  0
LINE
  8
0
 10
986.195
 20
108.072
 11
986.195
 21
122.985
  0
LINE
  8
0
 10
986.195
 20
122.985
 11
979.845
 21
122.985
  0
LINE
  8
0
 10
979.845
 20
122.985
 11
979.845
 21
142.035
  0
LINE
  8
0
 10
979.845
 20
142.035
 11
960.725
 21
142.035
  0
LINE
  8
0
 10
960.725
 20
142.035
 11
960.725
 21
135.685
  0
LINE
  8
0
 10
960.725
 20
135.685
 11
946.439
 21
135.685
  0
LINE
  8
0
 10
946.439
 20
135.685
 11
946.439
 21
142.035
  0
LINE
  8
0
 10
946.439
 20
142.035
 11
932.014
 21
142.035
  0
LINE
  8
0
 10
932.014
 20
142.035
 11
932.014
 21
135.685
  0
LINE
  8
0
 10
932.014
 20
135.685
 11
917.728
 21
135.685
  0
LINE
  8
0
 10
917.728
 20
135.685
 11
917.728
 21
142.035
  0
LINE
  8
0
 10
917.728
 20
142.035
 11
903.303
 21
142.035
  0
LINE
  8
0
 10
903.303
 20
142.035
 11
903.303
 21
135.685
  0
LINE
  8
0
 10
903.303
 20
135.685
 11
889.017
 21
135.685
  0
LINE
  8
0
 10
889.017
 20
135.685
 11
889.017
 21
142.035
  0
LINE
  8
0
 10
889.017
 20
142.035
 11
874.592
 21
142.035
  0
LINE
  8
0
 10
874.592
 20
142.035
 11
874.592
 21
135.685
  0
LINE
  8
0
 10
874.592
 20
135.685
 11
860.306
 21
135.685
  0
LINE
  8
0
 10
860.306
 20
135.685
 11
860.306
 21
142.035
  0
LINE
  8
0
 10
860.306
 20
142.035
 11
845.881
 21
142.035
  0
LINE
  8
0
 10
845.881
 20
142.035
 11
845.881
 21
135.685
  0
LINE
  8
0
 10
845.881
 20
135.685
 11
831.595
 21
135.685
  0
LINE
  8
0
 10
831.595
 20
135.685
 11
831.595
 21
142.035
  0
LINE
  8
0
 10
831.595
 20
142.035
 11
812.475
 21
142.035
  0
LINE
  8
0
 10
812.475
 20
142.035
 11
812.475
 21
122.985
  0
LINE
  8
0
 10
812.475
 20
122.985
 11
806.125
 21
122.985
  0
LINE
  8
0
 10
806.125
 20
122.985
 11
806.125
 21
108.072
  0
LINE
  8
0
 10
806.125
 20
108.072
 11
812.475
 21
108.072
  0
LINE
  8
0
 10
812.475
 20
108.072
 11
812.475
 21
93.2993
  0
LINE
  8
0
 10
812.475
 20
93.2993
 11
806.125
 21
93.2993
  0
LINE
  8
0
 10
806.125
 20
93.2993
 11
806.125
 21
78.3864
  0
LINE
  8
0
 10
806.125
 20
78.3864
 11
812.475
 21
78.3864
  0
LINE
  8
0
 10
812.475
 20
78.3864
 11
812.475
 21
63.6136
  0
LINE
  8
0
 10
812.475
 20
63.6136
 11
806.125
 21
63.6136
  0
LINE
  8
0
 10
806.125
 20
63.6136
 11
806.125
 21
48.7007
  0
LINE
  8
0
 10
806.125
 20
48.7007
 11
812.475
 21
48.7007
  0
LINE
  8
0
 10
812.475
 20
48.7007
 11
812.475
 21
33.9279
  0
LINE
  8
0
 10
812.475
 20
33.9279
 11
806.125
 21
33.9279
  0
LINE
  8
0
 10
806.125
 20
33.9279
 11
806.125
 21
19.015
  0
LINE
  8
0
 10
806.125
 20
19.015
 11
812.475
 21
19.015
  0
LINE
  8
0
 10
812.475
 20
19.015
 11
812.475
 21
-0.0350037
  0
LINE
  8
0
 10
812.475
 20
-0.0350037
 11
831.595
 21
-0.0350037
  0
LINE
  8
0
 10
831.595
 20
-0.0350037
 11
831.595
 21
6.31499
  0
LINE
  8
0
 10
19.085
 20
6.31499
 11
32.3446
 21
6.31499
  0
LINE
  8
0
 10
32.3446
 20
6.31499
 11
32.3446
 21
-0.0350037
  0
LINE
  8
0
 10
32.3446
 20
-0.0350037
 11
45.7443
 21
-0.0350037
  0
LINE
  8
0
 10
45.7443
 20
-0.0350037
 11
45.7443
 21
6.31499
  0
LINE
  8
0
 10
45.7443
 20
6.31499
 11
59.0039
 21
6.31499
  0
LINE
  8
0
 10
59.0039
 20
6.31499
 11
59.0039
 21
-0.0350037
  0
LINE
  8
0
 10
59.0039
 20
-0.0350037
 11
72.4035
 21
-0.0350037
  0
LINE
  8
0
 10
72.4035
 20
-0.0350037
 11
72.4035
 21
6.31499
  0
LINE
  8
0
 10
72.4035
 20
6.31499
 11
85.6631
 21
6.31499
  0
LINE
  8
0
 10
85.6631
 20
6.31499
 11
85.6631
 21
-0.0350037
  0
LINE
  8
0
 10
85.6631
 20
-0.0350037
 11
99.0628
 21
-0.0350037
  0
LINE
  8
0
 10
99.0628
 20
-0.0350037
 11
99.0628
 21
6.31499
  0
LINE
  8
0
 10
99.0628
 20
6.31499
 11
112.322
 21
6.31499
  0
LINE
  8
0
 10
112.322
 20
6.31499
 11
112.322
 21
-0.0350037
  0
LINE
  8
0
 10
112.322
 20
-0.0350037
 11
125.722
 21
-0.0350037
  0
LINE
  8
0
 10
125.722
 20
-0.0350037
 11
125.722
 21
6.31499
  0
LINE
  8
0
 10
125.722
 20
6.31499
 11
138.982
 21
6.31499
  0
LINE
  8
0
 10
138.982
 20
6.31499
 11
138.982
 21
-0.0350037
  0
LINE
  8
0
 10
138.982
 20
-0.0350037
 11
152.381
 21
-0.0350037
  0
LINE
  8
0
 10
152.381
 20
-0.0350037
 11
152.381
 21
6.31499
  0
LINE
  8
0
 10
152.381
 20
6.31499
 11
165.641
 21
6.31499
  0
LINE
  8
0
 10
165.641
 20
6.31499
 11
165.641
 21
-0.0350037
  0
LINE
  8
0
 10
165.641
 20
-0.0350037
 11
179.041
 21
-0.0350037
  0
LINE
  8
0
 10
179.041
 20
-0.0350037
 11
179.041
 21
6.31499
  0
LINE
  8
0
 10
179.041
 20
6.31499
 11
192.3
 21
6.31499
  0
LINE
  8
0
 10
192.3
 20
6.31499
 11
192.3
 21
-0.0350037
  0
LINE
  8
0
 10
192.3
 20
-0.0350037
 11
205.7
 21
-0.0350037
  0
LINE
  8
0
 10
205.7
 20
-0.0350037
 11
205.7
 21
6.31499
  0
LINE
  8
0
 10
205.7
 20
6.31499
 11
218.959
 21
6.31499
  0
LINE
  8
0
 10
218.959
 20
6.31499
 11
218.959
 21
-0.0350037
  0
LINE
  8
0
 10
218.959
 20
-0.0350037
 11
232.359
 21
-0.0350037
  0
LINE
  8
0
 10
232.359
 20
-0.0350037
 11
232.359
 21
6.31499
  0
LINE
  8
0
 10
232.359
 20
6.31499
 11
245.619
 21
6.31499
  0
LINE
  8
0
 10
245.619
 20
6.31499
 11
245.619
 21
-0.0350037
  0
LINE
  8
0
 10
245.619
 20
-0.0350037
 11
259.018
 21
-0.0350037
  0
LINE
  8
0
 10
259.018
 20
-0.0350037
 11
259.018
 21
6.31499
  0
LINE
  8
0
 10
259.018
 20
6.31499
 11
272.278
 21
6.31499
  0
LINE
  8
0
 10
272.278
 20
6.31499
 11
272.278
 21
-0.0350037
  0
LINE
  8
0
 10
272.278
 20
-0.0350037
 11
285.678
 21
-0.0350037
  0
LINE
  8
0
 10
285.678
 20
-0.0350037
 11
285.678
 21
6.31499
  0
LINE
  8
0
 10
285.678
 20
6.31499
 11
298.937
 21
6.31499
  0
LINE
  8
0
 10
298.937
 20
6.31499
 11
298.937
 21
-0.0350037
  0
LINE
  8
0
 10
298.937
 20
-0.0350037
 11
312.337
 21
-0.0350037
  0
LINE
  8
0
 10
312.337
 20
-0.0350037
 11
312.337
 21
6.31499
  0
LINE
  8
0
 10
312.337
 20
6.31499
 11
325.596
 21
6.31499
  0
LINE
  8
0
 10
325.596
 20
6.31499
 11
325.596
 21
-0.0350037
  0
LINE
  8
0
 10
325.596
 20
-0.0350037
 11
338.996
 21
-0.0350037
  0
LINE
  8
0
 10
338.996
 20
-0.0350037
 11
338.996
 21
6.31499
  0
LINE
  8
0
 10
338.996
 20
6.31499
 11
352.256
 21
6.31499
  0
LINE
  8
0
 10
352.256
 20
6.31499
 11
352.256
 21
-0.0350037
  0
LINE
  8
0
 10
352.256
 20
-0.0350037
 11
365.655
 21
-0.0350037
  0
LINE
  8
0
 10
365.655
 20
-0.0350037
 11
365.655
 21
6.31499
  0
LINE
  8
0
 10
365.655
 20
6.31499
 11
378.915
 21
6.31499
  0
LINE
  8
0
 10
378.915
 20
6.31499
 11
378.915
 21
-0.0350037
  0
LINE
  8
0
 10
378.915
 20
-0.0350037
 11
398.035
 21
-0.0350037
  0
LINE
  8
0
 10
398.035
 20
-0.0350037
 11
398.035
 21
19.085
  0
LINE
  8
0
 10
398.035
 20
19.085
 11
391.685
 21
19.085
  0
LINE
  8
0
 10
391.685
 20
19.085
 11
391.685
 21
33.8578
  0
LINE
  8
0
 10
391.685
 20
33.8578
 11
398.035
 21
33.8578
  0
LINE
  8
0
 10
398.035
 20
33.8578
 11
398.035
 21
48.7707
  0
LINE
  8
0
 10
398.035
 20
48.7707
 11
391.685
 21
48.7707
  0
LINE
  8
0
 10
391.685
 20
48.7707
 11
391.685
 21
63.5436
  0
LINE
  8
0
 10
391.685
 20
63.5436
 11
398.035
 21
63.5436
  0
LINE
  8
0
 10
398.035
 20
63.5436
 11
398.035
 21
78.4564
  0
LINE
  8
0
 10
398.035
 20
78.4564
 11
391.685
 21
78.4564
  0
LINE
  8
0
 10
391.685
 20
78.4564
 11
391.685
 21
93.2293
  0
LINE
  8
0
 10
391.685
 20
93.2293
 11
398.035
 21
93.2293
  0
LINE
  8
0
 10
398.035
 20
93.2293
 11
398.035
 21
108.142
  0
LINE
  8
0
 10
398.035
 20
108.142
 11
391.685
 21
108.142
  0
LINE
  8
0
 10
391.685
 20
108.142
 11
391.685
 21
122.915
  0
LINE
  8
0
 10
391.685
 20
122.915
 11
398.035
 21
122.915
  0
LINE
  8
0
 10
398.035
 20
122.915
 11
398.035
 21
142.035
  0
LINE
  8
0
 10
398.035
 20
142.035
 11
378.915
 21
142.035
  0
LINE
  8
0
 10
378.915
 20
142.035
 11
378.915
 21
135.685
  0
LINE
  8
0
 10
378.915
 20
135.685
 11
365.655
 21
135.685
  0
LINE
  8
0
 10
365.655
 20
135.685
 11
365.655
 21
142.035
  0
LINE
  8
0
 10
365.655
 20
142.035
 11
352.256
 21
142.035
  0
LINE
  8
0
 10
352.256
 20
142.035
 11
352.256
 21
135.685
  0
LINE
  8
0
 10
352.256
 20
135.685
 11
338.996
 21
135.685
  0
LINE
  8
0
 10
338.996
 20
135.685
 11
338.996
 21
142.035
  0
LINE
  8
0
 10
338.996
 20
142.035
 11
325.596
 21
142.035
  0
LINE
  8
0
 10
325.596
 20
142.035
 11
325.596
 21
135.685
  0
LINE
  8
0
 10
325.596
 20
135.685
 11
312.337
 21
135.685
  0
LINE
  8
0
 10
312.337
 20
135.685
 11
312.337
 21
142.035
  0
LINE
  8
0
 10
312.337
 20
142.035
 11
298.937
 21
142.035
  0
LINE
  8
0
 10
298.937
 20
142.035
 11
298.937
 21
135.685
  0
LINE
  8
0
 10
298.937
 20
135.685
 11
285.678
 21
135.685
  0
LINE
  8
0
 10
285.678
 20
135.685
 11
285.678
 21
142.035
  0
LINE
  8
0
 10
285.678
 20
142.035
 11
272.278
 21
142.035
  0
LINE
  8
0
 10
272.278
 20
142.035
 11
272.278
 21
135.685
  0
LINE
  8
0
 10
272.278
 20
135.685
 11
259.018
 21
135.685
  0
LINE
  8
0
 10
259.018
 20
135.685
 11
259.018
 21
142.035
  0
LINE
  8
0
 10
259.018
 20
142.035
 11
245.619
 21
142.035
  0
LINE
  8
0
 10
245.619
 20
142.035
 11
245.619
 21
135.685
  0
LINE
  8
0
 10
245.619
 20
135.685
 11
232.359
 21
135.685
  0
LINE
  8
0
 10
232.359
 20
135.685
 11
232.359
 21
142.035
  0
LINE
  8
0
 10
232.359
 20
142.035
 11
218.959
 21
142.035
  0
LINE
  8
0
 10
218.959
 20
142.035
 11
218.959
 21
135.685
  0
LINE
  8
0
 10
218.959
 20
135.685
 11
205.7
 21
135.685
  0
LINE
  8
0
 10
205.7
 20
135.685
 11
205.7
 21
142.035
  0
LINE
  8
0
 10
205.7
 20
142.035
 11
192.3
 21
142.035
  0
LINE
  8
0
 10
192.3
 20
142.035
 11
192.3
 21
135.685
  0
LINE
  8
0
 10
192.3
 20
135.685
 11
179.041
 21
135.685
  0
LINE
  8
0
 10
179.041
 20
135.685
 11
179.041
 21
142.035
  0
LINE
  8
0
 10
179.041
 20
142.035
 11
165.641
 21
142.035
  0
LINE
  8
0
 10
165.641
 20
142.035
 11
165.641
 21
135.685
  0
LINE
  8
0
 10
165.641
 20
135.685
 11
152.381
 21
135.685
  0
LINE
  8
0
 10
152.381
 20
135.685
 11
152.381
 21
142.035
  0
LINE
  8
0
 10
152.381
 20
142.035
 11
138.982
 21
142.035
  0
LINE
  8
0
 10
138.982
 20
142.035
 11
138.982
 21
135.685
  0
LINE
  8
0
 10
138.982
 20
135.685
 11
125.722
 21
135.685
  0
LINE
  8
0
 10
125.722
 20
135.685
 11
125.722
 21
142.035
  0
LINE
  8
0
 10
125.722
 20
142.035
 11
112.322
 21
142.035
  0
LINE
  8
0
 10
112.322
 20
142.035
 11
112.322
 21
135.685
  0
LINE
  8
0
 10
112.322
 20
135.685
 11
99.0628
 21
135.685
  0
LINE
  8
0
 10
99.0628
 20
135.685
 11
99.0628
 21
142.035
  0
LINE
  8
0
 10
99.0628
 20
142.035
 11
85.6631
 21
142.035
  0
LINE
  8
0
 10
85.6631
 20
142.035
 11
85.6631
 21
135.685
  0
LINE
  8
0
 10
85.6631
 20
135.685
 11
72.4035
 21
135.685
  0
LINE
  8
0
 10
72.4035
 20
135.685
 11
72.4035
 21
142.035
  0
LINE
  8
0
 10
72.4035
 20
142.035
 11
59.0039
 21
142.035
  0
LINE
  8
0
 10
59.0039
 20
142.035
 11
59.0039
 21
135.685
  0
LINE
  8
0
 10
59.0039
 20
135.685
 11
45.7443
 21
135.685
  0
LINE
  8
0
 10
45.7443
 20
135.685
 11
45.7443
 21
142.035
  0
LINE
  8
0
 10
45.7443
 20
142.035
 11
32.3446
 21
142.035
  0
LINE
  8
0
 10
32.3446
 20
142.035
 11
32.3446
 21
135.685
  0
LINE
  8
0
 10
32.3446
 20
135.685
 11
19.085
 21
135.685
  0
LINE
  8
0
 10
19.085
 20
135.685
 11
19.085
 21
142.035
  0
LINE
  8
0
 10
19.085
 20
142.035
 11
-0.0350037
 21
142.035
  0
LINE
  8
0
 10
-0.0350037
 20
142.035
 11
-0.0350037
 21
122.915
  0
LINE
  8
0
 10
-0.0350037
 20
122.915
 11
6.31499
 21
122.915
  0
LINE
  8
0
 10
6.31499
 20
122.915
 11
6.31499
 21
108.142
  0
LINE
  8
0
 10
6.31499
 20
108.142
 11
-0.0350037
 21
108.142
  0
LINE
  8
0
 10
-0.0350037
 20
108.142
 11
-0.0350037
 21
93.2293
  0
LINE
  8
0
 10
-0.0350037
 20
93.2293
 11
6.31499
 21
93.2293
  0
LINE
  8
0
 10
6.31499
 20
93.2293
 11
6.31499
 21
78.4564
  0
LINE
  8
0
 10
6.31499
 20
78.4564
 11
-0.0350037
 21
78.4564
  0
LINE
  8
0
 10
-0.0350037
 20
78.4564
 11
-0.0350037
 21
63.5436
  0
LINE
  8
0
 10
-0.0350037
 20
63.5436
 11
6.31499
 21
63.5436
  0
LINE
  8
0
 10
6.31499
 20
63.5436
 11
6.31499
 21
48.7707
  0
LINE
  8
0
 10
6.31499
 20
48.7707
 11
-0.0350037
 21
48.7707
  0
LINE
  8
0
 10
-0.0350037
 20
48.7707
 11
-0.0350037
 21
33.8579
  0
LINE
  8
0
 10
-0.0350037
 20
33.8579
 11
6.31499
 21
33.8579
  0
LINE
  8
0
 10
6.31499
 20
33.8579
 11
6.31499
 21
19.085
  0
LINE
  8
0
 10
6.31499
 20
19.085
 11
-0.0350037
 21
19.085
  0
LINE
  8
0
 10
-0.0350037
 20
19.085
 11
-0.0350037
 21
-0.0350037
  0
LINE
  8
0
 10
-0.0350037
 20
-0.0350037
 11
19.085
 21
-0.0350037
  0
LINE
  8
0
 10
19.085
 20
-0.0350037
 11
19.085
 21
6.31499
  0
LINE
  8
0
 10
325.259
 20
125.759
 11
324.538
 21
127.5
  0
LINE
  8
0
 10
324.538
 20
127.5
 11
325.259
 21
129.241
  0
LINE
  8
0
 10
325.259
 20
129.241
 11
327
 21
129.962
  0
LINE
  8
0
 10
327
 20
129.962
 11
328.741
 21
129.241
  0
LINE
  8
0
 10
328.741
 20
129.241
 11
329.462
 21
127.5
  0
LINE
  8
0
 10
329.462
 20
127.5
 11
328.741
 21
125.759
  0
LINE
  8
0
 10
328.741
 20
125.759
 11
327
 21
125.038
  0
LINE
  8
0
 10
327
 20
125.038
 11
325.259
 21
125.759
  0
LINE
  8
0
 10
69.259
 20
125.759
 11
68.5379
 21
127.5
  0
LINE
  8
0
 10
68.5379
 20
127.5
 11
69.259
 21
129.241
  0
LINE
  8
0
 10
69.259
 20
129.241
 11
71
 21
129.962
  0
LINE
  8
0
 10
71
 20
129.962
 11
72.741
 21
129.241
  0
LINE
  8
0
 10
72.741
 20
129.241
 11
73.4621
 21
127.5
  0
LINE
  8
0
 10
73.4621
 20
127.5
 11
72.741
 21
125.759
  0
LINE
  8
0
 10
72.741
 20
125.759
 11
71
 21
125.038
  0
LINE
  8
0
 10
71
 20
125.038
 11
69.259
 21
125.759
  0
LINE
  8
0
 10
197.259
 20
125.759
 11
196.538
 21
127.5
  0
LINE
  8
0
 10
196.538
 20
127.5
 11
197.259
 21
129.241
  0
LINE
  8
0
 10
197.259
 20
129.241
 11
199
 21
129.962
  0
LINE
  8
0
 10
199
 20
129.962
 11
200.741
 21
129.241
  0
LINE
  8
0
 10
200.741
 20
129.241
 11
201.462
 21
127.5
  0
LINE
  8
0
 10
201.462
 20
127.5
 11
200.741
 21
125.759
  0
LINE
  8
0
 10
200.741
 20
125.759
 11
199
 21
125.038
  0
LINE
  8
0
 10
199
 20
125.038
 11
197.259
 21
125.759
  0
LINE
  8
0
 10
282.035
 20
46.035
 11
282.035
 21
95.965
  0
LINE
  8
0
 10
282.035
 20
95.965
 11
371.965
 21
95.965
  0
LINE
  8
0
 10
371.965
 20
95.965
 11
371.965
 21
46.035
  0
LINE
  8
0
 10
371.965
 20
46.035
 11
282.035
 21
46.035
  0
LINE
  8
0
 10
154.035
 20
46.035
 11
154.035
 21
95.965
  0
LINE
  8
0
 10
154.035
 20
95.965
 11
243.965
 21
95.965
  0
LINE
  8
0
 10
243.965
 20
95.965
 11
243.965
 21
46.035
  0
LINE
  8
0
 10
243.965
 20
46.035
 11
154.035
 21
46.035
  0
LINE
  8
0
 10
26.035
 20
46.035
 11
26.035
 21
95.965
  0
LINE
  8
0
 10
26.035
 20
95.965
 11
115.965
 21
95.965
  0
LINE
  8
0
 10
115.965
 20
95.965
 11
115.965
 21
46.035
  0
LINE
  8
0
 10
115.965
 20
46.035
 11
26.035
 21
46.035
  0
LINE
  8
0
 10
197.259
 20
12.759
 11
196.538
 21
14.5
  0
LINE
  8
0
 10
196.538
 20
14.5
 11
197.259
 21
16.241
  0
LINE
  8
0
 10
197.259
 20
16.241
 11
199
 21
16.9621
  0
LINE
  8
0
 10
199
 20
16.9621
 11
200.741
 21
16.241
  0
LINE
  8
0
 10
200.741
 20
16.241
 11
201.462
 21
14.5
  0
LINE
  8
0
 10
201.462
 20
14.5
 11
200.741
 21
12.759
  0
LINE
  8
0
 10
200.741
 20
12.759
 11
199
 21
12.0379
  0
LINE
  8
0
 10
199
 20
12.0379
 11
197.259
 21
12.759
  0
LINE
  8
0
 10
69.259
 20
12.759
 11
68.5379
 21
14.5
  0
LINE
  8
0
 10
68.5379
 20
14.5
 11
69.259
 21
16.241
  0
LINE
  8
0
 10
69.259
 20
16.241
 11
71
 21
16.9621
  0
LINE
  8
0
 10
71
 20
16.9621
 11
72.741
 21
16.241
  0
LINE
  8
0
 10
72.741
 20
16.241
 11
73.4621
 21
14.5
  0
LINE
  8
0
 10
73.4621
 20
14.5
 11
72.741
 21
12.759
  0
LINE
  8
0
 10
72.741
 20
12.759
 11
71
 21
12.0379
  0
LINE
  8
0
 10
71
 20
12.0379
 11
69.259
 21
12.759
  0
LINE
  8
0
 10
325.259
 20
12.759
 11
324.538
 21
14.5
  0
LINE
  8
0
 10
324.538
 20
14.5
 11
325.259
 21
16.241
  0
LINE
  8
0
 10
325.259
 20
16.241
 11
327
 21
16.9621
  0
LINE
  8
0
 10
327
 20
16.9621
 11
328.741
 21
16.241
  0
LINE
  8
0
 10
328.741
 20
16.241
 11
329.462
 21
14.5
  0
LINE
  8
0
 10
329.462
 20
14.5
 11
328.741
 21
12.759
  0
LINE
  8
0
 10
328.741
 20
12.759
 11
327
 21
12.0379
  0
LINE
  8
0
 10
327
 20
12.0379
 11
325.259
 21
12.759
  0
LINE
  8
0
 10
1016.67
 20
6.31499
 11
1030.96
 21
6.31499
  0
LINE
  8
0
 10
1030.96
 20
6.31499
 11
1030.96
 21
-0.0350037
  0
LINE
  8
0
 10
1030.96
 20
-0.0350037
 11
1045.39
 21
-0.0350037
  0
LINE
  8
0
 10
1045.39
 20
-0.0350037
 11
1045.39
 21
6.31499
  0
LINE
  8
0
 10
1045.39
 20
6.31499
 11
1059.67
 21
6.31499
  0
LINE
  8
0
 10
1059.67
 20
6.31499
 11
1059.67
 21
-0.0350037
  0
LINE
  8
0
 10
1059.67
 20
-0.0350037
 11
1074.1
 21
-0.0350037
  0
LINE
  8
0
 10
1074.1
 20
-0.0350037
 11
1074.1
 21
6.31499
  0
LINE
  8
0
 10
1074.1
 20
6.31499
 11
1088.38
 21
6.31499
  0
LINE
  8
0
 10
1088.38
 20
6.31499
 11
1088.38
 21
-0.0350037
  0
LINE
  8
0
 10
1088.38
 20
-0.0350037
 11
1102.81
 21
-0.0350037
  0
LINE
  8
0
 10
1102.81
 20
-0.0350037
 11
1102.81
 21
6.31499
  0
LINE
  8
0
 10
1102.81
 20
6.31499
 11
1117.09
 21
6.31499
  0
LINE
  8
0
 10
1117.09
 20
6.31499
 11
1117.09
 21
-0.0350037
  0
LINE
  8
0
 10
1117.09
 20
-0.0350037
 11
1131.52
 21
-0.0350037
  0
LINE
  8
0
 10
1131.52
 20
-0.0350037
 11
1131.52
 21
6.31499
  0
LINE
  8
0
 10
1131.52
 20
6.31499
 11
1145.8
 21
6.31499
  0
LINE
  8
0
 10
1145.8
 20
6.31499
 11
1145.8
 21
-0.0350037
  0
LINE
  8
0
 10
1145.8
 20
-0.0350037
 11
1164.93
 21
-0.0350037
  0
LINE
  8
0
 10
1164.93
 20
-0.0350037
 11
1164.93
 21
19.015
  0
LINE
  8
0
 10
1164.93
 20
19.015
 11
1171.27
 21
19.015
  0
LINE
  8
0
 10
1171.27
 20
19.015
 11
1171.27
 21
33.9279
  0
LINE
  8
0
 10
1171.27
 20
33.9279
 11
1164.93
 21
33.9279
  0
LINE
  8
0
 10
1164.93
 20
33.9279
 11
1164.93
 21
48.7007
  0
LINE
  8
0
 10
1164.93
 20
48.7007
 11
1171.27
 21
48.7007
  0
LINE
  8
0
 10
1171.27
 20
48.7007
 11
1171.27
 21
63.6136
  0
LINE
  8
0
 10
1171.27
 20
63.6136
 11
1164.93
 21
63.6136
  0
LINE
  8
0
 10
1164.93
 20
63.6136
 11
1164.93
 21
78.3864
  0
LINE
  8
0
 10
1164.93
 20
78.3864
 11
1171.27
 21
78.3864
  0
LINE
  8
0
 10
1171.27
 20
78.3864
 11
1171.27
 21
93.2993
  0
LINE
  8
0
 10
1171.27
 20
93.2993
 11
1164.93
 21
93.2993
  0
LINE
  8
0
 10
1164.93
 20
93.2993
 11
1164.93
 21
108.072
  0
LINE
  8
0
 10
1164.93
 20
108.072
 11
1171.27
 21
108.072
  0
LINE
  8
0
 10
1171.27
 20
108.072
 11
1171.27
 21
122.985
  0
LINE
  8
0
 10
1171.27
 20
122.985
 11
1164.93
 21
122.985
  0
LINE
  8
0
 10
1164.93
 20
122.985
 11
1164.93
 21
142.035
  0
LINE
  8
0
 10
1164.93
 20
142.035
 11
1145.8
 21
142.035
  0
LINE
  8
0
 10
1145.8
 20
142.035
 11
1145.8
 21
135.685
  0
LINE
  8
0
 10
1145.8
 20
135.685
 11
1131.52
 21
135.685
  0
LINE
  8
0
 10
1131.52
 20
135.685
 11
1131.52
 21
142.035
  0
LINE
  8
0
 10
1131.52
 20
142.035
 11
1117.09
 21
142.035
  0
LINE
  8
0
 10
1117.09
 20
142.035
 11
1117.09
 21
135.685
  0
LINE
  8
0
 10
1117.09
 20
135.685
 11
1102.81
 21
135.685
  0
LINE
  8
0
 10
1102.81
 20
135.685
 11
1102.81
 21
142.035
  0
LINE
  8
0
 10
1102.81
 20
142.035
 11
1088.38
 21
142.035
  0
LINE
  8
0
 10
1088.38
 20
142.035
 11
1088.38
 21
135.685
  0
LINE
  8
0
 10
1088.38
 20
135.685
 11
1074.1
 21
135.685
  0
LINE
  8
0
 10
1074.1
 20
135.685
 11
1074.1
 21
142.035
  0
LINE
  8
0
 10
1074.1
 20
142.035
 11
1059.67
 21
142.035
  0
LINE
  8
0
 10
1059.67
 20
142.035
 11
1059.67
 21
135.685
  0
LINE
  8
0
 10
1059.67
 20
135.685
 11
1045.39
 21
135.685
  0
LINE
  8
0
 10
1045.39
 20
135.685
 11
1045.39
 21
142.035
  0
LINE
  8
0
 10
1045.39
 20
142.035
 11
1030.96
 21
142.035
  0
LINE
  8
0
 10
1030.96
 20
142.035
 11
1030.96
 21
135.685
  0
LINE
  8
0
 10
1030.96
 20
135.685
 11
1016.67
 21
135.685
  0
LINE
  8
0
 10
1016.67
 20
135.685
 11
1016.67
 21
142.035
  0
LINE
  8
0
 10
1016.67
 20
142.035
 11
997.555
 21
142.035
  0
LINE
  8
0
 10
997.555
 20
142.035
 11
997.555
 21
122.985
  0
LINE
  8
0
 10
997.555
 20
122.985
 11
991.205
 21
122.985
  0
LINE
  8
0
 10
991.205
 20
122.985
 11
991.205
 21
108.072
  0
LINE
  8
0
 10
991.205
 20
108.072
 11
997.555
 21
108.072
  0
LINE
  8
0
 10
997.555
 20
108.072
 11
997.555
 21
93.2993
  0
LINE
  8
0
 10
997.555
 20
93.2993
 11
991.205
 21
93.2993
  0
LINE
  8
0
 10
991.205
 20
93.2993
 11
991.205
 21
78.3864
  0
LINE
  8
0
 10
991.205
 20
78.3864
 11
997.555
 21
78.3864
  0
LINE
  8
0
 10
997.555
 20
78.3864
 11
997.555
 21
63.6136
  0
LINE
  8
0
 10
997.555
 20
63.6136
 11
991.205
 21
63.6136
  0
LINE
  8
0
 10
991.205
 20
63.6136
 11
991.205
 21
48.7007
  0
LINE
  8
0
 10
991.205
 20
48.7007
 11
997.555
 21
48.7007
  0
LINE
  8
0
 10
997.555
 20
48.7007
 11
997.555
 21
33.9279
  0
LINE
  8
0
 10
997.555
 20
33.9279
 11
991.205
 21
33.9279
  0
LINE
  8
0
 10
991.205
 20
33.9279
 11
991.205
 21
19.015
  0
LINE
  8
0
 10
991.205
 20
19.015
 11
997.555
 21
19.015
  0
LINE
  8
0
 10
997.555
 20
19.015
 11
997.555
 21
-0.0350037
  0
LINE
  8
0
 10
997.555
 20
-0.0350037
 11
1016.67
 21
-0.0350037
  0
LINE
  8
0
 10
1016.67
 20
-0.0350037
 11
1016.67
 21
6.31499
  0
LINE
  8
0
 10
422.165
 20
6.31499
 11
435.425
 21
6.31499
  0
LINE
  8
0
 10
435.425
 20
6.31499
 11
435.425
 21
-0.0350037
  0
LINE
  8
0
 10
435.425
 20
-0.0350037
 11
448.824
 21
-0.0350037
  0
LINE
  8
0
 10
448.824
 20
-0.0350037
 11
448.824
 21
6.31499
  0
LINE
  8
0
 10
448.824
 20
6.31499
 11
462.084
 21
6.31499
  0
LINE
  8
0
 10
462.084
 20
6.31499
 11
462.084
 21
-0.0350037
  0
LINE
  8
0
 10
462.084
 20
-0.0350037
 11
475.484
 21
-0.0350037
  0
LINE
  8
0
 10
475.484
 20
-0.0350037
 11
475.484
 21
6.31499
  0
LINE
  8
0
 10
475.484
 20
6.31499
 11
488.743
 21
6.31499
  0
LINE
  8
0
 10
488.743
 20
6.31499
 11
488.743
 21
-0.0350037
  0
LINE
  8
0
 10
488.743
 20
-0.0350037
 11
502.143
 21
-0.0350037
  0
LINE
  8
0
 10
502.143
 20
-0.0350037
 11
502.143
 21
6.31499
  0
LINE
  8
0
 10
502.143
 20
6.31499
 11
515.402
 21
6.31499
  0
LINE
  8
0
 10
515.402
 20
6.31499
 11
515.402
 21
-0.0350037
  0
LINE
  8
0
 10
515.402
 20
-0.0350037
 11
528.802
 21
-0.0350037
  0
LINE
  8
0
 10
528.802
 20
-0.0350037
 11
528.802
 21
6.31499
  0
LINE
  8
0
 10
528.802
 20
6.31499
 11
542.062
 21
6.31499
  0
LINE
  8
0
 10
542.062
 20
6.31499
 11
542.062
 21
-0.0350037
  0
LINE
  8
0
 10
542.062
 20
-0.0350037
 11
555.461
 21
-0.0350037
  0
LINE
  8
0
 10
555.461
 20
-0.0350037
 11
555.461
 21
6.31499
  0
LINE
  8
0
 10
555.461
 20
6.31499
 11
568.721
 21
6.31499
  0
LINE
  8
0
 10
568.721
 20
6.31499
 11
568.721
 21
-0.0350037
  0
LINE
  8
0
 10
568.721
 20
-0.0350037
 11
582.121
 21
-0.0350037
  0
LINE
  8
0
 10
582.121
 20
-0.0350037
 11
582.121
 21
6.31499
  0
LINE
  8
0
 10
582.121
 20
6.31499
 11
595.38
 21
6.31499
  0
LINE
  8
0
 10
595.38
 20
6.31499
 11
595.38
 21
-0.0350037
  0
LINE
  8
0
 10
595.38
 20
-0.0350037
 11
608.78
 21
-0.0350037
  0
LINE
  8
0
 10
608.78
 20
-0.0350037
 11
608.78
 21
6.31499
  0
LINE
  8
0
 10
608.78
 20
6.31499
 11
622.039
 21
6.31499
  0
LINE
  8
0
 10
622.039
 20
6.31499
 11
622.039
 21
-0.0350037
  0
LINE
  8
0
 10
622.039
 20
-0.0350037
 11
635.439
 21
-0.0350037
  0
LINE
  8
0
 10
635.439
 20
-0.0350037
 11
635.439
 21
6.31499
  0
LINE
  8
0
 10
635.439
 20
6.31499
 11
648.699
 21
6.31499
  0
LINE
  8
0
 10
648.699
 20
6.31499
 11
648.699
 21
-0.0350037
  0
LINE
  8
0
 10
648.699
 20
-0.0350037
 11
662.098
 21
-0.0350037
  0
LINE
  8
0
 10
662.098
 20
-0.0350037
 11
662.098
 21
6.31499
  0
LINE
  8
0
 10
662.098
 20
6.31499
 11
675.358
 21
6.31499
  0
LINE
  8
0
 10
675.358
 20
6.31499
 11
675.358
 21
-0.0350037
  0
LINE
  8
0
 10
675.358
 20
-0.0350037
 11
688.758
 21
-0.0350037
  0
LINE
  8
0
 10
688.758
 20
-0.0350037
 11
688.758
 21
6.31499
  0
LINE
  8
0
 10
688.758
 20
6.31499
 11
702.017
 21
6.31499
  0
LINE
  8
0
 10
702.017
 20
6.31499
 11
702.017
 21
-0.0350037
  0
LINE
  8
0
 10
702.017
 20
-0.0350037
 11
715.417
 21
-0.0350037
  0
LINE
  8
0
 10
715.417
 20
-0.0350037
 11
715.417
 21
6.31499
  0
LINE
  8
0
 10
715.417
 20
6.31499
 11
728.676
 21
6.31499
  0
LINE
  8
0
 10
728.676
 20
6.31499
 11
728.676
 21
-0.0350037
  0
LINE
  8
0
 10
728.676
 20
-0.0350037
 11
742.076
 21
-0.0350037
  0
LINE
  8
0
 10
742.076
 20
-0.0350037
 11
742.076
 21
6.31499
  0
LINE
  8
0
 10
742.076
 20
6.31499
 11
755.336
 21
6.31499
  0
LINE
  8
0
 10
755.336
 20
6.31499
 11
755.336
 21
-0.0350037
  0
LINE
  8
0
 10
755.336
 20
-0.0350037
 11
768.735
 21
-0.0350037
  0
LINE
  8
0
 10
768.735
 20
-0.0350037
 11
768.735
 21
6.31499
  0
LINE
  8
0
 10
768.735
 20
6.31499
 11
781.995
 21
6.31499
  0
LINE
  8
0
 10
781.995
 20
6.31499
 11
781.995
 21
-0.0350037
  0
LINE
  8
0
 10
781.995
 20
-0.0350037
 11
801.115
 21
-0.0350037
  0
LINE
  8
0
 10
801.115
 20
-0.0350037
 11
801.115
 21
2.52339
  0
LINE
  8
0
 10
801.115
 20
2.52339
 11
799.339
 21
3.25902
  0
LINE
  8
0
 10
799.339
 20
3.25902
 11
798.618
 21
5
  0
LINE
  8
0
 10
798.618
 20
5
 11
799.339
 21
6.74097
  0
LINE
  8
0
 10
799.339
 20
6.74097
 11
801.115
 21
7.47661
  0
LINE
  8
0
 10
801.115
 20
7.47661
 11
801.115
 21
19.085
  0
LINE
  8
0
 10
801.115
 20
19.085
 11
794.765
 21
19.085
  0
LINE
  8
0
 10
794.765
 20
19.085
 11
794.765
 21
33.8578
  0
LINE
  8
0
 10
794.765
 20
33.8578
 11
801.115
 21
33.8578
  0
LINE
  8
0
 10
801.115
 20
33.8578
 11
801.115
 21
48.7707
  0
LINE
  8
0
 10
801.115
 20
48.7707
 11
794.765
 21
48.7707
  0
LINE
  8
0
 10
794.765
 20
48.7707
 11
794.765
 21
63.5436
  0
LINE
  8
0
 10
794.765
 20
63.5436
 11
801.115
 21
63.5436
  0
LINE
  8
0
 10
801.115
 20
63.5436
 11
801.115
 21
78.4564
  0
LINE
  8
0
 10
801.115
 20
78.4564
 11
794.765
 21
78.4564
  0
LINE
  8
0
 10
794.765
 20
78.4564
 11
794.765
 21
93.2293
  0
LINE
  8
0
 10
794.765
 20
93.2293
 11
801.115
 21
93.2293
  0
LINE
  8
0
 10
801.115
 20
93.2293
 11
801.115
 21
108.142
  0
LINE
  8
0
 10
801.115
 20
108.142
 11
794.765
 21
108.142
  0
LINE
  8
0
 10
794.765
 20
108.142
 11
794.765
 21
122.915
  0
LINE
  8
0
 10
794.765
 20
122.915
 11
801.115
 21
122.915
  0
LINE
  8
0
 10
801.115
 20
122.915
 11
801.115
 21
142.035
  0
LINE
  8
0
 10
801.115
 20
142.035
 11
781.995
 21
142.035
  0
LINE
  8
0
 10
781.995
 20
142.035
 11
781.995
 21
135.685
  0
LINE
  8
0
 10
781.995
 20
135.685
 11
768.735
 21
135.685
  0
LINE
  8
0
 10
768.735
 20
135.685
 11
768.735
 21
142.035
  0
LINE
  8
0
 10
768.735
 20
142.035
 11
755.336
 21
142.035
  0
LINE
  8
0
 10
755.336
 20
142.035
 11
755.336
 21
135.685
  0
LINE
  8
0
 10
755.336
 20
135.685
 11
742.076
 21
135.685
  0
LINE
  8
0
 10
742.076
 20
135.685
 11
742.076
 21
142.035
  0
LINE
  8
0
 10
742.076
 20
142.035
 11
728.676
 21
142.035
  0
LINE
  8
0
 10
728.676
 20
142.035
 11
728.676
 21
135.685
  0
LINE
  8
0
 10
728.676
 20
135.685
 11
715.417
 21
135.685
  0
LINE
  8
0
 10
715.417
 20
135.685
 11
715.417
 21
142.035
  0
LINE
  8
0
 10
715.417
 20
142.035
 11
702.017
 21
142.035
  0
LINE
  8
0
 10
702.017
 20
142.035
 11
702.017
 21
135.685
  0
LINE
  8
0
 10
702.017
 20
135.685
 11
688.758
 21
135.685
  0
LINE
  8
0
 10
688.758
 20
135.685
 11
688.758
 21
142.035
  0
LINE
  8
0
 10
688.758
 20
142.035
 11
675.358
 21
142.035
  0
LINE
  8
0
 10
675.358
 20
142.035
 11
675.358
 21
135.685
  0
LINE
  8
0
 10
675.358
 20
135.685
 11
662.098
 21
135.685
  0
LINE
  8
0
 10
662.098
 20
135.685
 11
662.098
 21
142.035
  0
LINE
  8
0
 10
662.098
 20
142.035
 11
648.699
 21
142.035
  0
LINE
  8
0
 10
648.699
 20
142.035
 11
648.699
 21
135.685
  0
LINE
  8
0
 10
648.699
 20
135.685
 11
635.439
 21
135.685
  0
LINE
  8
0
 10
635.439
 20
135.685
 11
635.439
 21
142.035
  0
LINE
  8
0
 10
635.439
 20
142.035
 11
622.039
 21
142.035
  0
LINE
  8
0
 10
622.039
 20
142.035
 11
622.039
 21
135.685
  0
LINE
  8
0
 10
622.039
 20
135.685
 11
608.78
 21
135.685
  0
LINE
  8
0
 10
608.78
 20
135.685
 11
608.78
 21
142.035
  0
LINE
  8
0
 10
608.78
 20
142.035
 11
595.38
 21
142.035
  0
LINE
  8
0
 10
595.38
 20
142.035
 11
595.38
 21
135.685
  0
LINE
  8
0
 10
595.38
 20
135.685
 11
582.121
 21
135.685
  0
LINE
  8
0
 10
582.121
 20
135.685
 11
582.121
 21
142.035
  0
LINE
  8
0
 10
582.121
 20
142.035
 11
568.721
 21
142.035
  0
LINE
  8
0
 10
568.721
 20
142.035
 11
568.721
 21
135.685
  0
LINE
  8
0
 10
568.721
 20
135.685
 11
555.461
 21
135.685
  0
LINE
  8
0
 10
555.461
 20
135.685
 11
555.461
 21
142.035
  0
LINE
  8
0
 10
555.461
 20
142.035
 11
542.062
 21
142.035
  0
LINE
  8
0
 10
542.062
 20
142.035
 11
542.062
 21
135.685
  0
LINE
  8
0
 10
542.062
 20
135.685
 11
528.802
 21
135.685
  0
LINE
  8
0
 10
528.802
 20
135.685
 11
528.802
 21
142.035
  0
LINE
  8
0
 10
528.802
 20
142.035
 11
515.402
 21
142.035
  0
LINE
  8
0
 10
515.402
 20
142.035
 11
515.402
 21
135.685
  0
LINE
  8
0
 10
515.402
 20
135.685
 11
502.143
 21
135.685
  0
LINE
  8
0
 10
502.143
 20
135.685
 11
502.143
 21
142.035
  0
LINE
  8
0
 10
502.143
 20
142.035
 11
488.743
 21
142.035
  0
LINE
  8
0
 10
488.743
 20
142.035
 11
488.743
 21
135.685
  0
LINE
  8
0
 10
488.743
 20
135.685
 11
475.484
 21
135.685
  0
LINE
  8
0
 10
475.484
 20
135.685
 11
475.484
 21
142.035
  0
LINE
  8
0
 10
475.484
 20
142.035
 11
462.084
 21
142.035
  0
LINE
  8
0
 10
462.084
 20
142.035
 11
462.084
 21
135.685
  0
LINE
  8
0
 10
462.084
 20
135.685
 11
448.824
 21
135.685
  0
LINE
  8
0
 10
448.824
 20
135.685
 11
448.824
 21
142.035
  0
LINE
  8
0
 10
448.824
 20
142.035
 11
435.425
 21
142.035
  0
LINE
  8
0
 10
435.425
 20
142.035
 11
435.425
 21
135.685
  0
LINE
  8
0
 10
435.425
 20
135.685
 11
422.165
 21
135.685
  0
LINE
  8
0
 10
422.165
 20
135.685
 11
422.165
 21
142.035
  0
LINE
  8
0
 10
422.165
 20
142.035
 11
403.045
 21
142.035
  0
LINE
  8
0
 10
403.045
 20
142.035
 11
403.045
 21
122.915
  0
LINE
  8
0
 10
403.045
 20
122.915
 11
409.395
 21
122.915
  0
LINE
  8
0
 10
409.395
 20
122.915
 11
409.395
 21
108.142
  0
LINE
  8
0
 10
409.395
 20
108.142
 11
403.045
 21
108.142
  0
LINE
  8
0
 10
403.045
 20
108.142
 11
403.045
 21
93.2293
  0
LINE
  8
0
 10
403.045
 20
93.2293
 11
409.395
 21
93.2293
  0
LINE
  8
0
 10
409.395
 20
93.2293
 11
409.395
 21
78.4564
  0
LINE
  8
0
 10
409.395
 20
78.4564
 11
403.045
 21
78.4564
  0
LINE
  8
0
 10
403.045
 20
78.4564
 11
403.045
 21
63.5436
  0
LINE
  8
0
 10
403.045
 20
63.5436
 11
409.395
 21
63.5436
  0
LINE
  8
0
 10
409.395
 20
63.5436
 11
409.395
 21
48.7707
  0
LINE
  8
0
 10
409.395
 20
48.7707
 11
403.045
 21
48.7707
  0
LINE
  8
0
 10
403.045
 20
48.7707
 11
403.045
 21
33.8579
  0
LINE
  8
0
 10
403.045
 20
33.8579
 11
409.395
 21
33.8579
  0
LINE
  8
0
 10
409.395
 20
33.8579
 11
409.395
 21
19.085
  0
LINE
  8
0
 10
409.395
 20
19.085
 11
403.045
 21
19.085
  0
LINE
  8
0
 10
403.045
 20
19.085
 11
403.045
 21
-0.0350037
  0
LINE
  8
0
 10
403.045
 20
-0.0350037
 11
422.165
 21
-0.0350037
  0
LINE
  8
0
 10
422.165
 20
-0.0350037
 11
422.165
 21
6.31499
  0
LINE
  8
0
 10
462.815
 20
91.035
 11
462.815
 21
110.965
  0
LINE
  8
0
 10
462.815
 20
110.965
 11
741.345
 21
110.965
  0
LINE
  8
0
 10
741.345
 20
110.965
 11
741.345
 21
91.035
  0
LINE
  8
0
 10
741.345
 20
91.035
 11
462.815
 21
91.035
  0
LINE
  8
0
 10
748.993
 20
30.1446
 11
744.91
 21
31.0124
  0
LINE
  8
0
 10
744.91
 20
31.0124
 11
741.098
 21
32.7099
  0
LINE
  8
0
 10
741.098
 20
32.7099
 11
737.721
 21
35.1632
  0
LINE
  8
0
 10
737.721
 20
35.1632
 11
734.928
 21
38.265
  0
LINE
  8
0
 10
734.928
 20
38.265
 11
732.841
 21
41.8796
  0
LINE
  8
0
 10
732.841
 20
41.8796
 11
731.551
 21
45.849
  0
LINE
  8
0
 10
731.551
 20
45.849
 11
731.115
 21
50
  0
LINE
  8
0
 10
731.115
 20
50
 11
731.551
 21
54.1509
  0
LINE
  8
0
 10
731.551
 20
54.1509
 11
732.841
 21
58.1204
  0
LINE
  8
0
 10
732.841
 20
58.1204
 11
734.928
 21
61.735
  0
LINE
  8
0
 10
734.928
 20
61.735
 11
737.721
 21
64.8367
  0
LINE
  8
0
 10
737.721
 20
64.8367
 11
741.098
 21
67.29
  0
LINE
  8
0
 10
741.098
 20
67.29
 11
744.91
 21
68.9876
  0
LINE
  8
0
 10
744.91
 20
68.9876
 11
748.993
 21
69.8554
  0
LINE
  8
0
 10
748.993
 20
69.8554
 11
753.167
 21
69.8554
  0
LINE
  8
0
 10
753.167
 20
69.8554
 11
757.249
 21
68.9876
  0
LINE
  8
0
 10
757.249
 20
68.9876
 11
761.062
 21
67.29
  0
LINE
  8
0
 10
761.062
 20
67.29
 11
764.439
 21
64.8367
  0
LINE
  8
0
 10
764.439
 20
64.8367
 11
767.232
 21
61.735
  0
LINE
  8
0
 10
767.232
 20
61.735
 11
769.319
 21
58.1204
  0
LINE
  8
0
 10
769.319
 20
58.1204
 11
770.609
 21
54.1509
  0
LINE
  8
0
 10
770.609
 20
54.1509
 11
771.045
 21
50
  0
LINE
  8
0
 10
771.045
 20
50
 11
770.609
 21
45.849
  0
LINE
  8
0
 10
770.609
 20
45.849
 11
769.319
 21
41.8796
  0
LINE
  8
0
 10
769.319
 20
41.8796
 11
767.232
 21
38.265
  0
LINE
  8
0
 10
767.232
 20
38.265
 11
764.439
 21
35.1632
  0
LINE
  8
0
 10
764.439
 20
35.1632
 11
761.062
 21
32.7099
  0
LINE
  8
0
 10
761.062
 20
32.7099
 11
757.249
 21
31.0124
  0
LINE
  8
0
 10
757.249
 20
31.0124
 11
753.167
 21
30.1446
  0
LINE
  8
0
 10
753.167
 20
30.1446
 11
748.993
 21
30.1446
  0
LINE
  8
0
 10
450.993
 20
30.1446
 11
446.91
 21
31.0124
  0
LINE
  8
0
 10
446.91
 20
31.0124
 11
443.098
 21
32.7099
  0
LINE
  8
0
 10
443.098
 20
32.7099
 11
439.721
 21
35.1632
  0
LINE
  8
0
 10
439.721
 20
35.1632
 11
436.928
 21
38.265
  0
LINE
  8
0
 10
436.928
 20
38.265
 11
434.841
 21
41.8796
  0
LINE
  8
0
 10
434.841
 20
41.8796
 11
433.551
 21
45.849
  0
LINE
  8
0
 10
433.551
 20
45.849
 11
433.115
 21
50
  0
LINE
  8
0
 10
433.115
 20
50
 11
433.551
 21
54.1509
  0
LINE
  8
0
 10
433.551
 20
54.1509
 11
434.841
 21
58.1204
  0
LINE
  8
0
 10
434.841
 20
58.1204
 11
436.928
 21
61.735
  0
LINE
  8
0
 10
436.928
 20
61.735
 11
439.721
 21
64.8367
  0
LINE
  8
0
 10
439.721
 20
64.8367
 11
443.098
 21
67.29
  0
LINE
  8
0
 10
443.098
 20
67.29
 11
446.91
 21
68.9876
  0
LINE
  8
0
 10
446.91
 20
68.9876
 11
450.993
 21
69.8554
  0
LINE
  8
0
 10
450.993
 20
69.8554
 11
455.167
 21
69.8554
  0
LINE
  8
0
 10
455.167
 20
69.8554
 11
459.249
 21
68.9876
  0
LINE
  8
0
 10
459.249
 20
68.9876
 11
463.062
 21
67.29
  0
LINE
  8
0
 10
463.062
 20
67.29
 11
466.439
 21
64.8367
  0
LINE
  8
0
 10
466.439
 20
64.8367
 11
469.232
 21
61.735
  0
LINE
  8
0
 10
469.232
 20
61.735
 11
471.319
 21
58.1204
  0
LINE
  8
0
 10
471.319
 20
58.1204
 11
472.609
 21
54.1509
  0
LINE
  8
0
 10
472.609
 20
54.1509
 11
473.045
 21
50
  0
LINE
  8
0
 10
473.045
 20
50
 11
472.609
 21
45.849
  0
LINE
  8
0
 10
472.609
 20
45.849
 11
471.319
 21
41.8796
  0
LINE
  8
0
 10
471.319
 20
41.8796
 11
469.232
 21
38.265
  0
LINE
  8
0
 10
469.232
 20
38.265
 11
466.439
 21
35.1632
  0
LINE
  8
0
 10
466.439
 20
35.1632
 11
463.062
 21
32.7099
  0
LINE
  8
0
 10
463.062
 20
32.7099
 11
459.249
 21
31.0124
  0
LINE
  8
0
 10
459.249
 20
31.0124
 11
455.167
 21
30.1446
  0
LINE
  8
0
 10
455.167
 20
30.1446
 11
450.993
 21
30.1446
  0
LINE
  8
0
 10
784.339
 20
3.25902
 11
783.618
 21
5
  0
LINE
  8
0
 10
783.618
 20
5
 11
784.339
 21
6.74097
  0
LINE
  8
0
 10
784.339
 20
6.74097
 11
786.08
 21
7.46211
  0
LINE
  8
0
 10
786.08
 20
7.46211
 11
787.821
 21
6.74097
  0
LINE
  8
0
 10
787.821
 20
6.74097
 11
788.542
 21
5
  0
LINE
  8
0
 10
788.542
 20
5
 11
787.821
 21
3.25902
  0
LINE
  8
0
 10
787.821
 20
3.25902
 11
786.08
 21
2.53789
  0
LINE
  8
0
 10
786.08
 20
2.53789
 11
784.339
 21
3.25902
  0
ENDSEC
  0
SECTION
  2
OBJECTS
  0
DICTIONARY
  0
ENDSEC
  0
EOF
