  0
SECTION
  2
BLOCKS
  0
ENDSEC
  0
SECTION
  2
ENTITIES
  0
LINE
  8
0
 10
29.2028
 20
149.435
 11
42.9305
 21
149.435
  0
LINE
  8
0
 10
42.9305
 20
149.435
 11
42.9305
 21
146.435
  0
LINE
  8
0
 10
42.9305
 20
146.435
 11
56.3583
 21
146.435
  0
LINE
  8
0
 10
56.3583
 20
146.435
 11
56.3583
 21
149.435
  0
LINE
  8
0
 10
56.3583
 20
149.435
 11
70.0861
 21
149.435
  0
LINE
  8
0
 10
70.0861
 20
149.435
 11
70.0861
 21
146.435
  0
LINE
  8
0
 10
70.0861
 20
146.435
 11
83.5139
 21
146.435
  0
LINE
  8
0
 10
83.5139
 20
146.435
 11
83.5139
 21
149.435
  0
LINE
  8
0
 10
83.5139
 20
149.435
 11
97.2417
 21
149.435
  0
LINE
  8
0
 10
97.2417
 20
149.435
 11
97.2417
 21
146.435
  0
LINE
  8
0
 10
97.2417
 20
146.435
 11
110.669
 21
146.435
  0
LINE
  8
0
 10
110.669
 20
146.435
 11
110.669
 21
149.435
  0
LINE
  8
0
 10
110.669
 20
149.435
 11
124.397
 21
149.435
  0
LINE
  8
0
 10
124.397
 20
149.435
 11
124.397
 21
146.435
  0
LINE
  8
0
 10
124.397
 20
146.435
 11
137.825
 21
146.435
  0
LINE
  8
0
 10
137.825
 20
146.435
 11
137.825
 21
149.435
  0
LINE
  8
0
 10
137.825
 20
149.435
 11
151.553
 21
149.435
  0
LINE
  8
0
 10
151.553
 20
149.435
 11
151.553
 21
146.435
  0
LINE
  8
0
 10
151.553
 20
146.435
 11
164.981
 21
146.435
  0
LINE
  8
0
 10
164.981
 20
146.435
 11
164.981
 21
149.435
  0
LINE
  8
0
 10
164.981
 20
149.435
 11
178.708
 21
149.435
  0
LINE
  8
0
 10
178.708
 20
149.435
 11
178.708
 21
146.435
  0
LINE
  8
0
 10
178.708
 20
146.435
 11
192.136
 21
146.435
  0
LINE
  8
0
 10
192.136
 20
146.435
 11
192.136
 21
149.435
  0
LINE
  8
0
 10
192.136
 20
149.435
 11
205.864
 21
149.435
  0
LINE
  8
0
 10
205.864
 20
149.435
 11
205.864
 21
146.435
  0
LINE
  8
0
 10
205.864
 20
146.435
 11
219.292
 21
146.435
  0
LINE
  8
0
 10
219.292
 20
146.435
 11
219.292
 21
149.435
  0
LINE
  8
0
 10
219.292
 20
149.435
 11
233.019
 21
149.435
  0
LINE
  8
0
 10
233.019
 20
149.435
 11
233.019
 21
146.435
  0
LINE
  8
0
 10
233.019
 20
146.435
 11
246.447
 21
146.435
  0
LINE
  8
0
 10
246.447
 20
146.435
 11
246.447
 21
149.435
  0
LINE
  8
0
 10
246.447
 20
149.435
 11
260.175
 21
149.435
  0
LINE
  8
0
 10
260.175
 20
149.435
 11
260.175
 21
146.435
  0
LINE
  8
0
 10
260.175
 20
146.435
 11
273.603
 21
146.435
  0
LINE
  8
0
 10
273.603
 20
146.435
 11
273.603
 21
149.435
  0
LINE
  8
0
 10
273.603
 20
149.435
 11
287.331
 21
149.435
  0
LINE
  8
0
 10
287.331
 20
149.435
 11
287.331
 21
146.435
  0
LINE
  8
0
 10
287.331
 20
146.435
 11
300.758
 21
146.435
  0
LINE
  8
0
 10
300.758
 20
146.435
 11
300.758
 21
149.435
  0
LINE
  8
0
 10
300.758
 20
149.435
 11
314.486
 21
149.435
  0
LINE
  8
0
 10
314.486
 20
149.435
 11
314.486
 21
146.435
  0
LINE
  8
0
 10
314.486
 20
146.435
 11
327.914
 21
146.435
  0
LINE
  8
0
 10
327.914
 20
146.435
 11
327.914
 21
149.435
  0
LINE
  8
0
 10
327.914
 20
149.435
 11
341.642
 21
149.435
  0
LINE
  8
0
 10
341.642
 20
149.435
 11
341.642
 21
146.435
  0
LINE
  8
0
 10
341.642
 20
146.435
 11
355.069
 21
146.435
  0
LINE
  8
0
 10
355.069
 20
146.435
 11
355.069
 21
149.435
  0
LINE
  8
0
 10
355.069
 20
149.435
 11
368.797
 21
149.435
  0
LINE
  8
0
 10
368.797
 20
149.435
 11
368.797
 21
146.435
  0
LINE
  8
0
 10
368.797
 20
146.435
 11
382.225
 21
146.435
  0
LINE
  8
0
 10
382.225
 20
146.435
 11
382.225
 21
149.435
  0
LINE
  8
0
 10
382.225
 20
149.435
 11
394.925
 21
149.435
  0
LINE
  8
0
 10
394.925
 20
149.435
 11
394.925
 21
165.135
  0
LINE
  8
0
 10
394.925
 20
165.135
 11
397.925
 21
165.135
  0
LINE
  8
0
 10
397.925
 20
165.135
 11
397.925
 21
177.949
  0
LINE
  8
0
 10
397.925
 20
177.949
 11
394.925
 21
177.949
  0
LINE
  8
0
 10
394.925
 20
177.949
 11
394.925
 21
191.062
  0
LINE
  8
0
 10
394.925
 20
191.062
 11
397.925
 21
191.062
  0
LINE
  8
0
 10
397.925
 20
191.062
 11
397.925
 21
203.876
  0
LINE
  8
0
 10
397.925
 20
203.876
 11
394.925
 21
203.876
  0
LINE
  8
0
 10
394.925
 20
203.876
 11
394.925
 21
216.99
  0
LINE
  8
0
 10
394.925
 20
216.99
 11
397.925
 21
216.99
  0
LINE
  8
0
 10
397.925
 20
216.99
 11
397.925
 21
229.803
  0
LINE
  8
0
 10
397.925
 20
229.803
 11
394.925
 21
229.803
  0
LINE
  8
0
 10
394.925
 20
229.803
 11
394.925
 21
242.917
  0
LINE
  8
0
 10
394.925
 20
242.917
 11
397.925
 21
242.917
  0
LINE
  8
0
 10
397.925
 20
242.917
 11
397.925
 21
255.73
  0
LINE
  8
0
 10
397.925
 20
255.73
 11
394.925
 21
255.73
  0
LINE
  8
0
 10
394.925
 20
255.73
 11
394.925
 21
268.844
  0
LINE
  8
0
 10
394.925
 20
268.844
 11
397.925
 21
268.844
  0
LINE
  8
0
 10
397.925
 20
268.844
 11
397.925
 21
281.658
  0
LINE
  8
0
 10
397.925
 20
281.658
 11
394.925
 21
281.658
  0
LINE
  8
0
 10
394.925
 20
281.658
 11
394.925
 21
294.771
  0
LINE
  8
0
 10
394.925
 20
294.771
 11
397.925
 21
294.771
  0
LINE
  8
0
 10
397.925
 20
294.771
 11
397.925
 21
307.585
  0
LINE
  8
0
 10
397.925
 20
307.585
 11
394.925
 21
307.585
  0
LINE
  8
0
 10
394.925
 20
307.585
 11
394.925
 21
323.285
  0
LINE
  8
0
 10
394.925
 20
323.285
 11
382.225
 21
323.285
  0
LINE
  8
0
 10
382.225
 20
323.285
 11
382.225
 21
326.285
  0
LINE
  8
0
 10
382.225
 20
326.285
 11
368.797
 21
326.285
  0
LINE
  8
0
 10
368.797
 20
326.285
 11
368.797
 21
323.285
  0
LINE
  8
0
 10
368.797
 20
323.285
 11
355.069
 21
323.285
  0
LINE
  8
0
 10
355.069
 20
323.285
 11
355.069
 21
326.285
  0
LINE
  8
0
 10
355.069
 20
326.285
 11
341.642
 21
326.285
  0
LINE
  8
0
 10
341.642
 20
326.285
 11
341.642
 21
323.285
  0
LINE
  8
0
 10
341.642
 20
323.285
 11
327.914
 21
323.285
  0
LINE
  8
0
 10
327.914
 20
323.285
 11
327.914
 21
326.285
  0
LINE
  8
0
 10
327.914
 20
326.285
 11
314.486
 21
326.285
  0
LINE
  8
0
 10
314.486
 20
326.285
 11
314.486
 21
323.285
  0
LINE
  8
0
 10
314.486
 20
323.285
 11
300.758
 21
323.285
  0
LINE
  8
0
 10
300.758
 20
323.285
 11
300.758
 21
326.285
  0
LINE
  8
0
 10
300.758
 20
326.285
 11
287.331
 21
326.285
  0
LINE
  8
0
 10
287.331
 20
326.285
 11
287.331
 21
323.285
  0
LINE
  8
0
 10
287.331
 20
323.285
 11
273.603
 21
323.285
  0
LINE
  8
0
 10
273.603
 20
323.285
 11
273.603
 21
326.285
  0
LINE
  8
0
 10
273.603
 20
326.285
 11
260.175
 21
326.285
  0
LINE
  8
0
 10
260.175
 20
326.285
 11
260.175
 21
323.285
  0
LINE
  8
0
 10
260.175
 20
323.285
 11
246.447
 21
323.285
  0
LINE
  8
0
 10
246.447
 20
323.285
 11
246.447
 21
326.285
  0
LINE
  8
0
 10
246.447
 20
326.285
 11
233.019
 21
326.285
  0
LINE
  8
0
 10
233.019
 20
326.285
 11
233.019
 21
323.285
  0
LINE
  8
0
 10
233.019
 20
323.285
 11
219.292
 21
323.285
  0
LINE
  8
0
 10
219.292
 20
323.285
 11
219.292
 21
326.285
  0
LINE
  8
0
 10
219.292
 20
326.285
 11
205.864
 21
326.285
  0
LINE
  8
0
 10
205.864
 20
326.285
 11
205.864
 21
323.285
  0
LINE
  8
0
 10
205.864
 20
323.285
 11
192.136
 21
323.285
  0
LINE
  8
0
 10
192.136
 20
323.285
 11
192.136
 21
326.285
  0
LINE
  8
0
 10
192.136
 20
326.285
 11
178.708
 21
326.285
  0
LINE
  8
0
 10
178.708
 20
326.285
 11
178.708
 21
323.285
  0
LINE
  8
0
 10
178.708
 20
323.285
 11
164.981
 21
323.285
  0
LINE
  8
0
 10
164.981
 20
323.285
 11
164.981
 21
326.285
  0
LINE
  8
0
 10
164.981
 20
326.285
 11
151.553
 21
326.285
  0
LINE
  8
0
 10
151.553
 20
326.285
 11
151.553
 21
323.285
  0
LINE
  8
0
 10
151.553
 20
323.285
 11
137.825
 21
323.285
  0
LINE
  8
0
 10
137.825
 20
323.285
 11
137.825
 21
326.285
  0
LINE
  8
0
 10
137.825
 20
326.285
 11
124.397
 21
326.285
  0
LINE
  8
0
 10
124.397
 20
326.285
 11
124.397
 21
323.285
  0
LINE
  8
0
 10
124.397
 20
323.285
 11
110.669
 21
323.285
  0
LINE
  8
0
 10
110.669
 20
323.285
 11
110.669
 21
326.285
  0
LINE
  8
0
 10
110.669
 20
326.285
 11
97.2417
 21
326.285
  0
LINE
  8
0
 10
97.2417
 20
326.285
 11
97.2417
 21
323.285
  0
LINE
  8
0
 10
97.2417
 20
323.285
 11
83.5139
 21
323.285
  0
LINE
  8
0
 10
83.5139
 20
323.285
 11
83.5139
 21
326.285
  0
LINE
  8
0
 10
83.5139
 20
326.285
 11
70.0861
 21
326.285
  0
LINE
  8
0
 10
70.0861
 20
326.285
 11
70.0861
 21
323.285
  0
LINE
  8
0
 10
70.0861
 20
323.285
 11
56.3583
 21
323.285
  0
LINE
  8
0
 10
56.3583
 20
323.285
 11
56.3583
 21
326.285
  0
LINE
  8
0
 10
56.3583
 20
326.285
 11
42.9306
 21
326.285
  0
LINE
  8
0
 10
42.9306
 20
326.285
 11
42.9306
 21
323.285
  0
LINE
  8
0
 10
42.9306
 20
323.285
 11
29.2028
 21
323.285
  0
LINE
  8
0
 10
29.2028
 20
323.285
 11
29.2028
 21
326.285
  0
LINE
  8
0
 10
29.2028
 20
326.285
 11
15.775
 21
326.285
  0
LINE
  8
0
 10
15.775
 20
326.285
 11
15.775
 21
323.285
  0
LINE
  8
0
 10
15.775
 20
323.285
 11
3.075
 21
323.285
  0
LINE
  8
0
 10
3.075
 20
323.285
 11
3.075
 21
307.585
  0
LINE
  8
0
 10
3.075
 20
307.585
 11
0.0749969
 21
307.585
  0
LINE
  8
0
 10
0.0749969
 20
307.585
 11
0.0749969
 21
294.771
  0
LINE
  8
0
 10
0.0749969
 20
294.771
 11
3.075
 21
294.771
  0
LINE
  8
0
 10
3.075
 20
294.771
 11
3.075
 21
281.658
  0
LINE
  8
0
 10
3.075
 20
281.658
 11
0.0749969
 21
281.658
  0
LINE
  8
0
 10
0.0749969
 20
281.658
 11
0.0749969
 21
268.844
  0
LINE
  8
0
 10
0.0749969
 20
268.844
 11
3.075
 21
268.844
  0
LINE
  8
0
 10
3.075
 20
268.844
 11
3.075
 21
255.73
  0
LINE
  8
0
 10
3.075
 20
255.73
 11
0.0749969
 21
255.73
  0
LINE
  8
0
 10
0.0749969
 20
255.73
 11
0.0749969
 21
242.917
  0
LINE
  8
0
 10
0.0749969
 20
242.917
 11
3.075
 21
242.917
  0
LINE
  8
0
 10
3.075
 20
242.917
 11
3.075
 21
229.803
  0
LINE
  8
0
 10
3.075
 20
229.803
 11
0.0749969
 21
229.803
  0
LINE
  8
0
 10
0.0749969
 20
229.803
 11
0.0749969
 21
216.99
  0
LINE
  8
0
 10
0.0749969
 20
216.99
 11
3.075
 21
216.99
  0
LINE
  8
0
 10
3.075
 20
216.99
 11
3.075
 21
203.876
  0
LINE
  8
0
 10
3.075
 20
203.876
 11
0.0749969
 21
203.876
  0
LINE
  8
0
 10
0.0749969
 20
203.876
 11
0.0749969
 21
191.062
  0
LINE
  8
0
 10
0.0749969
 20
191.062
 11
3.075
 21
191.062
  0
LINE
  8
0
 10
3.075
 20
191.062
 11
3.075
 21
177.949
  0
LINE
  8
0
 10
3.075
 20
177.949
 11
0.0749969
 21
177.949
  0
LINE
  8
0
 10
0.0749969
 20
177.949
 11
0.0749969
 21
165.135
  0
LINE
  8
0
 10
0.0749969
 20
165.135
 11
3.075
 21
165.135
  0
LINE
  8
0
 10
3.075
 20
165.135
 11
3.075
 21
149.435
  0
LINE
  8
0
 10
3.075
 20
149.435
 11
15.775
 21
149.435
  0
LINE
  8
0
 10
15.775
 20
149.435
 11
15.775
 21
146.435
  0
LINE
  8
0
 10
15.775
 20
146.435
 11
29.2028
 21
146.435
  0
LINE
  8
0
 10
29.2028
 20
146.435
 11
29.2028
 21
149.435
  0
LINE
  8
0
 10
59.625
 20
181.585
 11
59.625
 21
281.135
  0
LINE
  8
0
 10
59.625
 20
281.135
 11
338.375
 21
281.135
  0
LINE
  8
0
 10
338.375
 20
281.135
 11
338.375
 21
181.585
  0
LINE
  8
0
 10
338.375
 20
181.585
 11
59.625
 21
181.585
  0
LINE
  8
0
 10
431.563
 20
149.435
 11
445.291
 21
149.435
  0
LINE
  8
0
 10
445.291
 20
149.435
 11
445.291
 21
146.435
  0
LINE
  8
0
 10
445.291
 20
146.435
 11
458.718
 21
146.435
  0
LINE
  8
0
 10
458.718
 20
146.435
 11
458.718
 21
149.435
  0
LINE
  8
0
 10
458.718
 20
149.435
 11
472.446
 21
149.435
  0
LINE
  8
0
 10
472.446
 20
149.435
 11
472.446
 21
146.435
  0
LINE
  8
0
 10
472.446
 20
146.435
 11
485.874
 21
146.435
  0
LINE
  8
0
 10
485.874
 20
146.435
 11
485.874
 21
149.435
  0
LINE
  8
0
 10
485.874
 20
149.435
 11
499.602
 21
149.435
  0
LINE
  8
0
 10
499.602
 20
149.435
 11
499.602
 21
146.435
  0
LINE
  8
0
 10
499.602
 20
146.435
 11
513.029
 21
146.435
  0
LINE
  8
0
 10
513.029
 20
146.435
 11
513.029
 21
149.435
  0
LINE
  8
0
 10
513.029
 20
149.435
 11
526.757
 21
149.435
  0
LINE
  8
0
 10
526.757
 20
149.435
 11
526.757
 21
146.435
  0
LINE
  8
0
 10
526.757
 20
146.435
 11
540.185
 21
146.435
  0
LINE
  8
0
 10
540.185
 20
146.435
 11
540.185
 21
149.435
  0
LINE
  8
0
 10
540.185
 20
149.435
 11
553.913
 21
149.435
  0
LINE
  8
0
 10
553.913
 20
149.435
 11
553.913
 21
146.435
  0
LINE
  8
0
 10
553.913
 20
146.435
 11
567.341
 21
146.435
  0
LINE
  8
0
 10
567.341
 20
146.435
 11
567.341
 21
149.435
  0
LINE
  8
0
 10
567.341
 20
149.435
 11
581.068
 21
149.435
  0
LINE
  8
0
 10
581.068
 20
149.435
 11
581.068
 21
146.435
  0
LINE
  8
0
 10
581.068
 20
146.435
 11
594.496
 21
146.435
  0
LINE
  8
0
 10
594.496
 20
146.435
 11
594.496
 21
149.435
  0
LINE
  8
0
 10
594.496
 20
149.435
 11
608.224
 21
149.435
  0
LINE
  8
0
 10
608.224
 20
149.435
 11
608.224
 21
146.435
  0
LINE
  8
0
 10
608.224
 20
146.435
 11
621.652
 21
146.435
  0
LINE
  8
0
 10
621.652
 20
146.435
 11
621.652
 21
149.435
  0
LINE
  8
0
 10
621.652
 20
149.435
 11
635.379
 21
149.435
  0
LINE
  8
0
 10
635.379
 20
149.435
 11
635.379
 21
146.435
  0
LINE
  8
0
 10
635.379
 20
146.435
 11
648.807
 21
146.435
  0
LINE
  8
0
 10
648.807
 20
146.435
 11
648.807
 21
149.435
  0
LINE
  8
0
 10
648.807
 20
149.435
 11
662.535
 21
149.435
  0
LINE
  8
0
 10
662.535
 20
149.435
 11
662.535
 21
146.435
  0
LINE
  8
0
 10
662.535
 20
146.435
 11
675.963
 21
146.435
  0
LINE
  8
0
 10
675.963
 20
146.435
 11
675.963
 21
149.435
  0
LINE
  8
0
 10
675.963
 20
149.435
 11
689.691
 21
149.435
  0
LINE
  8
0
 10
689.691
 20
149.435
 11
689.691
 21
146.435
  0
LINE
  8
0
 10
689.691
 20
146.435
 11
703.118
 21
146.435
  0
LINE
  8
0
 10
703.118
 20
146.435
 11
703.118
 21
149.435
  0
LINE
  8
0
 10
703.118
 20
149.435
 11
716.846
 21
149.435
  0
LINE
  8
0
 10
716.846
 20
149.435
 11
716.846
 21
146.435
  0
LINE
  8
0
 10
716.846
 20
146.435
 11
730.274
 21
146.435
  0
LINE
  8
0
 10
730.274
 20
146.435
 11
730.274
 21
149.435
  0
LINE
  8
0
 10
730.274
 20
149.435
 11
744.002
 21
149.435
  0
LINE
  8
0
 10
744.002
 20
149.435
 11
744.002
 21
146.435
  0
LINE
  8
0
 10
744.002
 20
146.435
 11
757.429
 21
146.435
  0
LINE
  8
0
 10
757.429
 20
146.435
 11
757.429
 21
149.435
  0
LINE
  8
0
 10
757.429
 20
149.435
 11
771.157
 21
149.435
  0
LINE
  8
0
 10
771.157
 20
149.435
 11
771.157
 21
146.435
  0
LINE
  8
0
 10
771.157
 20
146.435
 11
784.585
 21
146.435
  0
LINE
  8
0
 10
784.585
 20
146.435
 11
784.585
 21
149.435
  0
LINE
  8
0
 10
784.585
 20
149.435
 11
797.285
 21
149.435
  0
LINE
  8
0
 10
797.285
 20
149.435
 11
797.285
 21
165.135
  0
LINE
  8
0
 10
797.285
 20
165.135
 11
800.285
 21
165.135
  0
LINE
  8
0
 10
800.285
 20
165.135
 11
800.285
 21
177.949
  0
LINE
  8
0
 10
800.285
 20
177.949
 11
797.285
 21
177.949
  0
LINE
  8
0
 10
797.285
 20
177.949
 11
797.285
 21
191.062
  0
LINE
  8
0
 10
797.285
 20
191.062
 11
800.285
 21
191.062
  0
LINE
  8
0
 10
800.285
 20
191.062
 11
800.285
 21
203.876
  0
LINE
  8
0
 10
800.285
 20
203.876
 11
797.285
 21
203.876
  0
LINE
  8
0
 10
797.285
 20
203.876
 11
797.285
 21
216.99
  0
LINE
  8
0
 10
797.285
 20
216.99
 11
800.285
 21
216.99
  0
LINE
  8
0
 10
800.285
 20
216.99
 11
800.285
 21
229.803
  0
LINE
  8
0
 10
800.285
 20
229.803
 11
797.285
 21
229.803
  0
LINE
  8
0
 10
797.285
 20
229.803
 11
797.285
 21
242.917
  0
LINE
  8
0
 10
797.285
 20
242.917
 11
800.285
 21
242.917
  0
LINE
  8
0
 10
800.285
 20
242.917
 11
800.285
 21
255.73
  0
LINE
  8
0
 10
800.285
 20
255.73
 11
797.285
 21
255.73
  0
LINE
  8
0
 10
797.285
 20
255.73
 11
797.285
 21
268.844
  0
LINE
  8
0
 10
797.285
 20
268.844
 11
800.285
 21
268.844
  0
LINE
  8
0
 10
800.285
 20
268.844
 11
800.285
 21
281.658
  0
LINE
  8
0
 10
800.285
 20
281.658
 11
797.285
 21
281.658
  0
LINE
  8
0
 10
797.285
 20
281.658
 11
797.285
 21
294.771
  0
LINE
  8
0
 10
797.285
 20
294.771
 11
800.285
 21
294.771
  0
LINE
  8
0
 10
800.285
 20
294.771
 11
800.285
 21
307.585
  0
LINE
  8
0
 10
800.285
 20
307.585
 11
797.285
 21
307.585
  0
LINE
  8
0
 10
797.285
 20
307.585
 11
797.285
 21
323.285
  0
LINE
  8
0
 10
797.285
 20
323.285
 11
784.585
 21
323.285
  0
LINE
  8
0
 10
784.585
 20
323.285
 11
784.585
 21
326.285
  0
LINE
  8
0
 10
784.585
 20
326.285
 11
771.157
 21
326.285
  0
LINE
  8
0
 10
771.157
 20
326.285
 11
771.157
 21
323.285
  0
LINE
  8
0
 10
771.157
 20
323.285
 11
757.429
 21
323.285
  0
LINE
  8
0
 10
757.429
 20
323.285
 11
757.429
 21
326.285
  0
LINE
  8
0
 10
757.429
 20
326.285
 11
744.002
 21
326.285
  0
LINE
  8
0
 10
744.002
 20
326.285
 11
744.002
 21
323.285
  0
LINE
  8
0
 10
744.002
 20
323.285
 11
730.274
 21
323.285
  0
LINE
  8
0
 10
730.274
 20
323.285
 11
730.274
 21
326.285
  0
LINE
  8
0
 10
730.274
 20
326.285
 11
716.846
 21
326.285
  0
LINE
  8
0
 10
716.846
 20
326.285
 11
716.846
 21
323.285
  0
LINE
  8
0
 10
716.846
 20
323.285
 11
703.118
 21
323.285
  0
LINE
  8
0
 10
703.118
 20
323.285
 11
703.118
 21
326.285
  0
LINE
  8
0
 10
703.118
 20
326.285
 11
689.691
 21
326.285
  0
LINE
  8
0
 10
689.691
 20
326.285
 11
689.691
 21
323.285
  0
LINE
  8
0
 10
689.691
 20
323.285
 11
675.963
 21
323.285
  0
LINE
  8
0
 10
675.963
 20
323.285
 11
675.963
 21
326.285
  0
LINE
  8
0
 10
675.963
 20
326.285
 11
662.535
 21
326.285
  0
LINE
  8
0
 10
662.535
 20
326.285
 11
662.535
 21
323.285
  0
LINE
  8
0
 10
662.535
 20
323.285
 11
648.807
 21
323.285
  0
LINE
  8
0
 10
648.807
 20
323.285
 11
648.807
 21
326.285
  0
LINE
  8
0
 10
648.807
 20
326.285
 11
635.379
 21
326.285
  0
LINE
  8
0
 10
635.379
 20
326.285
 11
635.379
 21
323.285
  0
LINE
  8
0
 10
635.379
 20
323.285
 11
621.652
 21
323.285
  0
LINE
  8
0
 10
621.652
 20
323.285
 11
621.652
 21
326.285
  0
LINE
  8
0
 10
621.652
 20
326.285
 11
608.224
 21
326.285
  0
LINE
  8
0
 10
608.224
 20
326.285
 11
608.224
 21
323.285
  0
LINE
  8
0
 10
608.224
 20
323.285
 11
594.496
 21
323.285
  0
LINE
  8
0
 10
594.496
 20
323.285
 11
594.496
 21
326.285
  0
LINE
  8
0
 10
594.496
 20
326.285
 11
581.068
 21
326.285
  0
LINE
  8
0
 10
581.068
 20
326.285
 11
581.068
 21
323.285
  0
LINE
  8
0
 10
581.068
 20
323.285
 11
567.341
 21
323.285
  0
LINE
  8
0
 10
567.341
 20
323.285
 11
567.341
 21
326.285
  0
LINE
  8
0
 10
567.341
 20
326.285
 11
553.913
 21
326.285
  0
LINE
  8
0
 10
553.913
 20
326.285
 11
553.913
 21
323.285
  0
LINE
  8
0
 10
553.913
 20
323.285
 11
540.185
 21
323.285
  0
LINE
  8
0
 10
540.185
 20
323.285
 11
540.185
 21
326.285
  0
LINE
  8
0
 10
540.185
 20
326.285
 11
526.757
 21
326.285
  0
LINE
  8
0
 10
526.757
 20
326.285
 11
526.757
 21
323.285
  0
LINE
  8
0
 10
526.757
 20
323.285
 11
513.029
 21
323.285
  0
LINE
  8
0
 10
513.029
 20
323.285
 11
513.029
 21
326.285
  0
LINE
  8
0
 10
513.029
 20
326.285
 11
499.602
 21
326.285
  0
LINE
  8
0
 10
499.602
 20
326.285
 11
499.602
 21
323.285
  0
LINE
  8
0
 10
499.602
 20
323.285
 11
485.874
 21
323.285
  0
LINE
  8
0
 10
485.874
 20
323.285
 11
485.874
 21
326.285
  0
LINE
  8
0
 10
485.874
 20
326.285
 11
472.446
 21
326.285
  0
LINE
  8
0
 10
472.446
 20
326.285
 11
472.446
 21
323.285
  0
LINE
  8
0
 10
472.446
 20
323.285
 11
458.718
 21
323.285
  0
LINE
  8
0
 10
458.718
 20
323.285
 11
458.718
 21
326.285
  0
LINE
  8
0
 10
458.718
 20
326.285
 11
445.291
 21
326.285
  0
LINE
  8
0
 10
445.291
 20
326.285
 11
445.291
 21
323.285
  0
LINE
  8
0
 10
445.291
 20
323.285
 11
431.563
 21
323.285
  0
LINE
  8
0
 10
431.563
 20
323.285
 11
431.563
 21
326.285
  0
LINE
  8
0
 10
431.563
 20
326.285
 11
418.135
 21
326.285
  0
LINE
  8
0
 10
418.135
 20
326.285
 11
418.135
 21
323.285
  0
LINE
  8
0
 10
418.135
 20
323.285
 11
405.435
 21
323.285
  0
LINE
  8
0
 10
405.435
 20
323.285
 11
405.435
 21
307.585
  0
LINE
  8
0
 10
405.435
 20
307.585
 11
402.435
 21
307.585
  0
LINE
  8
0
 10
402.435
 20
307.585
 11
402.435
 21
294.771
  0
LINE
  8
0
 10
402.435
 20
294.771
 11
405.435
 21
294.771
  0
LINE
  8
0
 10
405.435
 20
294.771
 11
405.435
 21
281.658
  0
LINE
  8
0
 10
405.435
 20
281.658
 11
402.435
 21
281.658
  0
LINE
  8
0
 10
402.435
 20
281.658
 11
402.435
 21
268.844
  0
LINE
  8
0
 10
402.435
 20
268.844
 11
405.435
 21
268.844
  0
LINE
  8
0
 10
405.435
 20
268.844
 11
405.435
 21
255.73
  0
LINE
  8
0
 10
405.435
 20
255.73
 11
402.435
 21
255.73
  0
LINE
  8
0
 10
402.435
 20
255.73
 11
402.435
 21
242.917
  0
LINE
  8
0
 10
402.435
 20
242.917
 11
405.435
 21
242.917
  0
LINE
  8
0
 10
405.435
 20
242.917
 11
405.435
 21
229.803
  0
LINE
  8
0
 10
405.435
 20
229.803
 11
402.435
 21
229.803
  0
LINE
  8
0
 10
402.435
 20
229.803
 11
402.435
 21
216.99
  0
LINE
  8
0
 10
402.435
 20
216.99
 11
405.435
 21
216.99
  0
LINE
  8
0
 10
405.435
 20
216.99
 11
405.435
 21
203.876
  0
LINE
  8
0
 10
405.435
 20
203.876
 11
402.435
 21
203.876
  0
LINE
  8
0
 10
402.435
 20
203.876
 11
402.435
 21
191.062
  0
LINE
  8
0
 10
402.435
 20
191.062
 11
405.435
 21
191.062
  0
LINE
  8
0
 10
405.435
 20
191.062
 11
405.435
 21
177.949
  0
LINE
  8
0
 10
405.435
 20
177.949
 11
402.435
 21
177.949
  0
LINE
  8
0
 10
402.435
 20
177.949
 11
402.435
 21
165.135
  0
LINE
  8
0
 10
402.435
 20
165.135
 11
405.435
 21
165.135
  0
LINE
  8
0
 10
405.435
 20
165.135
 11
405.435
 21
149.435
  0
LINE
  8
0
 10
405.435
 20
149.435
 11
418.135
 21
149.435
  0
LINE
  8
0
 10
418.135
 20
149.435
 11
418.135
 21
146.435
  0
LINE
  8
0
 10
418.135
 20
146.435
 11
431.563
 21
146.435
  0
LINE
  8
0
 10
431.563
 20
146.435
 11
431.563
 21
149.435
  0
LINE
  8
0
 10
1205.25
 20
288.5
 11
807.25
 21
288.5
  0
LINE
  8
0
 10
807.25
 20
288.5
 11
807.25
 21
146.5
  0
LINE
  8
0
 10
807.25
 20
146.5
 11
1205.25
 21
146.5
  0
LINE
  8
0
 10
1205.25
 20
146.5
 11
1205.25
 21
288.5
  0
LINE
  8
0
 10
814
 20
153.25
 11
814
 21
281.75
  0
LINE
  8
0
 10
814
 20
281.75
 11
1198.5
 21
281.75
  0
LINE
  8
0
 10
1198.5
 20
281.75
 11
1198.5
 21
153.25
  0
LINE
  8
0
 10
1198.5
 20
153.25
 11
814
 21
153.25
  0
LINE
  8
0
 10
1100.5
 20
269.345
 11
823.895
 21
269.345
  0
LINE
  8
0
 10
823.895
 20
269.345
 11
823.895
 21
170.655
  0
LINE
  8
0
 10
823.895
 20
170.655
 11
1100.5
 21
170.655
  0
LINE
  8
0
 10
1100.5
 20
170.655
 11
1100.5
 21
269.345
  0
LINE
  8
0
 10
1189.1
 20
250
 11
1159.1
 21
250
  0
LINE
  8
0
 10
1159.1
 20
250
 11
1159.1
 21
190
  0
LINE
  8
0
 10
1159.1
 20
190
 11
1189.1
 21
190
  0
LINE
  8
0
 10
1189.1
 20
190
 11
1189.1
 21
250
  0
LINE
  8
0
 10
1149.3
 20
250
 11
1119.3
 21
250
  0
LINE
  8
0
 10
1119.3
 20
250
 11
1119.3
 21
190
  0
LINE
  8
0
 10
1119.3
 20
190
 11
1149.3
 21
190
  0
LINE
  8
0
 10
1149.3
 20
190
 11
1149.3
 21
250
  0
LINE
  8
0
 10
417.985
 20
3.075
 11
431.713
 21
3.075
  0
LINE
  8
0
 10
431.713
 20
3.075
 11
431.713
 21
0.0749969
  0
LINE
  8
0
 10
431.713
 20
0.0749969
 11
445.141
 21
0.0749969
  0
LINE
  8
0
 10
445.141
 20
0.0749969
 11
445.141
 21
3.075
  0
LINE
  8
0
 10
445.141
 20
3.075
 11
458.868
 21
3.075
  0
LINE
  8
0
 10
458.868
 20
3.075
 11
458.868
 21
0.0749969
  0
LINE
  8
0
 10
458.868
 20
0.0749969
 11
472.296
 21
0.0749969
  0
LINE
  8
0
 10
472.296
 20
0.0749969
 11
472.296
 21
3.075
  0
LINE
  8
0
 10
472.296
 20
3.075
 11
486.024
 21
3.075
  0
LINE
  8
0
 10
486.024
 20
3.075
 11
486.024
 21
0.0749969
  0
LINE
  8
0
 10
486.024
 20
0.0749969
 11
499.452
 21
0.0749969
  0
LINE
  8
0
 10
499.452
 20
0.0749969
 11
499.452
 21
3.075
  0
LINE
  8
0
 10
499.452
 20
3.075
 11
513.179
 21
3.075
  0
LINE
  8
0
 10
513.179
 20
3.075
 11
513.179
 21
0.0749969
  0
LINE
  8
0
 10
513.179
 20
0.0749969
 11
526.607
 21
0.0749969
  0
LINE
  8
0
 10
526.607
 20
0.0749969
 11
526.607
 21
3.075
  0
LINE
  8
0
 10
526.607
 20
3.075
 11
540.335
 21
3.075
  0
LINE
  8
0
 10
540.335
 20
3.075
 11
540.335
 21
0.0749969
  0
LINE
  8
0
 10
540.335
 20
0.0749969
 11
553.763
 21
0.0749969
  0
LINE
  8
0
 10
553.763
 20
0.0749969
 11
553.763
 21
3.075
  0
LINE
  8
0
 10
553.763
 20
3.075
 11
567.491
 21
3.075
  0
LINE
  8
0
 10
567.491
 20
3.075
 11
567.491
 21
0.0749969
  0
LINE
  8
0
 10
567.491
 20
0.0749969
 11
580.918
 21
0.0749969
  0
LINE
  8
0
 10
580.918
 20
0.0749969
 11
580.918
 21
3.075
  0
LINE
  8
0
 10
580.918
 20
3.075
 11
594.646
 21
3.075
  0
LINE
  8
0
 10
594.646
 20
3.075
 11
594.646
 21
0.0749969
  0
LINE
  8
0
 10
594.646
 20
0.0749969
 11
608.074
 21
0.0749969
  0
LINE
  8
0
 10
608.074
 20
0.0749969
 11
608.074
 21
3.075
  0
LINE
  8
0
 10
608.074
 20
3.075
 11
621.802
 21
3.075
  0
LINE
  8
0
 10
621.802
 20
3.075
 11
621.802
 21
0.0749969
  0
LINE
  8
0
 10
621.802
 20
0.0749969
 11
635.229
 21
0.0749969
  0
LINE
  8
0
 10
635.229
 20
0.0749969
 11
635.229
 21
3.075
  0
LINE
  8
0
 10
635.229
 20
3.075
 11
648.957
 21
3.075
  0
LINE
  8
0
 10
648.957
 20
3.075
 11
648.957
 21
0.0749969
  0
LINE
  8
0
 10
648.957
 20
0.0749969
 11
662.385
 21
0.0749969
  0
LINE
  8
0
 10
662.385
 20
0.0749969
 11
662.385
 21
3.075
  0
LINE
  8
0
 10
662.385
 20
3.075
 11
676.113
 21
3.075
  0
LINE
  8
0
 10
676.113
 20
3.075
 11
676.113
 21
0.0749969
  0
LINE
  8
0
 10
676.113
 20
0.0749969
 11
689.541
 21
0.0749969
  0
LINE
  8
0
 10
689.541
 20
0.0749969
 11
689.541
 21
3.075
  0
LINE
  8
0
 10
689.541
 20
3.075
 11
703.268
 21
3.075
  0
LINE
  8
0
 10
703.268
 20
3.075
 11
703.268
 21
0.0749969
  0
LINE
  8
0
 10
703.268
 20
0.0749969
 11
716.696
 21
0.0749969
  0
LINE
  8
0
 10
716.696
 20
0.0749969
 11
716.696
 21
3.075
  0
LINE
  8
0
 10
716.696
 20
3.075
 11
730.424
 21
3.075
  0
LINE
  8
0
 10
730.424
 20
3.075
 11
730.424
 21
0.0749969
  0
LINE
  8
0
 10
730.424
 20
0.0749969
 11
743.852
 21
0.0749969
  0
LINE
  8
0
 10
743.852
 20
0.0749969
 11
743.852
 21
3.075
  0
LINE
  8
0
 10
743.852
 20
3.075
 11
757.579
 21
3.075
  0
LINE
  8
0
 10
757.579
 20
3.075
 11
757.579
 21
0.0749969
  0
LINE
  8
0
 10
757.579
 20
0.0749969
 11
771.007
 21
0.0749969
  0
LINE
  8
0
 10
771.007
 20
0.0749969
 11
771.007
 21
3.075
  0
LINE
  8
0
 10
771.007
 20
3.075
 11
784.735
 21
3.075
  0
LINE
  8
0
 10
784.735
 20
3.075
 11
784.735
 21
0.0749969
  0
LINE
  8
0
 10
784.735
 20
0.0749969
 11
800.285
 21
0.0749969
  0
LINE
  8
0
 10
800.285
 20
0.0749969
 11
800.285
 21
15.625
  0
LINE
  8
0
 10
800.285
 20
15.625
 11
797.285
 21
15.625
  0
LINE
  8
0
 10
797.285
 20
15.625
 11
797.285
 21
31.575
  0
LINE
  8
0
 10
797.285
 20
31.575
 11
800.285
 21
31.575
  0
LINE
  8
0
 10
800.285
 20
31.575
 11
800.285
 21
47.225
  0
LINE
  8
0
 10
800.285
 20
47.225
 11
797.285
 21
47.225
  0
LINE
  8
0
 10
797.285
 20
47.225
 11
797.285
 21
63.175
  0
LINE
  8
0
 10
797.285
 20
63.175
 11
800.285
 21
63.175
  0
LINE
  8
0
 10
800.285
 20
63.175
 11
800.285
 21
78.825
  0
LINE
  8
0
 10
800.285
 20
78.825
 11
797.285
 21
78.825
  0
LINE
  8
0
 10
797.285
 20
78.825
 11
797.285
 21
94.775
  0
LINE
  8
0
 10
797.285
 20
94.775
 11
800.285
 21
94.775
  0
LINE
  8
0
 10
800.285
 20
94.775
 11
800.285
 21
110.425
  0
LINE
  8
0
 10
800.285
 20
110.425
 11
797.285
 21
110.425
  0
LINE
  8
0
 10
797.285
 20
110.425
 11
797.285
 21
126.375
  0
LINE
  8
0
 10
797.285
 20
126.375
 11
800.285
 21
126.375
  0
LINE
  8
0
 10
800.285
 20
126.375
 11
800.285
 21
141.925
  0
LINE
  8
0
 10
800.285
 20
141.925
 11
784.735
 21
141.925
  0
LINE
  8
0
 10
784.735
 20
141.925
 11
784.735
 21
138.925
  0
LINE
  8
0
 10
784.735
 20
138.925
 11
771.007
 21
138.925
  0
LINE
  8
0
 10
771.007
 20
138.925
 11
771.007
 21
141.925
  0
LINE
  8
0
 10
771.007
 20
141.925
 11
757.579
 21
141.925
  0
LINE
  8
0
 10
757.579
 20
141.925
 11
757.579
 21
138.925
  0
LINE
  8
0
 10
757.579
 20
138.925
 11
743.852
 21
138.925
  0
LINE
  8
0
 10
743.852
 20
138.925
 11
743.852
 21
141.925
  0
LINE
  8
0
 10
743.852
 20
141.925
 11
730.424
 21
141.925
  0
LINE
  8
0
 10
730.424
 20
141.925
 11
730.424
 21
138.925
  0
LINE
  8
0
 10
730.424
 20
138.925
 11
716.696
 21
138.925
  0
LINE
  8
0
 10
716.696
 20
138.925
 11
716.696
 21
141.925
  0
LINE
  8
0
 10
716.696
 20
141.925
 11
703.268
 21
141.925
  0
LINE
  8
0
 10
703.268
 20
141.925
 11
703.268
 21
138.925
  0
LINE
  8
0
 10
703.268
 20
138.925
 11
689.541
 21
138.925
  0
LINE
  8
0
 10
689.541
 20
138.925
 11
689.541
 21
141.925
  0
LINE
  8
0
 10
689.541
 20
141.925
 11
676.113
 21
141.925
  0
LINE
  8
0
 10
676.113
 20
141.925
 11
676.113
 21
138.925
  0
LINE
  8
0
 10
676.113
 20
138.925
 11
662.385
 21
138.925
  0
LINE
  8
0
 10
662.385
 20
138.925
 11
662.385
 21
141.925
  0
LINE
  8
0
 10
662.385
 20
141.925
 11
648.957
 21
141.925
  0
LINE
  8
0
 10
648.957
 20
141.925
 11
648.957
 21
138.925
  0
LINE
  8
0
 10
648.957
 20
138.925
 11
635.229
 21
138.925
  0
LINE
  8
0
 10
635.229
 20
138.925
 11
635.229
 21
141.925
  0
LINE
  8
0
 10
635.229
 20
141.925
 11
621.802
 21
141.925
  0
LINE
  8
0
 10
621.802
 20
141.925
 11
621.802
 21
138.925
  0
LINE
  8
0
 10
621.802
 20
138.925
 11
608.074
 21
138.925
  0
LINE
  8
0
 10
608.074
 20
138.925
 11
608.074
 21
141.925
  0
LINE
  8
0
 10
608.074
 20
141.925
 11
594.646
 21
141.925
  0
LINE
  8
0
 10
594.646
 20
141.925
 11
594.646
 21
138.925
  0
LINE
  8
0
 10
594.646
 20
138.925
 11
580.918
 21
138.925
  0
LINE
  8
0
 10
580.918
 20
138.925
 11
580.918
 21
141.925
  0
LINE
  8
0
 10
580.918
 20
141.925
 11
567.491
 21
141.925
  0
LINE
  8
0
 10
567.491
 20
141.925
 11
567.491
 21
138.925
  0
LINE
  8
0
 10
567.491
 20
138.925
 11
553.763
 21
138.925
  0
LINE
  8
0
 10
553.763
 20
138.925
 11
553.763
 21
141.925
  0
LINE
  8
0
 10
553.763
 20
141.925
 11
540.335
 21
141.925
  0
LINE
  8
0
 10
540.335
 20
141.925
 11
540.335
 21
138.925
  0
LINE
  8
0
 10
540.335
 20
138.925
 11
526.607
 21
138.925
  0
LINE
  8
0
 10
526.607
 20
138.925
 11
526.607
 21
141.925
  0
LINE
  8
0
 10
526.607
 20
141.925
 11
513.179
 21
141.925
  0
LINE
  8
0
 10
513.179
 20
141.925
 11
513.179
 21
138.925
  0
LINE
  8
0
 10
513.179
 20
138.925
 11
499.452
 21
138.925
  0
LINE
  8
0
 10
499.452
 20
138.925
 11
499.452
 21
141.925
  0
LINE
  8
0
 10
499.452
 20
141.925
 11
486.024
 21
141.925
  0
LINE
  8
0
 10
486.024
 20
141.925
 11
486.024
 21
138.925
  0
LINE
  8
0
 10
486.024
 20
138.925
 11
472.296
 21
138.925
  0
LINE
  8
0
 10
472.296
 20
138.925
 11
472.296
 21
141.925
  0
LINE
  8
0
 10
472.296
 20
141.925
 11
458.868
 21
141.925
  0
LINE
  8
0
 10
458.868
 20
141.925
 11
458.868
 21
138.925
  0
LINE
  8
0
 10
458.868
 20
138.925
 11
445.141
 21
138.925
  0
LINE
  8
0
 10
445.141
 20
138.925
 11
445.141
 21
141.925
  0
LINE
  8
0
 10
445.141
 20
141.925
 11
431.713
 21
141.925
  0
LINE
  8
0
 10
431.713
 20
141.925
 11
431.713
 21
138.925
  0
LINE
  8
0
 10
431.713
 20
138.925
 11
417.985
 21
138.925
  0
LINE
  8
0
 10
417.985
 20
138.925
 11
417.985
 21
141.925
  0
LINE
  8
0
 10
417.985
 20
141.925
 11
402.435
 21
141.925
  0
LINE
  8
0
 10
402.435
 20
141.925
 11
402.435
 21
126.375
  0
LINE
  8
0
 10
402.435
 20
126.375
 11
405.435
 21
126.375
  0
LINE
  8
0
 10
405.435
 20
126.375
 11
405.435
 21
110.425
  0
LINE
  8
0
 10
405.435
 20
110.425
 11
402.435
 21
110.425
  0
LINE
  8
0
 10
402.435
 20
110.425
 11
402.435
 21
94.775
  0
LINE
  8
0
 10
402.435
 20
94.775
 11
405.435
 21
94.775
  0
LINE
  8
0
 10
405.435
 20
94.775
 11
405.435
 21
78.825
  0
LINE
  8
0
 10
405.435
 20
78.825
 11
402.435
 21
78.825
  0
LINE
  8
0
 10
402.435
 20
78.825
 11
402.435
 21
63.175
  0
LINE
  8
0
 10
402.435
 20
63.175
 11
405.435
 21
63.175
  0
LINE
  8
0
 10
405.435
 20
63.175
 11
405.435
 21
47.225
  0
LINE
  8
0
 10
405.435
 20
47.225
 11
402.435
 21
47.225
  0
LINE
  8
0
 10
402.435
 20
47.225
 11
402.435
 21
31.575
  0
LINE
  8
0
 10
402.435
 20
31.575
 11
405.435
 21
31.575
  0
LINE
  8
0
 10
405.435
 20
31.575
 11
405.435
 21
15.625
  0
LINE
  8
0
 10
405.435
 20
15.625
 11
402.435
 21
15.625
  0
LINE
  8
0
 10
402.435
 20
15.625
 11
402.435
 21
0.0749969
  0
LINE
  8
0
 10
402.435
 20
0.0749969
 11
417.985
 21
0.0749969
  0
LINE
  8
0
 10
417.985
 20
0.0749969
 11
417.985
 21
3.075
  0
LINE
  8
0
 10
461.985
 20
90.925
 11
461.985
 21
111.075
  0
LINE
  8
0
 10
461.985
 20
111.075
 11
740.735
 21
111.075
  0
LINE
  8
0
 10
740.735
 20
111.075
 11
740.735
 21
90.925
  0
LINE
  8
0
 10
740.735
 20
90.925
 11
461.985
 21
90.925
  0
LINE
  8
0
 10
448.458
 20
35.438
 11
444.822
 21
36.9441
  0
LINE
  8
0
 10
444.822
 20
36.9441
 11
441.7
 21
39.3399
  0
LINE
  8
0
 10
441.7
 20
39.3399
 11
439.304
 21
42.4622
  0
LINE
  8
0
 10
439.304
 20
42.4622
 11
437.798
 21
46.0981
  0
LINE
  8
0
 10
437.798
 20
46.0981
 11
437.284
 21
50
  0
LINE
  8
0
 10
437.284
 20
50
 11
437.798
 21
53.9019
  0
LINE
  8
0
 10
437.798
 20
53.9019
 11
439.304
 21
57.5378
  0
LINE
  8
0
 10
439.304
 20
57.5378
 11
441.7
 21
60.6601
  0
LINE
  8
0
 10
441.7
 20
60.6601
 11
444.822
 21
63.0559
  0
LINE
  8
0
 10
444.822
 20
63.0559
 11
448.458
 21
64.562
  0
LINE
  8
0
 10
448.458
 20
64.562
 11
452.36
 21
65.0757
  0
LINE
  8
0
 10
452.36
 20
65.0757
 11
456.262
 21
64.562
  0
LINE
  8
0
 10
456.262
 20
64.562
 11
459.898
 21
63.0559
  0
LINE
  8
0
 10
459.898
 20
63.0559
 11
463.02
 21
60.6601
  0
LINE
  8
0
 10
463.02
 20
60.6601
 11
465.416
 21
57.5378
  0
LINE
  8
0
 10
465.416
 20
57.5378
 11
466.922
 21
53.9019
  0
LINE
  8
0
 10
466.922
 20
53.9019
 11
467.436
 21
50
  0
LINE
  8
0
 10
467.436
 20
50
 11
466.922
 21
46.0981
  0
LINE
  8
0
 10
466.922
 20
46.0981
 11
465.416
 21
42.4622
  0
LINE
  8
0
 10
465.416
 20
42.4622
 11
463.02
 21
39.3399
  0
LINE
  8
0
 10
463.02
 20
39.3399
 11
459.898
 21
36.9441
  0
LINE
  8
0
 10
459.898
 20
36.9441
 11
456.262
 21
35.438
  0
LINE
  8
0
 10
456.262
 20
35.438
 11
452.36
 21
34.9243
  0
LINE
  8
0
 10
452.36
 20
34.9243
 11
448.458
 21
35.438
  0
LINE
  8
0
 10
746.458
 20
35.438
 11
742.822
 21
36.9441
  0
LINE
  8
0
 10
742.822
 20
36.9441
 11
739.7
 21
39.3399
  0
LINE
  8
0
 10
739.7
 20
39.3399
 11
737.304
 21
42.4622
  0
LINE
  8
0
 10
737.304
 20
42.4622
 11
735.798
 21
46.0981
  0
LINE
  8
0
 10
735.798
 20
46.0981
 11
735.284
 21
50
  0
LINE
  8
0
 10
735.284
 20
50
 11
735.798
 21
53.9019
  0
LINE
  8
0
 10
735.798
 20
53.9019
 11
737.304
 21
57.5378
  0
LINE
  8
0
 10
737.304
 20
57.5378
 11
739.7
 21
60.6601
  0
LINE
  8
0
 10
739.7
 20
60.6601
 11
742.822
 21
63.0559
  0
LINE
  8
0
 10
742.822
 20
63.0559
 11
746.458
 21
64.562
  0
LINE
  8
0
 10
746.458
 20
64.562
 11
750.36
 21
65.0757
  0
LINE
  8
0
 10
750.36
 20
65.0757
 11
754.262
 21
64.562
  0
LINE
  8
0
 10
754.262
 20
64.562
 11
757.898
 21
63.0559
  0
LINE
  8
0
 10
757.898
 20
63.0559
 11
761.02
 21
60.6601
  0
LINE
  8
0
 10
761.02
 20
60.6601
 11
763.416
 21
57.5378
  0
LINE
  8
0
 10
763.416
 20
57.5378
 11
764.922
 21
53.9019
  0
LINE
  8
0
 10
764.922
 20
53.9019
 11
765.436
 21
50
  0
LINE
  8
0
 10
765.436
 20
50
 11
764.922
 21
46.0981
  0
LINE
  8
0
 10
764.922
 20
46.0981
 11
763.416
 21
42.4622
  0
LINE
  8
0
 10
763.416
 20
42.4622
 11
761.02
 21
39.3399
  0
LINE
  8
0
 10
761.02
 20
39.3399
 11
757.898
 21
36.9441
  0
LINE
  8
0
 10
757.898
 20
36.9441
 11
754.262
 21
35.438
  0
LINE
  8
0
 10
754.262
 20
35.438
 11
750.36
 21
34.9243
  0
LINE
  8
0
 10
750.36
 20
34.9243
 11
746.458
 21
35.438
  0
LINE
  8
0
 10
15.625
 20
3.075
 11
29.3528
 21
3.075
  0
LINE
  8
0
 10
29.3528
 20
3.075
 11
29.3528
 21
0.0749969
  0
LINE
  8
0
 10
29.3528
 20
0.0749969
 11
42.7805
 21
0.0749969
  0
LINE
  8
0
 10
42.7805
 20
0.0749969
 11
42.7805
 21
3.075
  0
LINE
  8
0
 10
42.7805
 20
3.075
 11
56.5083
 21
3.075
  0
LINE
  8
0
 10
56.5083
 20
3.075
 11
56.5083
 21
0.0749969
  0
LINE
  8
0
 10
56.5083
 20
0.0749969
 11
69.9361
 21
0.0749969
  0
LINE
  8
0
 10
69.9361
 20
0.0749969
 11
69.9361
 21
3.075
  0
LINE
  8
0
 10
69.9361
 20
3.075
 11
83.6639
 21
3.075
  0
LINE
  8
0
 10
83.6639
 20
3.075
 11
83.6639
 21
0.0749969
  0
LINE
  8
0
 10
83.6639
 20
0.0749969
 11
97.0917
 21
0.0749969
  0
LINE
  8
0
 10
97.0917
 20
0.0749969
 11
97.0917
 21
3.075
  0
LINE
  8
0
 10
97.0917
 20
3.075
 11
110.819
 21
3.075
  0
LINE
  8
0
 10
110.819
 20
3.075
 11
110.819
 21
0.0749969
  0
LINE
  8
0
 10
110.819
 20
0.0749969
 11
124.247
 21
0.0749969
  0
LINE
  8
0
 10
124.247
 20
0.0749969
 11
124.247
 21
3.075
  0
LINE
  8
0
 10
124.247
 20
3.075
 11
137.975
 21
3.075
  0
LINE
  8
0
 10
137.975
 20
3.075
 11
137.975
 21
0.0749969
  0
LINE
  8
0
 10
137.975
 20
0.0749969
 11
151.403
 21
0.0749969
  0
LINE
  8
0
 10
151.403
 20
0.0749969
 11
151.403
 21
3.075
  0
LINE
  8
0
 10
151.403
 20
3.075
 11
165.131
 21
3.075
  0
LINE
  8
0
 10
165.131
 20
3.075
 11
165.131
 21
0.0749969
  0
LINE
  8
0
 10
165.131
 20
0.0749969
 11
178.558
 21
0.0749969
  0
LINE
  8
0
 10
178.558
 20
0.0749969
 11
178.558
 21
3.075
  0
LINE
  8
0
 10
178.558
 20
3.075
 11
192.286
 21
3.075
  0
LINE
  8
0
 10
192.286
 20
3.075
 11
192.286
 21
0.0749969
  0
LINE
  8
0
 10
192.286
 20
0.0749969
 11
205.714
 21
0.0749969
  0
LINE
  8
0
 10
205.714
 20
0.0749969
 11
205.714
 21
3.075
  0
LINE
  8
0
 10
205.714
 20
3.075
 11
219.442
 21
3.075
  0
LINE
  8
0
 10
219.442
 20
3.075
 11
219.442
 21
0.0749969
  0
LINE
  8
0
 10
219.442
 20
0.0749969
 11
232.869
 21
0.0749969
  0
LINE
  8
0
 10
232.869
 20
0.0749969
 11
232.869
 21
3.075
  0
LINE
  8
0
 10
232.869
 20
3.075
 11
246.597
 21
3.075
  0
LINE
  8
0
 10
246.597
 20
3.075
 11
246.597
 21
0.0749969
  0
LINE
  8
0
 10
246.597
 20
0.0749969
 11
260.025
 21
0.0749969
  0
LINE
  8
0
 10
260.025
 20
0.0749969
 11
260.025
 21
3.075
  0
LINE
  8
0
 10
260.025
 20
3.075
 11
273.753
 21
3.075
  0
LINE
  8
0
 10
273.753
 20
3.075
 11
273.753
 21
0.0749969
  0
LINE
  8
0
 10
273.753
 20
0.0749969
 11
287.181
 21
0.0749969
  0
LINE
  8
0
 10
287.181
 20
0.0749969
 11
287.181
 21
3.075
  0
LINE
  8
0
 10
287.181
 20
3.075
 11
300.908
 21
3.075
  0
LINE
  8
0
 10
300.908
 20
3.075
 11
300.908
 21
0.0749969
  0
LINE
  8
0
 10
300.908
 20
0.0749969
 11
314.336
 21
0.0749969
  0
LINE
  8
0
 10
314.336
 20
0.0749969
 11
314.336
 21
3.075
  0
LINE
  8
0
 10
314.336
 20
3.075
 11
328.064
 21
3.075
  0
LINE
  8
0
 10
328.064
 20
3.075
 11
328.064
 21
0.0749969
  0
LINE
  8
0
 10
328.064
 20
0.0749969
 11
341.492
 21
0.0749969
  0
LINE
  8
0
 10
341.492
 20
0.0749969
 11
341.492
 21
3.075
  0
LINE
  8
0
 10
341.492
 20
3.075
 11
355.219
 21
3.075
  0
LINE
  8
0
 10
355.219
 20
3.075
 11
355.219
 21
0.0749969
  0
LINE
  8
0
 10
355.219
 20
0.0749969
 11
368.647
 21
0.0749969
  0
LINE
  8
0
 10
368.647
 20
0.0749969
 11
368.647
 21
3.075
  0
LINE
  8
0
 10
368.647
 20
3.075
 11
382.375
 21
3.075
  0
LINE
  8
0
 10
382.375
 20
3.075
 11
382.375
 21
0.0749969
  0
LINE
  8
0
 10
382.375
 20
0.0749969
 11
397.925
 21
0.0749969
  0
LINE
  8
0
 10
397.925
 20
0.0749969
 11
397.925
 21
15.625
  0
LINE
  8
0
 10
397.925
 20
15.625
 11
394.925
 21
15.625
  0
LINE
  8
0
 10
394.925
 20
15.625
 11
394.925
 21
31.575
  0
LINE
  8
0
 10
394.925
 20
31.575
 11
397.925
 21
31.575
  0
LINE
  8
0
 10
397.925
 20
31.575
 11
397.925
 21
47.225
  0
LINE
  8
0
 10
397.925
 20
47.225
 11
394.925
 21
47.225
  0
LINE
  8
0
 10
394.925
 20
47.225
 11
394.925
 21
63.175
  0
LINE
  8
0
 10
394.925
 20
63.175
 11
397.925
 21
63.175
  0
LINE
  8
0
 10
397.925
 20
63.175
 11
397.925
 21
78.825
  0
LINE
  8
0
 10
397.925
 20
78.825
 11
394.925
 21
78.825
  0
LINE
  8
0
 10
394.925
 20
78.825
 11
394.925
 21
94.775
  0
LINE
  8
0
 10
394.925
 20
94.775
 11
397.925
 21
94.775
  0
LINE
  8
0
 10
397.925
 20
94.775
 11
397.925
 21
110.425
  0
LINE
  8
0
 10
397.925
 20
110.425
 11
394.925
 21
110.425
  0
LINE
  8
0
 10
394.925
 20
110.425
 11
394.925
 21
126.375
  0
LINE
  8
0
 10
394.925
 20
126.375
 11
397.925
 21
126.375
  0
LINE
  8
0
 10
397.925
 20
126.375
 11
397.925
 21
141.925
  0
LINE
  8
0
 10
397.925
 20
141.925
 11
382.375
 21
141.925
  0
LINE
  8
0
 10
382.375
 20
141.925
 11
382.375
 21
138.925
  0
LINE
  8
0
 10
382.375
 20
138.925
 11
368.647
 21
138.925
  0
LINE
  8
0
 10
368.647
 20
138.925
 11
368.647
 21
141.925
  0
LINE
  8
0
 10
368.647
 20
141.925
 11
355.219
 21
141.925
  0
LINE
  8
0
 10
355.219
 20
141.925
 11
355.219
 21
138.925
  0
LINE
  8
0
 10
355.219
 20
138.925
 11
341.492
 21
138.925
  0
LINE
  8
0
 10
341.492
 20
138.925
 11
341.492
 21
141.925
  0
LINE
  8
0
 10
341.492
 20
141.925
 11
328.064
 21
141.925
  0
LINE
  8
0
 10
328.064
 20
141.925
 11
328.064
 21
138.925
  0
LINE
  8
0
 10
328.064
 20
138.925
 11
314.336
 21
138.925
  0
LINE
  8
0
 10
314.336
 20
138.925
 11
314.336
 21
141.925
  0
LINE
  8
0
 10
314.336
 20
141.925
 11
300.908
 21
141.925
  0
LINE
  8
0
 10
300.908
 20
141.925
 11
300.908
 21
138.925
  0
LINE
  8
0
 10
300.908
 20
138.925
 11
287.181
 21
138.925
  0
LINE
  8
0
 10
287.181
 20
138.925
 11
287.181
 21
141.925
  0
LINE
  8
0
 10
287.181
 20
141.925
 11
273.753
 21
141.925
  0
LINE
  8
0
 10
273.753
 20
141.925
 11
273.753
 21
138.925
  0
LINE
  8
0
 10
273.753
 20
138.925
 11
260.025
 21
138.925
  0
LINE
  8
0
 10
260.025
 20
138.925
 11
260.025
 21
141.925
  0
LINE
  8
0
 10
260.025
 20
141.925
 11
246.597
 21
141.925
  0
LINE
  8
0
 10
246.597
 20
141.925
 11
246.597
 21
138.925
  0
LINE
  8
0
 10
246.597
 20
138.925
 11
232.869
 21
138.925
  0
LINE
  8
0
 10
232.869
 20
138.925
 11
232.869
 21
141.925
  0
LINE
  8
0
 10
232.869
 20
141.925
 11
219.442
 21
141.925
  0
LINE
  8
0
 10
219.442
 20
141.925
 11
219.442
 21
138.925
  0
LINE
  8
0
 10
219.442
 20
138.925
 11
205.714
 21
138.925
  0
LINE
  8
0
 10
205.714
 20
138.925
 11
205.714
 21
141.925
  0
LINE
  8
0
 10
205.714
 20
141.925
 11
192.286
 21
141.925
  0
LINE
  8
0
 10
192.286
 20
141.925
 11
192.286
 21
138.925
  0
LINE
  8
0
 10
192.286
 20
138.925
 11
178.558
 21
138.925
  0
LINE
  8
0
 10
178.558
 20
138.925
 11
178.558
 21
141.925
  0
LINE
  8
0
 10
178.558
 20
141.925
 11
165.131
 21
141.925
  0
LINE
  8
0
 10
165.131
 20
141.925
 11
165.131
 21
138.925
  0
LINE
  8
0
 10
165.131
 20
138.925
 11
151.403
 21
138.925
  0
LINE
  8
0
 10
151.403
 20
138.925
 11
151.403
 21
141.925
  0
LINE
  8
0
 10
151.403
 20
141.925
 11
137.975
 21
141.925
  0
LINE
  8
0
 10
137.975
 20
141.925
 11
137.975
 21
138.925
  0
LINE
  8
0
 10
137.975
 20
138.925
 11
124.247
 21
138.925
  0
LINE
  8
0
 10
124.247
 20
138.925
 11
124.247
 21
141.925
  0
LINE
  8
0
 10
124.247
 20
141.925
 11
110.819
 21
141.925
  0
LINE
  8
0
 10
110.819
 20
141.925
 11
110.819
 21
138.925
  0
LINE
  8
0
 10
110.819
 20
138.925
 11
97.0917
 21
138.925
  0
LINE
  8
0
 10
97.0917
 20
138.925
 11
97.0917
 21
141.925
  0
LINE
  8
0
 10
97.0917
 20
141.925
 11
83.6639
 21
141.925
  0
LINE
  8
0
 10
83.6639
 20
141.925
 11
83.6639
 21
138.925
  0
LINE
  8
0
 10
83.6639
 20
138.925
 11
69.9361
 21
138.925
  0
LINE
  8
0
 10
69.9361
 20
138.925
 11
69.9361
 21
141.925
  0
LINE
  8
0
 10
69.9361
 20
141.925
 11
56.5083
 21
141.925
  0
LINE
  8
0
 10
56.5083
 20
141.925
 11
56.5083
 21
138.925
  0
LINE
  8
0
 10
56.5083
 20
138.925
 11
42.7806
 21
138.925
  0
LINE
  8
0
 10
42.7806
 20
138.925
 11
42.7806
 21
141.925
  0
LINE
  8
0
 10
42.7806
 20
141.925
 11
29.3528
 21
141.925
  0
LINE
  8
0
 10
29.3528
 20
141.925
 11
29.3528
 21
138.925
  0
LINE
  8
0
 10
29.3528
 20
138.925
 11
15.625
 21
138.925
  0
LINE
  8
0
 10
15.625
 20
138.925
 11
15.625
 21
141.925
  0
LINE
  8
0
 10
15.625
 20
141.925
 11
0.0749969
 21
141.925
  0
LINE
  8
0
 10
0.0749969
 20
141.925
 11
0.0749969
 21
126.375
  0
LINE
  8
0
 10
0.0749969
 20
126.375
 11
3.075
 21
126.375
  0
LINE
  8
0
 10
3.075
 20
126.375
 11
3.075
 21
110.425
  0
LINE
  8
0
 10
3.075
 20
110.425
 11
0.0749969
 21
110.425
  0
LINE
  8
0
 10
0.0749969
 20
110.425
 11
0.0749969
 21
94.775
  0
LINE
  8
0
 10
0.0749969
 20
94.775
 11
3.075
 21
94.775
  0
LINE
  8
0
 10
3.075
 20
94.775
 11
3.075
 21
78.825
  0
LINE
  8
0
 10
3.075
 20
78.825
 11
0.0749969
 21
78.825
  0
LINE
  8
0
 10
0.0749969
 20
78.825
 11
0.0749969
 21
63.175
  0
LINE
  8
0
 10
0.0749969
 20
63.175
 11
3.075
 21
63.175
  0
LINE
  8
0
 10
3.075
 20
63.175
 11
3.075
 21
47.225
  0
LINE
  8
0
 10
3.075
 20
47.225
 11
0.0749969
 21
47.225
  0
LINE
  8
0
 10
0.0749969
 20
47.225
 11
0.0749969
 21
31.575
  0
LINE
  8
0
 10
0.0749969
 20
31.575
 11
3.075
 21
31.575
  0
LINE
  8
0
 10
3.075
 20
31.575
 11
3.075
 21
15.625
  0
LINE
  8
0
 10
3.075
 20
15.625
 11
0.0749969
 21
15.625
  0
LINE
  8
0
 10
0.0749969
 20
15.625
 11
0.0749969
 21
0.0749969
  0
LINE
  8
0
 10
0.0749969
 20
0.0749969
 11
15.625
 21
0.0749969
  0
LINE
  8
0
 10
15.625
 20
0.0749969
 11
15.625
 21
3.075
  0
LINE
  8
0
 10
70.3334
 20
125.012
 11
69.7122
 21
125.269
  0
LINE
  8
0
 10
69.7122
 20
125.269
 11
69.1787
 21
125.679
  0
LINE
  8
0
 10
69.1787
 20
125.679
 11
68.7694
 21
126.212
  0
LINE
  8
0
 10
68.7694
 20
126.212
 11
68.5121
 21
126.833
  0
LINE
  8
0
 10
68.5121
 20
126.833
 11
68.4243
 21
127.5
  0
LINE
  8
0
 10
68.4243
 20
127.5
 11
68.5121
 21
128.167
  0
LINE
  8
0
 10
68.5121
 20
128.167
 11
68.7694
 21
128.788
  0
LINE
  8
0
 10
68.7694
 20
128.788
 11
69.1787
 21
129.321
  0
LINE
  8
0
 10
69.1787
 20
129.321
 11
69.7122
 21
129.731
  0
LINE
  8
0
 10
69.7122
 20
129.731
 11
70.3334
 21
129.988
  0
LINE
  8
0
 10
70.3334
 20
129.988
 11
71
 21
130.076
  0
LINE
  8
0
 10
71
 20
130.076
 11
71.6666
 21
129.988
  0
LINE
  8
0
 10
71.6666
 20
129.988
 11
72.2878
 21
129.731
  0
LINE
  8
0
 10
72.2878
 20
129.731
 11
72.8213
 21
129.321
  0
LINE
  8
0
 10
72.8213
 20
129.321
 11
73.2306
 21
128.788
  0
LINE
  8
0
 10
73.2306
 20
128.788
 11
73.4879
 21
128.167
  0
LINE
  8
0
 10
73.4879
 20
128.167
 11
73.5757
 21
127.5
  0
LINE
  8
0
 10
73.5757
 20
127.5
 11
73.4879
 21
126.833
  0
LINE
  8
0
 10
73.4879
 20
126.833
 11
73.2306
 21
126.212
  0
LINE
  8
0
 10
73.2306
 20
126.212
 11
72.8213
 21
125.679
  0
LINE
  8
0
 10
72.8213
 20
125.679
 11
72.2878
 21
125.269
  0
LINE
  8
0
 10
72.2878
 20
125.269
 11
71.6666
 21
125.012
  0
LINE
  8
0
 10
71.6666
 20
125.012
 11
71
 21
124.924
  0
LINE
  8
0
 10
71
 20
124.924
 11
70.3334
 21
125.012
  0
LINE
  8
0
 10
326.333
 20
125.012
 11
325.712
 21
125.269
  0
LINE
  8
0
 10
325.712
 20
125.269
 11
325.179
 21
125.679
  0
LINE
  8
0
 10
325.179
 20
125.679
 11
324.769
 21
126.212
  0
LINE
  8
0
 10
324.769
 20
126.212
 11
324.512
 21
126.833
  0
LINE
  8
0
 10
324.512
 20
126.833
 11
324.424
 21
127.5
  0
LINE
  8
0
 10
324.424
 20
127.5
 11
324.512
 21
128.167
  0
LINE
  8
0
 10
324.512
 20
128.167
 11
324.769
 21
128.788
  0
LINE
  8
0
 10
324.769
 20
128.788
 11
325.179
 21
129.321
  0
LINE
  8
0
 10
325.179
 20
129.321
 11
325.712
 21
129.731
  0
LINE
  8
0
 10
325.712
 20
129.731
 11
326.333
 21
129.988
  0
LINE
  8
0
 10
326.333
 20
129.988
 11
327
 21
130.076
  0
LINE
  8
0
 10
327
 20
130.076
 11
327.667
 21
129.988
  0
LINE
  8
0
 10
327.667
 20
129.988
 11
328.288
 21
129.731
  0
LINE
  8
0
 10
328.288
 20
129.731
 11
328.821
 21
129.321
  0
LINE
  8
0
 10
328.821
 20
129.321
 11
329.231
 21
128.788
  0
LINE
  8
0
 10
329.231
 20
128.788
 11
329.488
 21
128.167
  0
LINE
  8
0
 10
329.488
 20
128.167
 11
329.576
 21
127.5
  0
LINE
  8
0
 10
329.576
 20
127.5
 11
329.488
 21
126.833
  0
LINE
  8
0
 10
329.488
 20
126.833
 11
329.231
 21
126.212
  0
LINE
  8
0
 10
329.231
 20
126.212
 11
328.821
 21
125.679
  0
LINE
  8
0
 10
328.821
 20
125.679
 11
328.288
 21
125.269
  0
LINE
  8
0
 10
328.288
 20
125.269
 11
327.667
 21
125.012
  0
LINE
  8
0
 10
327.667
 20
125.012
 11
327
 21
124.924
  0
LINE
  8
0
 10
327
 20
124.924
 11
326.333
 21
125.012
  0
LINE
  8
0
 10
198.333
 20
125.012
 11
197.712
 21
125.269
  0
LINE
  8
0
 10
197.712
 20
125.269
 11
197.179
 21
125.679
  0
LINE
  8
0
 10
197.179
 20
125.679
 11
196.769
 21
126.212
  0
LINE
  8
0
 10
196.769
 20
126.212
 11
196.512
 21
126.833
  0
LINE
  8
0
 10
196.512
 20
126.833
 11
196.424
 21
127.5
  0
LINE
  8
0
 10
196.424
 20
127.5
 11
196.512
 21
128.167
  0
LINE
  8
0
 10
196.512
 20
128.167
 11
196.769
 21
128.788
  0
LINE
  8
0
 10
196.769
 20
128.788
 11
197.179
 21
129.321
  0
LINE
  8
0
 10
197.179
 20
129.321
 11
197.712
 21
129.731
  0
LINE
  8
0
 10
197.712
 20
129.731
 11
198.333
 21
129.988
  0
LINE
  8
0
 10
198.333
 20
129.988
 11
199
 21
130.076
  0
LINE
  8
0
 10
199
 20
130.076
 11
199.667
 21
129.988
  0
LINE
  8
0
 10
199.667
 20
129.988
 11
200.288
 21
129.731
  0
LINE
  8
0
 10
200.288
 20
129.731
 11
200.821
 21
129.321
  0
LINE
  8
0
 10
200.821
 20
129.321
 11
201.231
 21
128.788
  0
LINE
  8
0
 10
201.231
 20
128.788
 11
201.488
 21
128.167
  0
LINE
  8
0
 10
201.488
 20
128.167
 11
201.576
 21
127.5
  0
LINE
  8
0
 10
201.576
 20
127.5
 11
201.488
 21
126.833
  0
LINE
  8
0
 10
201.488
 20
126.833
 11
201.231
 21
126.212
  0
LINE
  8
0
 10
201.231
 20
126.212
 11
200.821
 21
125.679
  0
LINE
  8
0
 10
200.821
 20
125.679
 11
200.288
 21
125.269
  0
LINE
  8
0
 10
200.288
 20
125.269
 11
199.667
 21
125.012
  0
LINE
  8
0
 10
199.667
 20
125.012
 11
199
 21
124.924
  0
LINE
  8
0
 10
199
 20
124.924
 11
198.333
 21
125.012
  0
LINE
  8
0
 10
383.333
 20
113.012
 11
382.712
 21
113.269
  0
LINE
  8
0
 10
382.712
 20
113.269
 11
382.179
 21
113.679
  0
LINE
  8
0
 10
382.179
 20
113.679
 11
381.769
 21
114.212
  0
LINE
  8
0
 10
381.769
 20
114.212
 11
381.512
 21
114.833
  0
LINE
  8
0
 10
381.512
 20
114.833
 11
381.424
 21
115.5
  0
LINE
  8
0
 10
381.424
 20
115.5
 11
381.512
 21
116.167
  0
LINE
  8
0
 10
381.512
 20
116.167
 11
381.769
 21
116.788
  0
LINE
  8
0
 10
381.769
 20
116.788
 11
382.179
 21
117.321
  0
LINE
  8
0
 10
382.179
 20
117.321
 11
382.712
 21
117.731
  0
LINE
  8
0
 10
382.712
 20
117.731
 11
383.333
 21
117.988
  0
LINE
  8
0
 10
383.333
 20
117.988
 11
384
 21
118.076
  0
LINE
  8
0
 10
384
 20
118.076
 11
384.667
 21
117.988
  0
LINE
  8
0
 10
384.667
 20
117.988
 11
385.288
 21
117.731
  0
LINE
  8
0
 10
385.288
 20
117.731
 11
385.821
 21
117.321
  0
LINE
  8
0
 10
385.821
 20
117.321
 11
386.231
 21
116.788
  0
LINE
  8
0
 10
386.231
 20
116.788
 11
386.488
 21
116.167
  0
LINE
  8
0
 10
386.488
 20
116.167
 11
386.576
 21
115.5
  0
LINE
  8
0
 10
386.576
 20
115.5
 11
386.488
 21
114.833
  0
LINE
  8
0
 10
386.488
 20
114.833
 11
386.231
 21
114.212
  0
LINE
  8
0
 10
386.231
 20
114.212
 11
385.821
 21
113.679
  0
LINE
  8
0
 10
385.821
 20
113.679
 11
385.288
 21
113.269
  0
LINE
  8
0
 10
385.288
 20
113.269
 11
384.667
 21
113.012
  0
LINE
  8
0
 10
384.667
 20
113.012
 11
384
 21
112.924
  0
LINE
  8
0
 10
384
 20
112.924
 11
383.333
 21
113.012
  0
LINE
  8
0
 10
127.333
 20
113.012
 11
126.712
 21
113.269
  0
LINE
  8
0
 10
126.712
 20
113.269
 11
126.179
 21
113.679
  0
LINE
  8
0
 10
126.179
 20
113.679
 11
125.769
 21
114.212
  0
LINE
  8
0
 10
125.769
 20
114.212
 11
125.512
 21
114.833
  0
LINE
  8
0
 10
125.512
 20
114.833
 11
125.424
 21
115.5
  0
LINE
  8
0
 10
125.424
 20
115.5
 11
125.512
 21
116.167
  0
LINE
  8
0
 10
125.512
 20
116.167
 11
125.769
 21
116.788
  0
LINE
  8
0
 10
125.769
 20
116.788
 11
126.179
 21
117.321
  0
LINE
  8
0
 10
126.179
 20
117.321
 11
126.712
 21
117.731
  0
LINE
  8
0
 10
126.712
 20
117.731
 11
127.333
 21
117.988
  0
LINE
  8
0
 10
127.333
 20
117.988
 11
128
 21
118.076
  0
LINE
  8
0
 10
128
 20
118.076
 11
128.667
 21
117.988
  0
LINE
  8
0
 10
128.667
 20
117.988
 11
129.288
 21
117.731
  0
LINE
  8
0
 10
129.288
 20
117.731
 11
129.821
 21
117.321
  0
LINE
  8
0
 10
129.821
 20
117.321
 11
130.231
 21
116.788
  0
LINE
  8
0
 10
130.231
 20
116.788
 11
130.488
 21
116.167
  0
LINE
  8
0
 10
130.488
 20
116.167
 11
130.576
 21
115.5
  0
LINE
  8
0
 10
130.576
 20
115.5
 11
130.488
 21
114.833
  0
LINE
  8
0
 10
130.488
 20
114.833
 11
130.231
 21
114.212
  0
LINE
  8
0
 10
130.231
 20
114.212
 11
129.821
 21
113.679
  0
LINE
  8
0
 10
129.821
 20
113.679
 11
129.288
 21
113.269
  0
LINE
  8
0
 10
129.288
 20
113.269
 11
128.667
 21
113.012
  0
LINE
  8
0
 10
128.667
 20
113.012
 11
128
 21
112.924
  0
LINE
  8
0
 10
128
 20
112.924
 11
127.333
 21
113.012
  0
LINE
  8
0
 10
141.333
 20
113.012
 11
140.712
 21
113.269
  0
LINE
  8
0
 10
140.712
 20
113.269
 11
140.179
 21
113.679
  0
LINE
  8
0
 10
140.179
 20
113.679
 11
139.769
 21
114.212
  0
LINE
  8
0
 10
139.769
 20
114.212
 11
139.512
 21
114.833
  0
LINE
  8
0
 10
139.512
 20
114.833
 11
139.424
 21
115.5
  0
LINE
  8
0
 10
139.424
 20
115.5
 11
139.512
 21
116.167
  0
LINE
  8
0
 10
139.512
 20
116.167
 11
139.769
 21
116.788
  0
LINE
  8
0
 10
139.769
 20
116.788
 11
140.179
 21
117.321
  0
LINE
  8
0
 10
140.179
 20
117.321
 11
140.712
 21
117.731
  0
LINE
  8
0
 10
140.712
 20
117.731
 11
141.333
 21
117.988
  0
LINE
  8
0
 10
141.333
 20
117.988
 11
142
 21
118.076
  0
LINE
  8
0
 10
142
 20
118.076
 11
142.667
 21
117.988
  0
LINE
  8
0
 10
142.667
 20
117.988
 11
143.288
 21
117.731
  0
LINE
  8
0
 10
143.288
 20
117.731
 11
143.821
 21
117.321
  0
LINE
  8
0
 10
143.821
 20
117.321
 11
144.231
 21
116.788
  0
LINE
  8
0
 10
144.231
 20
116.788
 11
144.488
 21
116.167
  0
LINE
  8
0
 10
144.488
 20
116.167
 11
144.576
 21
115.5
  0
LINE
  8
0
 10
144.576
 20
115.5
 11
144.488
 21
114.833
  0
LINE
  8
0
 10
144.488
 20
114.833
 11
144.231
 21
114.212
  0
LINE
  8
0
 10
144.231
 20
114.212
 11
143.821
 21
113.679
  0
LINE
  8
0
 10
143.821
 20
113.679
 11
143.288
 21
113.269
  0
LINE
  8
0
 10
143.288
 20
113.269
 11
142.667
 21
113.012
  0
LINE
  8
0
 10
142.667
 20
113.012
 11
142
 21
112.924
  0
LINE
  8
0
 10
142
 20
112.924
 11
141.333
 21
113.012
  0
LINE
  8
0
 10
255.333
 20
113.012
 11
254.712
 21
113.269
  0
LINE
  8
0
 10
254.712
 20
113.269
 11
254.179
 21
113.679
  0
LINE
  8
0
 10
254.179
 20
113.679
 11
253.769
 21
114.212
  0
LINE
  8
0
 10
253.769
 20
114.212
 11
253.512
 21
114.833
  0
LINE
  8
0
 10
253.512
 20
114.833
 11
253.424
 21
115.5
  0
LINE
  8
0
 10
253.424
 20
115.5
 11
253.512
 21
116.167
  0
LINE
  8
0
 10
253.512
 20
116.167
 11
253.769
 21
116.788
  0
LINE
  8
0
 10
253.769
 20
116.788
 11
254.179
 21
117.321
  0
LINE
  8
0
 10
254.179
 20
117.321
 11
254.712
 21
117.731
  0
LINE
  8
0
 10
254.712
 20
117.731
 11
255.333
 21
117.988
  0
LINE
  8
0
 10
255.333
 20
117.988
 11
256
 21
118.076
  0
LINE
  8
0
 10
256
 20
118.076
 11
256.667
 21
117.988
  0
LINE
  8
0
 10
256.667
 20
117.988
 11
257.288
 21
117.731
  0
LINE
  8
0
 10
257.288
 20
117.731
 11
257.821
 21
117.321
  0
LINE
  8
0
 10
257.821
 20
117.321
 11
258.231
 21
116.788
  0
LINE
  8
0
 10
258.231
 20
116.788
 11
258.488
 21
116.167
  0
LINE
  8
0
 10
258.488
 20
116.167
 11
258.576
 21
115.5
  0
LINE
  8
0
 10
258.576
 20
115.5
 11
258.488
 21
114.833
  0
LINE
  8
0
 10
258.488
 20
114.833
 11
258.231
 21
114.212
  0
LINE
  8
0
 10
258.231
 20
114.212
 11
257.821
 21
113.679
  0
LINE
  8
0
 10
257.821
 20
113.679
 11
257.288
 21
113.269
  0
LINE
  8
0
 10
257.288
 20
113.269
 11
256.667
 21
113.012
  0
LINE
  8
0
 10
256.667
 20
113.012
 11
256
 21
112.924
  0
LINE
  8
0
 10
256
 20
112.924
 11
255.333
 21
113.012
  0
LINE
  8
0
 10
269.333
 20
113.012
 11
268.712
 21
113.269
  0
LINE
  8
0
 10
268.712
 20
113.269
 11
268.179
 21
113.679
  0
LINE
  8
0
 10
268.179
 20
113.679
 11
267.769
 21
114.212
  0
LINE
  8
0
 10
267.769
 20
114.212
 11
267.512
 21
114.833
  0
LINE
  8
0
 10
267.512
 20
114.833
 11
267.424
 21
115.5
  0
LINE
  8
0
 10
267.424
 20
115.5
 11
267.512
 21
116.167
  0
LINE
  8
0
 10
267.512
 20
116.167
 11
267.769
 21
116.788
  0
LINE
  8
0
 10
267.769
 20
116.788
 11
268.179
 21
117.321
  0
LINE
  8
0
 10
268.179
 20
117.321
 11
268.712
 21
117.731
  0
LINE
  8
0
 10
268.712
 20
117.731
 11
269.333
 21
117.988
  0
LINE
  8
0
 10
269.333
 20
117.988
 11
270
 21
118.076
  0
LINE
  8
0
 10
270
 20
118.076
 11
270.667
 21
117.988
  0
LINE
  8
0
 10
270.667
 20
117.988
 11
271.288
 21
117.731
  0
LINE
  8
0
 10
271.288
 20
117.731
 11
271.821
 21
117.321
  0
LINE
  8
0
 10
271.821
 20
117.321
 11
272.231
 21
116.788
  0
LINE
  8
0
 10
272.231
 20
116.788
 11
272.488
 21
116.167
  0
LINE
  8
0
 10
272.488
 20
116.167
 11
272.576
 21
115.5
  0
LINE
  8
0
 10
272.576
 20
115.5
 11
272.488
 21
114.833
  0
LINE
  8
0
 10
272.488
 20
114.833
 11
272.231
 21
114.212
  0
LINE
  8
0
 10
272.231
 20
114.212
 11
271.821
 21
113.679
  0
LINE
  8
0
 10
271.821
 20
113.679
 11
271.288
 21
113.269
  0
LINE
  8
0
 10
271.288
 20
113.269
 11
270.667
 21
113.012
  0
LINE
  8
0
 10
270.667
 20
113.012
 11
270
 21
112.924
  0
LINE
  8
0
 10
270
 20
112.924
 11
269.333
 21
113.012
  0
LINE
  8
0
 10
13.3334
 20
113.012
 11
12.7122
 21
113.269
  0
LINE
  8
0
 10
12.7122
 20
113.269
 11
12.1787
 21
113.679
  0
LINE
  8
0
 10
12.1787
 20
113.679
 11
11.7694
 21
114.212
  0
LINE
  8
0
 10
11.7694
 20
114.212
 11
11.5121
 21
114.833
  0
LINE
  8
0
 10
11.5121
 20
114.833
 11
11.4243
 21
115.5
  0
LINE
  8
0
 10
11.4243
 20
115.5
 11
11.5121
 21
116.167
  0
LINE
  8
0
 10
11.5121
 20
116.167
 11
11.7694
 21
116.788
  0
LINE
  8
0
 10
11.7694
 20
116.788
 11
12.1787
 21
117.321
  0
LINE
  8
0
 10
12.1787
 20
117.321
 11
12.7122
 21
117.731
  0
LINE
  8
0
 10
12.7122
 20
117.731
 11
13.3334
 21
117.988
  0
LINE
  8
0
 10
13.3334
 20
117.988
 11
14
 21
118.076
  0
LINE
  8
0
 10
14
 20
118.076
 11
14.6666
 21
117.988
  0
LINE
  8
0
 10
14.6666
 20
117.988
 11
15.2878
 21
117.731
  0
LINE
  8
0
 10
15.2878
 20
117.731
 11
15.8213
 21
117.321
  0
LINE
  8
0
 10
15.8213
 20
117.321
 11
16.2306
 21
116.788
  0
LINE
  8
0
 10
16.2306
 20
116.788
 11
16.4879
 21
116.167
  0
LINE
  8
0
 10
16.4879
 20
116.167
 11
16.5757
 21
115.5
  0
LINE
  8
0
 10
16.5757
 20
115.5
 11
16.4879
 21
114.833
  0
LINE
  8
0
 10
16.4879
 20
114.833
 11
16.2306
 21
114.212
  0
LINE
  8
0
 10
16.2306
 20
114.212
 11
15.8213
 21
113.679
  0
LINE
  8
0
 10
15.8213
 20
113.679
 11
15.2878
 21
113.269
  0
LINE
  8
0
 10
15.2878
 20
113.269
 11
14.6666
 21
113.012
  0
LINE
  8
0
 10
14.6666
 20
113.012
 11
14
 21
112.924
  0
LINE
  8
0
 10
14
 20
112.924
 11
13.3334
 21
113.012
  0
LINE
  8
0
 10
281.925
 20
45.925
 11
281.925
 21
96.075
  0
LINE
  8
0
 10
281.925
 20
96.075
 11
372.075
 21
96.075
  0
LINE
  8
0
 10
372.075
 20
96.075
 11
372.075
 21
45.925
  0
LINE
  8
0
 10
372.075
 20
45.925
 11
281.925
 21
45.925
  0
LINE
  8
0
 10
153.925
 20
45.925
 11
153.925
 21
96.075
  0
LINE
  8
0
 10
153.925
 20
96.075
 11
244.075
 21
96.075
  0
LINE
  8
0
 10
244.075
 20
96.075
 11
244.075
 21
45.925
  0
LINE
  8
0
 10
244.075
 20
45.925
 11
153.925
 21
45.925
  0
LINE
  8
0
 10
25.925
 20
45.925
 11
25.925
 21
96.075
  0
LINE
  8
0
 10
25.925
 20
96.075
 11
116.075
 21
96.075
  0
LINE
  8
0
 10
116.075
 20
96.075
 11
116.075
 21
45.925
  0
LINE
  8
0
 10
116.075
 20
45.925
 11
25.925
 21
45.925
  0
LINE
  8
0
 10
383.333
 20
24.0121
 11
382.712
 21
24.2694
  0
LINE
  8
0
 10
382.712
 20
24.2694
 11
382.179
 21
24.6787
  0
LINE
  8
0
 10
382.179
 20
24.6787
 11
381.769
 21
25.2122
  0
LINE
  8
0
 10
381.769
 20
25.2122
 11
381.512
 21
25.8334
  0
LINE
  8
0
 10
381.512
 20
25.8334
 11
381.424
 21
26.5
  0
LINE
  8
0
 10
381.424
 20
26.5
 11
381.512
 21
27.1666
  0
LINE
  8
0
 10
381.512
 20
27.1666
 11
381.769
 21
27.7878
  0
LINE
  8
0
 10
381.769
 20
27.7878
 11
382.179
 21
28.3213
  0
LINE
  8
0
 10
382.179
 20
28.3213
 11
382.712
 21
28.7306
  0
LINE
  8
0
 10
382.712
 20
28.7306
 11
383.333
 21
28.9879
  0
LINE
  8
0
 10
383.333
 20
28.9879
 11
384
 21
29.0757
  0
LINE
  8
0
 10
384
 20
29.0757
 11
384.667
 21
28.9879
  0
LINE
  8
0
 10
384.667
 20
28.9879
 11
385.288
 21
28.7306
  0
LINE
  8
0
 10
385.288
 20
28.7306
 11
385.821
 21
28.3213
  0
LINE
  8
0
 10
385.821
 20
28.3213
 11
386.231
 21
27.7878
  0
LINE
  8
0
 10
386.231
 20
27.7878
 11
386.488
 21
27.1666
  0
LINE
  8
0
 10
386.488
 20
27.1666
 11
386.576
 21
26.5
  0
LINE
  8
0
 10
386.576
 20
26.5
 11
386.488
 21
25.8334
  0
LINE
  8
0
 10
386.488
 20
25.8334
 11
386.231
 21
25.2122
  0
LINE
  8
0
 10
386.231
 20
25.2122
 11
385.821
 21
24.6787
  0
LINE
  8
0
 10
385.821
 20
24.6787
 11
385.288
 21
24.2694
  0
LINE
  8
0
 10
385.288
 20
24.2694
 11
384.667
 21
24.0121
  0
LINE
  8
0
 10
384.667
 20
24.0121
 11
384
 21
23.9243
  0
LINE
  8
0
 10
384
 20
23.9243
 11
383.333
 21
24.0121
  0
LINE
  8
0
 10
141.333
 20
24.0121
 11
140.712
 21
24.2694
  0
LINE
  8
0
 10
140.712
 20
24.2694
 11
140.179
 21
24.6787
  0
LINE
  8
0
 10
140.179
 20
24.6787
 11
139.769
 21
25.2122
  0
LINE
  8
0
 10
139.769
 20
25.2122
 11
139.512
 21
25.8334
  0
LINE
  8
0
 10
139.512
 20
25.8334
 11
139.424
 21
26.5
  0
LINE
  8
0
 10
139.424
 20
26.5
 11
139.512
 21
27.1666
  0
LINE
  8
0
 10
139.512
 20
27.1666
 11
139.769
 21
27.7878
  0
LINE
  8
0
 10
139.769
 20
27.7878
 11
140.179
 21
28.3213
  0
LINE
  8
0
 10
140.179
 20
28.3213
 11
140.712
 21
28.7306
  0
LINE
  8
0
 10
140.712
 20
28.7306
 11
141.333
 21
28.9879
  0
LINE
  8
0
 10
141.333
 20
28.9879
 11
142
 21
29.0757
  0
LINE
  8
0
 10
142
 20
29.0757
 11
142.667
 21
28.9879
  0
LINE
  8
0
 10
142.667
 20
28.9879
 11
143.288
 21
28.7306
  0
LINE
  8
0
 10
143.288
 20
28.7306
 11
143.821
 21
28.3213
  0
LINE
  8
0
 10
143.821
 20
28.3213
 11
144.231
 21
27.7878
  0
LINE
  8
0
 10
144.231
 20
27.7878
 11
144.488
 21
27.1666
  0
LINE
  8
0
 10
144.488
 20
27.1666
 11
144.576
 21
26.5
  0
LINE
  8
0
 10
144.576
 20
26.5
 11
144.488
 21
25.8334
  0
LINE
  8
0
 10
144.488
 20
25.8334
 11
144.231
 21
25.2122
  0
LINE
  8
0
 10
144.231
 20
25.2122
 11
143.821
 21
24.6787
  0
LINE
  8
0
 10
143.821
 20
24.6787
 11
143.288
 21
24.2694
  0
LINE
  8
0
 10
143.288
 20
24.2694
 11
142.667
 21
24.0121
  0
LINE
  8
0
 10
142.667
 20
24.0121
 11
142
 21
23.9243
  0
LINE
  8
0
 10
142
 20
23.9243
 11
141.333
 21
24.0121
  0
LINE
  8
0
 10
269.333
 20
24.0121
 11
268.712
 21
24.2694
  0
LINE
  8
0
 10
268.712
 20
24.2694
 11
268.179
 21
24.6787
  0
LINE
  8
0
 10
268.179
 20
24.6787
 11
267.769
 21
25.2122
  0
LINE
  8
0
 10
267.769
 20
25.2122
 11
267.512
 21
25.8334
  0
LINE
  8
0
 10
267.512
 20
25.8334
 11
267.424
 21
26.5
  0
LINE
  8
0
 10
267.424
 20
26.5
 11
267.512
 21
27.1666
  0
LINE
  8
0
 10
267.512
 20
27.1666
 11
267.769
 21
27.7878
  0
LINE
  8
0
 10
267.769
 20
27.7878
 11
268.179
 21
28.3213
  0
LINE
  8
0
 10
268.179
 20
28.3213
 11
268.712
 21
28.7306
  0
LINE
  8
0
 10
268.712
 20
28.7306
 11
269.333
 21
28.9879
  0
LINE
  8
0
 10
269.333
 20
28.9879
 11
270
 21
29.0757
  0
LINE
  8
0
 10
270
 20
29.0757
 11
270.667
 21
28.9879
  0
LINE
  8
0
 10
270.667
 20
28.9879
 11
271.288
 21
28.7306
  0
LINE
  8
0
 10
271.288
 20
28.7306
 11
271.821
 21
28.3213
  0
LINE
  8
0
 10
271.821
 20
28.3213
 11
272.231
 21
27.7878
  0
LINE
  8
0
 10
272.231
 20
27.7878
 11
272.488
 21
27.1666
  0
LINE
  8
0
 10
272.488
 20
27.1666
 11
272.576
 21
26.5
  0
LINE
  8
0
 10
272.576
 20
26.5
 11
272.488
 21
25.8334
  0
LINE
  8
0
 10
272.488
 20
25.8334
 11
272.231
 21
25.2122
  0
LINE
  8
0
 10
272.231
 20
25.2122
 11
271.821
 21
24.6787
  0
LINE
  8
0
 10
271.821
 20
24.6787
 11
271.288
 21
24.2694
  0
LINE
  8
0
 10
271.288
 20
24.2694
 11
270.667
 21
24.0121
  0
LINE
  8
0
 10
270.667
 20
24.0121
 11
270
 21
23.9243
  0
LINE
  8
0
 10
270
 20
23.9243
 11
269.333
 21
24.0121
  0
LINE
  8
0
 10
13.3334
 20
24.0121
 11
12.7122
 21
24.2694
  0
LINE
  8
0
 10
12.7122
 20
24.2694
 11
12.1787
 21
24.6787
  0
LINE
  8
0
 10
12.1787
 20
24.6787
 11
11.7694
 21
25.2122
  0
LINE
  8
0
 10
11.7694
 20
25.2122
 11
11.5121
 21
25.8334
  0
LINE
  8
0
 10
11.5121
 20
25.8334
 11
11.4243
 21
26.5
  0
LINE
  8
0
 10
11.4243
 20
26.5
 11
11.5121
 21
27.1666
  0
LINE
  8
0
 10
11.5121
 20
27.1666
 11
11.7694
 21
27.7878
  0
LINE
  8
0
 10
11.7694
 20
27.7878
 11
12.1787
 21
28.3213
  0
LINE
  8
0
 10
12.1787
 20
28.3213
 11
12.7122
 21
28.7306
  0
LINE
  8
0
 10
12.7122
 20
28.7306
 11
13.3334
 21
28.9879
  0
LINE
  8
0
 10
13.3334
 20
28.9879
 11
14
 21
29.0757
  0
LINE
  8
0
 10
14
 20
29.0757
 11
14.6666
 21
28.9879
  0
LINE
  8
0
 10
14.6666
 20
28.9879
 11
15.2878
 21
28.7306
  0
LINE
  8
0
 10
15.2878
 20
28.7306
 11
15.8213
 21
28.3213
  0
LINE
  8
0
 10
15.8213
 20
28.3213
 11
16.2306
 21
27.7878
  0
LINE
  8
0
 10
16.2306
 20
27.7878
 11
16.4879
 21
27.1666
  0
LINE
  8
0
 10
16.4879
 20
27.1666
 11
16.5757
 21
26.5
  0
LINE
  8
0
 10
16.5757
 20
26.5
 11
16.4879
 21
25.8334
  0
LINE
  8
0
 10
16.4879
 20
25.8334
 11
16.2306
 21
25.2122
  0
LINE
  8
0
 10
16.2306
 20
25.2122
 11
15.8213
 21
24.6787
  0
LINE
  8
0
 10
15.8213
 20
24.6787
 11
15.2878
 21
24.2694
  0
LINE
  8
0
 10
15.2878
 20
24.2694
 11
14.6666
 21
24.0121
  0
LINE
  8
0
 10
14.6666
 20
24.0121
 11
14
 21
23.9243
  0
LINE
  8
0
 10
14
 20
23.9243
 11
13.3334
 21
24.0121
  0
LINE
  8
0
 10
127.333
 20
24.0121
 11
126.712
 21
24.2694
  0
LINE
  8
0
 10
126.712
 20
24.2694
 11
126.179
 21
24.6787
  0
LINE
  8
0
 10
126.179
 20
24.6787
 11
125.769
 21
25.2122
  0
LINE
  8
0
 10
125.769
 20
25.2122
 11
125.512
 21
25.8334
  0
LINE
  8
0
 10
125.512
 20
25.8334
 11
125.424
 21
26.5
  0
LINE
  8
0
 10
125.424
 20
26.5
 11
125.512
 21
27.1666
  0
LINE
  8
0
 10
125.512
 20
27.1666
 11
125.769
 21
27.7878
  0
LINE
  8
0
 10
125.769
 20
27.7878
 11
126.179
 21
28.3213
  0
LINE
  8
0
 10
126.179
 20
28.3213
 11
126.712
 21
28.7306
  0
LINE
  8
0
 10
126.712
 20
28.7306
 11
127.333
 21
28.9879
  0
LINE
  8
0
 10
127.333
 20
28.9879
 11
128
 21
29.0757
  0
LINE
  8
0
 10
128
 20
29.0757
 11
128.667
 21
28.9879
  0
LINE
  8
0
 10
128.667
 20
28.9879
 11
129.288
 21
28.7306
  0
LINE
  8
0
 10
129.288
 20
28.7306
 11
129.821
 21
28.3213
  0
LINE
  8
0
 10
129.821
 20
28.3213
 11
130.231
 21
27.7878
  0
LINE
  8
0
 10
130.231
 20
27.7878
 11
130.488
 21
27.1666
  0
LINE
  8
0
 10
130.488
 20
27.1666
 11
130.576
 21
26.5
  0
LINE
  8
0
 10
130.576
 20
26.5
 11
130.488
 21
25.8334
  0
LINE
  8
0
 10
130.488
 20
25.8334
 11
130.231
 21
25.2122
  0
LINE
  8
0
 10
130.231
 20
25.2122
 11
129.821
 21
24.6787
  0
LINE
  8
0
 10
129.821
 20
24.6787
 11
129.288
 21
24.2694
  0
LINE
  8
0
 10
129.288
 20
24.2694
 11
128.667
 21
24.0121
  0
LINE
  8
0
 10
128.667
 20
24.0121
 11
128
 21
23.9243
  0
LINE
  8
0
 10
128
 20
23.9243
 11
127.333
 21
24.0121
  0
LINE
  8
0
 10
255.333
 20
24.0121
 11
254.712
 21
24.2694
  0
LINE
  8
0
 10
254.712
 20
24.2694
 11
254.179
 21
24.6787
  0
LINE
  8
0
 10
254.179
 20
24.6787
 11
253.769
 21
25.2122
  0
LINE
  8
0
 10
253.769
 20
25.2122
 11
253.512
 21
25.8334
  0
LINE
  8
0
 10
253.512
 20
25.8334
 11
253.424
 21
26.5
  0
LINE
  8
0
 10
253.424
 20
26.5
 11
253.512
 21
27.1666
  0
LINE
  8
0
 10
253.512
 20
27.1666
 11
253.769
 21
27.7878
  0
LINE
  8
0
 10
253.769
 20
27.7878
 11
254.179
 21
28.3213
  0
LINE
  8
0
 10
254.179
 20
28.3213
 11
254.712
 21
28.7306
  0
LINE
  8
0
 10
254.712
 20
28.7306
 11
255.333
 21
28.9879
  0
LINE
  8
0
 10
255.333
 20
28.9879
 11
256
 21
29.0757
  0
LINE
  8
0
 10
256
 20
29.0757
 11
256.667
 21
28.9879
  0
LINE
  8
0
 10
256.667
 20
28.9879
 11
257.288
 21
28.7306
  0
LINE
  8
0
 10
257.288
 20
28.7306
 11
257.821
 21
28.3213
  0
LINE
  8
0
 10
257.821
 20
28.3213
 11
258.231
 21
27.7878
  0
LINE
  8
0
 10
258.231
 20
27.7878
 11
258.488
 21
27.1666
  0
LINE
  8
0
 10
258.488
 20
27.1666
 11
258.576
 21
26.5
  0
LINE
  8
0
 10
258.576
 20
26.5
 11
258.488
 21
25.8334
  0
LINE
  8
0
 10
258.488
 20
25.8334
 11
258.231
 21
25.2122
  0
LINE
  8
0
 10
258.231
 20
25.2122
 11
257.821
 21
24.6787
  0
LINE
  8
0
 10
257.821
 20
24.6787
 11
257.288
 21
24.2694
  0
LINE
  8
0
 10
257.288
 20
24.2694
 11
256.667
 21
24.0121
  0
LINE
  8
0
 10
256.667
 20
24.0121
 11
256
 21
23.9243
  0
LINE
  8
0
 10
256
 20
23.9243
 11
255.333
 21
24.0121
  0
LINE
  8
0
 10
326.333
 20
12.0121
 11
325.712
 21
12.2694
  0
LINE
  8
0
 10
325.712
 20
12.2694
 11
325.179
 21
12.6787
  0
LINE
  8
0
 10
325.179
 20
12.6787
 11
324.769
 21
13.2122
  0
LINE
  8
0
 10
324.769
 20
13.2122
 11
324.512
 21
13.8334
  0
LINE
  8
0
 10
324.512
 20
13.8334
 11
324.424
 21
14.5
  0
LINE
  8
0
 10
324.424
 20
14.5
 11
324.512
 21
15.1666
  0
LINE
  8
0
 10
324.512
 20
15.1666
 11
324.769
 21
15.7878
  0
LINE
  8
0
 10
324.769
 20
15.7878
 11
325.179
 21
16.3213
  0
LINE
  8
0
 10
325.179
 20
16.3213
 11
325.712
 21
16.7306
  0
LINE
  8
0
 10
325.712
 20
16.7306
 11
326.333
 21
16.9879
  0
LINE
  8
0
 10
326.333
 20
16.9879
 11
327
 21
17.0757
  0
LINE
  8
0
 10
327
 20
17.0757
 11
327.667
 21
16.9879
  0
LINE
  8
0
 10
327.667
 20
16.9879
 11
328.288
 21
16.7306
  0
LINE
  8
0
 10
328.288
 20
16.7306
 11
328.821
 21
16.3213
  0
LINE
  8
0
 10
328.821
 20
16.3213
 11
329.231
 21
15.7878
  0
LINE
  8
0
 10
329.231
 20
15.7878
 11
329.488
 21
15.1666
  0
LINE
  8
0
 10
329.488
 20
15.1666
 11
329.576
 21
14.5
  0
LINE
  8
0
 10
329.576
 20
14.5
 11
329.488
 21
13.8334
  0
LINE
  8
0
 10
329.488
 20
13.8334
 11
329.231
 21
13.2122
  0
LINE
  8
0
 10
329.231
 20
13.2122
 11
328.821
 21
12.6787
  0
LINE
  8
0
 10
328.821
 20
12.6787
 11
328.288
 21
12.2694
  0
LINE
  8
0
 10
328.288
 20
12.2694
 11
327.667
 21
12.0121
  0
LINE
  8
0
 10
327.667
 20
12.0121
 11
327
 21
11.9243
  0
LINE
  8
0
 10
327
 20
11.9243
 11
326.333
 21
12.0121
  0
LINE
  8
0
 10
198.333
 20
12.0121
 11
197.712
 21
12.2694
  0
LINE
  8
0
 10
197.712
 20
12.2694
 11
197.179
 21
12.6787
  0
LINE
  8
0
 10
197.179
 20
12.6787
 11
196.769
 21
13.2122
  0
LINE
  8
0
 10
196.769
 20
13.2122
 11
196.512
 21
13.8334
  0
LINE
  8
0
 10
196.512
 20
13.8334
 11
196.424
 21
14.5
  0
LINE
  8
0
 10
196.424
 20
14.5
 11
196.512
 21
15.1666
  0
LINE
  8
0
 10
196.512
 20
15.1666
 11
196.769
 21
15.7878
  0
LINE
  8
0
 10
196.769
 20
15.7878
 11
197.179
 21
16.3213
  0
LINE
  8
0
 10
197.179
 20
16.3213
 11
197.712
 21
16.7306
  0
LINE
  8
0
 10
197.712
 20
16.7306
 11
198.333
 21
16.9879
  0
LINE
  8
0
 10
198.333
 20
16.9879
 11
199
 21
17.0757
  0
LINE
  8
0
 10
199
 20
17.0757
 11
199.667
 21
16.9879
  0
LINE
  8
0
 10
199.667
 20
16.9879
 11
200.288
 21
16.7306
  0
LINE
  8
0
 10
200.288
 20
16.7306
 11
200.821
 21
16.3213
  0
LINE
  8
0
 10
200.821
 20
16.3213
 11
201.231
 21
15.7878
  0
LINE
  8
0
 10
201.231
 20
15.7878
 11
201.488
 21
15.1666
  0
LINE
  8
0
 10
201.488
 20
15.1666
 11
201.576
 21
14.5
  0
LINE
  8
0
 10
201.576
 20
14.5
 11
201.488
 21
13.8334
  0
LINE
  8
0
 10
201.488
 20
13.8334
 11
201.231
 21
13.2122
  0
LINE
  8
0
 10
201.231
 20
13.2122
 11
200.821
 21
12.6787
  0
LINE
  8
0
 10
200.821
 20
12.6787
 11
200.288
 21
12.2694
  0
LINE
  8
0
 10
200.288
 20
12.2694
 11
199.667
 21
12.0121
  0
LINE
  8
0
 10
199.667
 20
12.0121
 11
199
 21
11.9243
  0
LINE
  8
0
 10
199
 20
11.9243
 11
198.333
 21
12.0121
  0
LINE
  8
0
 10
70.3334
 20
12.0121
 11
69.7122
 21
12.2694
  0
LINE
  8
0
 10
69.7122
 20
12.2694
 11
69.1787
 21
12.6787
  0
LINE
  8
0
 10
69.1787
 20
12.6787
 11
68.7694
 21
13.2122
  0
LINE
  8
0
 10
68.7694
 20
13.2122
 11
68.5121
 21
13.8334
  0
LINE
  8
0
 10
68.5121
 20
13.8334
 11
68.4243
 21
14.5
  0
LINE
  8
0
 10
68.4243
 20
14.5
 11
68.5121
 21
15.1666
  0
LINE
  8
0
 10
68.5121
 20
15.1666
 11
68.7694
 21
15.7878
  0
LINE
  8
0
 10
68.7694
 20
15.7878
 11
69.1787
 21
16.3213
  0
LINE
  8
0
 10
69.1787
 20
16.3213
 11
69.7122
 21
16.7306
  0
LINE
  8
0
 10
69.7122
 20
16.7306
 11
70.3334
 21
16.9879
  0
LINE
  8
0
 10
70.3334
 20
16.9879
 11
71
 21
17.0757
  0
LINE
  8
0
 10
71
 20
17.0757
 11
71.6666
 21
16.9879
  0
LINE
  8
0
 10
71.6666
 20
16.9879
 11
72.2878
 21
16.7306
  0
LINE
  8
0
 10
72.2878
 20
16.7306
 11
72.8213
 21
16.3213
  0
LINE
  8
0
 10
72.8213
 20
16.3213
 11
73.2306
 21
15.7878
  0
LINE
  8
0
 10
73.2306
 20
15.7878
 11
73.4879
 21
15.1666
  0
LINE
  8
0
 10
73.4879
 20
15.1666
 11
73.5757
 21
14.5
  0
LINE
  8
0
 10
73.5757
 20
14.5
 11
73.4879
 21
13.8334
  0
LINE
  8
0
 10
73.4879
 20
13.8334
 11
73.2306
 21
13.2122
  0
LINE
  8
0
 10
73.2306
 20
13.2122
 11
72.8213
 21
12.6787
  0
LINE
  8
0
 10
72.8213
 20
12.6787
 11
72.2878
 21
12.2694
  0
LINE
  8
0
 10
72.2878
 20
12.2694
 11
71.6666
 21
12.0121
  0
LINE
  8
0
 10
71.6666
 20
12.0121
 11
71
 21
11.9243
  0
LINE
  8
0
 10
71
 20
11.9243
 11
70.3334
 21
12.0121
  0
LINE
  8
0
 10
1007.7
 20
3.075
 11
1020.82
 21
3.075
  0
LINE
  8
0
 10
1020.82
 20
3.075
 11
1020.82
 21
0.0749969
  0
LINE
  8
0
 10
1020.82
 20
0.0749969
 11
1033.63
 21
0.0749969
  0
LINE
  8
0
 10
1033.63
 20
0.0749969
 11
1033.63
 21
3.075
  0
LINE
  8
0
 10
1033.63
 20
3.075
 11
1046.75
 21
3.075
  0
LINE
  8
0
 10
1046.75
 20
3.075
 11
1046.75
 21
0.0749969
  0
LINE
  8
0
 10
1046.75
 20
0.0749969
 11
1059.56
 21
0.0749969
  0
LINE
  8
0
 10
1059.56
 20
0.0749969
 11
1059.56
 21
3.075
  0
LINE
  8
0
 10
1059.56
 20
3.075
 11
1072.67
 21
3.075
  0
LINE
  8
0
 10
1072.67
 20
3.075
 11
1072.67
 21
0.0749969
  0
LINE
  8
0
 10
1072.67
 20
0.0749969
 11
1085.49
 21
0.0749969
  0
LINE
  8
0
 10
1085.49
 20
0.0749969
 11
1085.49
 21
3.075
  0
LINE
  8
0
 10
1085.49
 20
3.075
 11
1098.6
 21
3.075
  0
LINE
  8
0
 10
1098.6
 20
3.075
 11
1098.6
 21
0.0749969
  0
LINE
  8
0
 10
1098.6
 20
0.0749969
 11
1111.41
 21
0.0749969
  0
LINE
  8
0
 10
1111.41
 20
0.0749969
 11
1111.41
 21
3.075
  0
LINE
  8
0
 10
1111.41
 20
3.075
 11
1124.53
 21
3.075
  0
LINE
  8
0
 10
1124.53
 20
3.075
 11
1124.53
 21
0.0749969
  0
LINE
  8
0
 10
1124.53
 20
0.0749969
 11
1137.34
 21
0.0749969
  0
LINE
  8
0
 10
1137.34
 20
0.0749969
 11
1137.34
 21
3.075
  0
LINE
  8
0
 10
1137.34
 20
3.075
 11
1150.45
 21
3.075
  0
LINE
  8
0
 10
1150.45
 20
3.075
 11
1150.45
 21
0.0749969
  0
LINE
  8
0
 10
1150.45
 20
0.0749969
 11
1166
 21
0.0749969
  0
LINE
  8
0
 10
1166
 20
0.0749969
 11
1166
 21
15.775
  0
LINE
  8
0
 10
1166
 20
15.775
 11
1169
 21
15.775
  0
LINE
  8
0
 10
1169
 20
15.775
 11
1169
 21
31.425
  0
LINE
  8
0
 10
1169
 20
31.425
 11
1166
 21
31.425
  0
LINE
  8
0
 10
1166
 20
31.425
 11
1166
 21
47.375
  0
LINE
  8
0
 10
1166
 20
47.375
 11
1169
 21
47.375
  0
LINE
  8
0
 10
1169
 20
47.375
 11
1169
 21
63.025
  0
LINE
  8
0
 10
1169
 20
63.025
 11
1166
 21
63.025
  0
LINE
  8
0
 10
1166
 20
63.025
 11
1166
 21
78.975
  0
LINE
  8
0
 10
1166
 20
78.975
 11
1169
 21
78.975
  0
LINE
  8
0
 10
1169
 20
78.975
 11
1169
 21
94.625
  0
LINE
  8
0
 10
1169
 20
94.625
 11
1166
 21
94.625
  0
LINE
  8
0
 10
1166
 20
94.625
 11
1166
 21
110.575
  0
LINE
  8
0
 10
1166
 20
110.575
 11
1169
 21
110.575
  0
LINE
  8
0
 10
1169
 20
110.575
 11
1169
 21
126.225
  0
LINE
  8
0
 10
1169
 20
126.225
 11
1166
 21
126.225
  0
LINE
  8
0
 10
1166
 20
126.225
 11
1166
 21
141.925
  0
LINE
  8
0
 10
1166
 20
141.925
 11
1150.45
 21
141.925
  0
LINE
  8
0
 10
1150.45
 20
141.925
 11
1150.45
 21
138.925
  0
LINE
  8
0
 10
1150.45
 20
138.925
 11
1137.34
 21
138.925
  0
LINE
  8
0
 10
1137.34
 20
138.925
 11
1137.34
 21
141.925
  0
LINE
  8
0
 10
1137.34
 20
141.925
 11
1124.53
 21
141.925
  0
LINE
  8
0
 10
1124.53
 20
141.925
 11
1124.53
 21
138.925
  0
LINE
  8
0
 10
1124.53
 20
138.925
 11
1111.41
 21
138.925
  0
LINE
  8
0
 10
1111.41
 20
138.925
 11
1111.41
 21
141.925
  0
LINE
  8
0
 10
1111.41
 20
141.925
 11
1098.6
 21
141.925
  0
LINE
  8
0
 10
1098.6
 20
141.925
 11
1098.6
 21
138.925
  0
LINE
  8
0
 10
1098.6
 20
138.925
 11
1085.49
 21
138.925
  0
LINE
  8
0
 10
1085.49
 20
138.925
 11
1085.49
 21
141.925
  0
LINE
  8
0
 10
1085.49
 20
141.925
 11
1072.67
 21
141.925
  0
LINE
  8
0
 10
1072.67
 20
141.925
 11
1072.67
 21
138.925
  0
LINE
  8
0
 10
1072.67
 20
138.925
 11
1059.56
 21
138.925
  0
LINE
  8
0
 10
1059.56
 20
138.925
 11
1059.56
 21
141.925
  0
LINE
  8
0
 10
1059.56
 20
141.925
 11
1046.75
 21
141.925
  0
LINE
  8
0
 10
1046.75
 20
141.925
 11
1046.75
 21
138.925
  0
LINE
  8
0
 10
1046.75
 20
138.925
 11
1033.63
 21
138.925
  0
LINE
  8
0
 10
1033.63
 20
138.925
 11
1033.63
 21
141.925
  0
LINE
  8
0
 10
1033.63
 20
141.925
 11
1020.82
 21
141.925
  0
LINE
  8
0
 10
1020.82
 20
141.925
 11
1020.82
 21
138.925
  0
LINE
  8
0
 10
1020.82
 20
138.925
 11
1007.71
 21
138.925
  0
LINE
  8
0
 10
1007.71
 20
138.925
 11
1007.71
 21
141.925
  0
LINE
  8
0
 10
1007.71
 20
141.925
 11
992.155
 21
141.925
  0
LINE
  8
0
 10
992.155
 20
141.925
 11
992.155
 21
126.225
  0
LINE
  8
0
 10
992.155
 20
126.225
 11
989.155
 21
126.225
  0
LINE
  8
0
 10
989.155
 20
126.225
 11
989.155
 21
110.575
  0
LINE
  8
0
 10
989.155
 20
110.575
 11
992.155
 21
110.575
  0
LINE
  8
0
 10
992.155
 20
110.575
 11
992.155
 21
94.625
  0
LINE
  8
0
 10
992.155
 20
94.625
 11
989.155
 21
94.625
  0
LINE
  8
0
 10
989.155
 20
94.625
 11
989.155
 21
78.975
  0
LINE
  8
0
 10
989.155
 20
78.975
 11
992.155
 21
78.975
  0
LINE
  8
0
 10
992.155
 20
78.975
 11
992.155
 21
63.025
  0
LINE
  8
0
 10
992.155
 20
63.025
 11
989.155
 21
63.025
  0
LINE
  8
0
 10
989.155
 20
63.025
 11
989.155
 21
47.375
  0
LINE
  8
0
 10
989.155
 20
47.375
 11
992.155
 21
47.375
  0
LINE
  8
0
 10
992.155
 20
47.375
 11
992.155
 21
31.425
  0
LINE
  8
0
 10
992.155
 20
31.425
 11
989.155
 21
31.425
  0
LINE
  8
0
 10
989.155
 20
31.425
 11
989.155
 21
15.775
  0
LINE
  8
0
 10
989.155
 20
15.775
 11
992.155
 21
15.775
  0
LINE
  8
0
 10
992.155
 20
15.775
 11
992.155
 21
0.0749969
  0
LINE
  8
0
 10
992.155
 20
0.0749969
 11
1007.7
 21
0.0749969
  0
LINE
  8
0
 10
1007.7
 20
0.0749969
 11
1007.7
 21
3.075
  0
LINE
  8
0
 10
823.345
 20
3.075
 11
836.459
 21
3.075
  0
LINE
  8
0
 10
836.459
 20
3.075
 11
836.459
 21
0.0749969
  0
LINE
  8
0
 10
836.459
 20
0.0749969
 11
849.272
 21
0.0749969
  0
LINE
  8
0
 10
849.272
 20
0.0749969
 11
849.272
 21
3.075
  0
LINE
  8
0
 10
849.272
 20
3.075
 11
862.386
 21
3.075
  0
LINE
  8
0
 10
862.386
 20
3.075
 11
862.386
 21
0.0749969
  0
LINE
  8
0
 10
862.386
 20
0.0749969
 11
875.2
 21
0.0749969
  0
LINE
  8
0
 10
875.2
 20
0.0749969
 11
875.2
 21
3.075
  0
LINE
  8
0
 10
875.2
 20
3.075
 11
888.313
 21
3.075
  0
LINE
  8
0
 10
888.313
 20
3.075
 11
888.313
 21
0.0749969
  0
LINE
  8
0
 10
888.313
 20
0.0749969
 11
901.127
 21
0.0749969
  0
LINE
  8
0
 10
901.127
 20
0.0749969
 11
901.127
 21
3.075
  0
LINE
  8
0
 10
901.127
 20
3.075
 11
914.24
 21
3.075
  0
LINE
  8
0
 10
914.24
 20
3.075
 11
914.24
 21
0.0749969
  0
LINE
  8
0
 10
914.24
 20
0.0749969
 11
927.054
 21
0.0749969
  0
LINE
  8
0
 10
927.054
 20
0.0749969
 11
927.054
 21
3.075
  0
LINE
  8
0
 10
927.054
 20
3.075
 11
940.168
 21
3.075
  0
LINE
  8
0
 10
940.168
 20
3.075
 11
940.168
 21
0.0749969
  0
LINE
  8
0
 10
940.168
 20
0.0749969
 11
952.981
 21
0.0749969
  0
LINE
  8
0
 10
952.981
 20
0.0749969
 11
952.981
 21
3.075
  0
LINE
  8
0
 10
952.981
 20
3.075
 11
966.095
 21
3.075
  0
LINE
  8
0
 10
966.095
 20
3.075
 11
966.095
 21
0.0749969
  0
LINE
  8
0
 10
966.095
 20
0.0749969
 11
981.645
 21
0.0749969
  0
LINE
  8
0
 10
981.645
 20
0.0749969
 11
981.645
 21
15.775
  0
LINE
  8
0
 10
981.645
 20
15.775
 11
984.645
 21
15.775
  0
LINE
  8
0
 10
984.645
 20
15.775
 11
984.645
 21
31.425
  0
LINE
  8
0
 10
984.645
 20
31.425
 11
981.645
 21
31.425
  0
LINE
  8
0
 10
981.645
 20
31.425
 11
981.645
 21
47.375
  0
LINE
  8
0
 10
981.645
 20
47.375
 11
984.645
 21
47.375
  0
LINE
  8
0
 10
984.645
 20
47.375
 11
984.645
 21
63.025
  0
LINE
  8
0
 10
984.645
 20
63.025
 11
981.645
 21
63.025
  0
LINE
  8
0
 10
981.645
 20
63.025
 11
981.645
 21
78.975
  0
LINE
  8
0
 10
981.645
 20
78.975
 11
984.645
 21
78.975
  0
LINE
  8
0
 10
984.645
 20
78.975
 11
984.645
 21
94.625
  0
LINE
  8
0
 10
984.645
 20
94.625
 11
981.645
 21
94.625
  0
LINE
  8
0
 10
981.645
 20
94.625
 11
981.645
 21
110.575
  0
LINE
  8
0
 10
981.645
 20
110.575
 11
984.645
 21
110.575
  0
LINE
  8
0
 10
984.645
 20
110.575
 11
984.645
 21
126.225
  0
LINE
  8
0
 10
984.645
 20
126.225
 11
981.645
 21
126.225
  0
LINE
  8
0
 10
981.645
 20
126.225
 11
981.645
 21
141.925
  0
LINE
  8
0
 10
981.645
 20
141.925
 11
966.095
 21
141.925
  0
LINE
  8
0
 10
966.095
 20
141.925
 11
966.095
 21
138.925
  0
LINE
  8
0
 10
966.095
 20
138.925
 11
952.981
 21
138.925
  0
LINE
  8
0
 10
952.981
 20
138.925
 11
952.981
 21
141.925
  0
LINE
  8
0
 10
952.981
 20
141.925
 11
940.168
 21
141.925
  0
LINE
  8
0
 10
940.168
 20
141.925
 11
940.168
 21
138.925
  0
LINE
  8
0
 10
940.168
 20
138.925
 11
927.054
 21
138.925
  0
LINE
  8
0
 10
927.054
 20
138.925
 11
927.054
 21
141.925
  0
LINE
  8
0
 10
927.054
 20
141.925
 11
914.24
 21
141.925
  0
LINE
  8
0
 10
914.24
 20
141.925
 11
914.24
 21
138.925
  0
LINE
  8
0
 10
914.24
 20
138.925
 11
901.127
 21
138.925
  0
LINE
  8
0
 10
901.127
 20
138.925
 11
901.127
 21
141.925
  0
LINE
  8
0
 10
901.127
 20
141.925
 11
888.313
 21
141.925
  0
LINE
  8
0
 10
888.313
 20
141.925
 11
888.313
 21
138.925
  0
LINE
  8
0
 10
888.313
 20
138.925
 11
875.2
 21
138.925
  0
LINE
  8
0
 10
875.2
 20
138.925
 11
875.2
 21
141.925
  0
LINE
  8
0
 10
875.2
 20
141.925
 11
862.386
 21
141.925
  0
LINE
  8
0
 10
862.386
 20
141.925
 11
862.386
 21
138.925
  0
LINE
  8
0
 10
862.386
 20
138.925
 11
849.272
 21
138.925
  0
LINE
  8
0
 10
849.272
 20
138.925
 11
849.272
 21
141.925
  0
LINE
  8
0
 10
849.272
 20
141.925
 11
836.459
 21
141.925
  0
LINE
  8
0
 10
836.459
 20
141.925
 11
836.459
 21
138.925
  0
LINE
  8
0
 10
836.459
 20
138.925
 11
823.345
 21
138.925
  0
LINE
  8
0
 10
823.345
 20
138.925
 11
823.345
 21
141.925
  0
LINE
  8
0
 10
823.345
 20
141.925
 11
807.795
 21
141.925
  0
LINE
  8
0
 10
807.795
 20
141.925
 11
807.795
 21
126.225
  0
LINE
  8
0
 10
807.795
 20
126.225
 11
804.795
 21
126.225
  0
LINE
  8
0
 10
804.795
 20
126.225
 11
804.795
 21
110.575
  0
LINE
  8
0
 10
804.795
 20
110.575
 11
807.795
 21
110.575
  0
LINE
  8
0
 10
807.795
 20
110.575
 11
807.795
 21
94.625
  0
LINE
  8
0
 10
807.795
 20
94.625
 11
804.795
 21
94.625
  0
LINE
  8
0
 10
804.795
 20
94.625
 11
804.795
 21
78.975
  0
LINE
  8
0
 10
804.795
 20
78.975
 11
807.795
 21
78.975
  0
LINE
  8
0
 10
807.795
 20
78.975
 11
807.795
 21
63.025
  0
LINE
  8
0
 10
807.795
 20
63.025
 11
804.795
 21
63.025
  0
LINE
  8
0
 10
804.795
 20
63.025
 11
804.795
 21
47.375
  0
LINE
  8
0
 10
804.795
 20
47.375
 11
807.795
 21
47.375
  0
LINE
  8
0
 10
807.795
 20
47.375
 11
807.795
 21
31.425
  0
LINE
  8
0
 10
807.795
 20
31.425
 11
804.795
 21
31.425
  0
LINE
  8
0
 10
804.795
 20
31.425
 11
804.795
 21
15.775
  0
LINE
  8
0
 10
804.795
 20
15.775
 11
807.795
 21
15.775
  0
LINE
  8
0
 10
807.795
 20
15.775
 11
807.795
 21
0.0749969
  0
LINE
  8
0
 10
807.795
 20
0.0749969
 11
823.345
 21
0.0749969
  0
LINE
  8
0
 10
823.345
 20
0.0749969
 11
823.345
 21
3.075
  0
ENDSEC
  0
SECTION
  2
OBJECTS
  0
DICTIONARY
  0
ENDSEC
  0
EOF
