<svg width="158" height="131" viewBox="0 0 158 131" fill="none" xmlns="http://www.w3.org/2000/svg">
<path d="M138.211 116.299C117.33 132.422 67.6901 134.696 44.6941 124.334C23.4954 114.766 -2.14382 90.9767 0.922315 53.6544C3.98845 16.3321 33.5397 0.895697 56.7472 0.631375C79.9546 0.367053 103.268 9.19542 107.497 26.6407C111.726 44.0859 112.678 48.8437 120.607 64.2801C128.537 79.7165 157.877 69.9366 157.877 69.9366C157.983 73.7429 156.027 102.501 138.211 116.299Z" fill="#EBEEFF"/>
<path d="M57.4872 120.105C50.4563 120.105 43.5311 120.105 36.7644 120.105C39.4076 121.691 42.1037 123.065 44.6941 124.281C65.4698 133.638 107.92 132.74 131.339 120.581C120.396 120.422 107.18 120.316 91.4262 120.211C81.2762 120.105 70.0161 120.105 57.4872 120.105Z" fill="#2A197E"/>
<path d="M150.37 70.6768C149.26 60.1568 144.608 50.7469 137.682 43.5045C129.277 34.8347 117.541 29.3896 104.536 29.3896C100.096 29.3896 95.8668 30.024 91.7433 31.2399C85.9811 32.9316 80.6418 35.6805 75.9897 39.2753C74.0866 40.7555 72.3421 42.3415 70.7561 44.086C64.8353 50.4297 60.659 58.4651 59.0731 67.2934C58.5444 69.9895 58.333 72.6856 58.333 75.5403C58.333 76.4919 58.333 77.4963 58.3859 78.4479C58.7559 84.4215 60.289 90.1309 62.7207 95.2587C67.32 104.986 75.1439 112.81 84.871 117.409C90.8446 120.211 97.5055 121.797 104.536 121.797C111.197 121.797 117.541 120.422 123.303 117.832C139.427 110.589 150.793 94.36 150.793 75.5932C150.687 73.9544 150.529 72.2627 150.37 70.6768ZM72.6593 93.2499C70.3332 88.8093 68.853 83.84 68.483 78.5536C68.4301 77.8135 68.4301 77.0734 68.4301 76.3861C68.4301 73.32 68.8002 70.3067 69.5403 67.452C71.0733 61.3726 74.1923 55.9805 78.3686 51.5927C80.0603 49.8482 81.8577 48.3151 83.8665 46.9406C88.4657 43.7159 93.8579 41.5485 99.6201 40.7555C101.153 40.544 102.739 40.4383 104.431 40.4383C114.634 40.4383 123.938 44.7732 130.493 51.6984C136.467 58.0422 140.273 66.5533 140.431 75.8575C140.431 76.0689 140.431 76.2804 140.431 76.439C140.431 96.316 124.308 112.44 104.431 112.44C90.686 112.387 78.6858 104.563 72.6593 93.2499Z" fill="#2A197E"/>
<path d="M139.586 32.0328C142.123 33.8831 142.546 37.6365 140.431 40.0154L107.285 77.5491H50.8792C50.8792 46.6234 75.9897 21.5128 106.915 21.5128C119.127 21.5128 130.44 25.4248 139.586 32.0328Z" fill="#00D3B8"/>
<path d="M32.1123 76.1218C30.9493 78.1835 30.3149 80.5095 30.3149 82.9941C30.3149 90.8709 36.7115 97.2675 44.5883 97.2675C46.3857 97.2675 50.1391 96.7918 54.8969 95.8402C57.8044 95.2587 61.0292 94.5715 64.5182 93.8314C67.6372 93.197 70.9677 92.4569 74.2453 91.7696C87.6728 88.8621 101.206 85.796 104.907 84.9501C112.096 83.2585 113.206 79.1351 113.206 76.4918C113.206 74.9059 112.731 73.5314 111.938 72.3155C111.303 71.3111 110.352 70.4653 109.294 69.8309L85.0296 46.6763L77.4171 39.3282L71.7078 33.936L66.3685 28.8081L75.514 2.42876C73.0823 1.90012 70.5448 1.47722 67.9544 1.16003L45.1698 66.4476C38.8261 65.7604 33.0639 62.3242 29.4691 57.0377L8.74624 27.5922C6.26162 31.8214 4.25278 36.5792 2.82544 41.9185L18.6319 64.5973C22.2267 69.6195 26.8259 73.4786 32.1123 76.1218ZM60.2362 46.5177L63.8838 35.9977L66.5799 38.5352L72.2893 43.9273L79.8489 51.1169L96.0783 66.6062C95.8668 66.6062 95.7082 66.6062 95.4968 66.6062H53.2581L60.2362 46.5177Z" fill="#2A197E"/>
<path d="M25.8215 100.915L27.196 99.4879L25.8215 100.915Z" fill="#D23DFB"/>
<path d="M27.196 99.4879L25.8215 100.915L27.196 99.4879Z" fill="#D23DFB"/>
<path d="M45.0111 49.9539L48.2358 45.0375C48.2358 45.0375 43.2666 37.3721 42.4207 30.394C41.3106 22.7287 42.1035 12.5787 40.4648 3.06311C33.3281 5.17769 26.2442 8.77249 20.0591 13.9532C26.9315 26.6935 32.6937 37.7422 33.5924 44.1388C34.2268 49.2138 45.0111 49.9539 45.0111 49.9539Z" fill="#FFA296"/>
<path d="M48.0772 60.1567H25.6099V66.7119H48.0772V60.1567Z" fill="#00D3B8"/>
<path d="M42.6852 87.3291C41.0993 87.752 39.5662 86.9062 39.0376 85.3203L31.7952 60.6854L37.3988 59.0466L44.6412 83.7343C45.1699 85.2674 44.2712 86.9062 42.6852 87.3291Z" fill="#00D3B8"/>
<path d="M43.3726 84.7916C43.5312 83.7343 42.5268 82.8885 41.4695 83.2057C40.9937 83.3643 40.6237 83.8401 40.5708 84.3687C40.4122 85.426 41.4166 86.2718 42.4739 85.9546C42.9497 85.6903 43.3197 85.2674 43.3726 84.7916Z" fill="#00D3B8"/>
<path d="M23.3368 104.457L25.1342 102.448C14.7727 93.5141 16.623 83.047 19.2134 76.809L23.2839 78.6592C21.1693 83.6813 19.7949 91.9282 28.0946 99.0649L29.892 97.056L34.174 106.096L23.3368 104.457Z" fill="#D23DFB"/>
<path d="M32.1122 44.3502L31.2135 46.2533C31.2135 46.2533 28.8875 45.0375 28.1474 45.989C27.4073 46.9406 27.7245 50.3239 25.6099 51.1697C23.4953 52.0156 19.0547 50.5354 16.7287 51.1697C12.7638 52.3328 12.9753 57.4078 13.4511 60.2096H49.2403C50.9319 60.2096 53.3108 58.095 52.5707 55.0288C51.8835 51.9627 49.6103 49.4781 48.9231 43.7159C48.8702 43.1344 47.0728 42.7114 46.5971 44.7203C45.8041 47.6807 43.5309 48.6851 41.2049 47.6278C39.7776 46.9934 36.077 45.0903 34.1211 43.7687C33.4338 43.3458 32.4294 43.5573 32.1122 44.3502Z" fill="#D23DFB"/>
</svg>
